<svg xmlns="http://www.w3.org/2000/svg" xmlns:xlink="http://www.w3.org/1999/xlink" xmlns:inkscape="http://www.inkscape.org/namespaces/inkscape" version="1.1" width="1080" height="1080" viewBox="0 0 1080 1080">
<defs>
<clipPath id="clip_1">
<path transform="matrix(1,0,0,-1,0,1080)" d="M0 1080H1080V0H0Z"/>
</clipPath>
</defs>
<g inkscape:groupmode="layer" inkscape:label="Layer 1">
</g>
<g inkscape:groupmode="layer" inkscape:label="Layer 3">
</g>
<g inkscape:groupmode="layer" inkscape:label="Utrydde fattigdom">
</g>
<g inkscape:groupmode="layer" inkscape:label="Layer 4">
</g>
<g inkscape:groupmode="layer" inkscape:label="Layer 6">
</g>
<g inkscape:groupmode="layer" inkscape:label="Overskrift">
<path transform="matrix(1,0,0,-1,0,1080)" d="M0 0H1080V1080H0Z" fill="#3f7e44"/>
</g>
<g inkscape:groupmode="layer" inkscape:label="Layer 7">
<path transform="matrix(1,0,0,-1,0,1080)" d="M0 0H1080V1080H0Z" fill="#3f7e44"/>
<path transform="matrix(1,0,0,-1,136.9707,91.03131)" d="M0 0V-218.709H-36.78V-51.294H-37.103L-62.897-78.063H-63.233V-39.677L-29.364 0Z" fill="#ffffff"/>
<g clip-path="url(#clip_1)">
<path transform="matrix(1,0,0,-1,258.2549,138.46002)" d="M0 0V-19.024C0-37.404-9.997-49.66-25.156-54.514-6.776-58.702 1.937-71.603 1.937-91.603V-123.865C1.937-154.185-14.185-173.862-51.287-173.862-88.713-173.862-101.949-152.571-101.949-119.348V-90.635H-68.384V-121.936C-68.384-134.837-63.879-143.213-51.287-143.213-40.013-143.213-34.856-135.159-34.856-123.536V-87.414C-34.856-75.791-40.013-69.674-52.907-69.674H-68.384V-41.606H-54.508C-42.581-41.606-34.856-35.469-34.856-23.865V-.315C-34.856 11.624-39.032 19.361-50.642 19.361-62.245 19.361-66.447 11.624-66.447-1.929V-24.181H-100.014V-4.833C-100.014 27.429-86.776 50.011-48.719 50.011-14.837 50.011 0 30.972 0 0" fill="#ffffff"/>
<path transform="matrix(1,0,0,-1,714.9492,752.6836)" d="M0 0C-4.491 1.228-23.3 27.224-8.43 44.333-5.96 47.145-13.421 55.419-11.38 55.584-3.246 56.213 1.08 51.169 3.214 43.892 3.379 40.688 3.503 37.451 3.503 34.185 3.503 22.469 2.278 11.04 0 0M-45.874-84.551C-47.554-84.08-49.271-83.537-51.136-82.608-60.276-77.956-59.184-85.391-63.675-83.751-68.199-82.075-58.604-71.644-72.11-80.465-85.552-89.264-81.923-79.104-87.791-64.202-93.718-49.286-81.041-32.266-70.457-28.413-55.91-23.146-46.875-22.075-40.053-20.39-19.935-15.364-15.68-3.426-12.031-10.692-11.34-12.052-10.675-13.346-10.069-14.564-8.896-16.734-7.547-21.133-7.481-25.474-16.022-47.86-29.2-67.959-45.874-84.551M-163.991-133.303C-180.355-133.303-196.135-130.919-211.063-126.56-213.211-124.809-214.436-121.885-213.092-118.374-207.909-104.86-192.479-99.573-180.296-98.4-153.138-95.753-117.444-116.029-111.768-112.757-106.072-109.49-94.593-94.561-77.748-95.187-66.249-95.628-66.335-97.558-62.476-99.013-90.642-120.501-125.808-133.303-163.991-133.303M-186.763-24.143C-189.068-27.913-195.364-56.079-199.592-52.799-203.839-49.513-197.879-20.133-196.654-17.899-190.043-5.766-175.732-6.365-186.763-24.143M-118.366 9.11C-121.673 6.167-130.142 7.243-134.376 10.549-138.584 13.822-131.702 19.259-129.187 19.459-123.55 19.963-115.087 12.094-118.366 9.11M-44.452 8.821C-46.256 9.496-47.85 11.205-49.22 15.316-50.583 19.43-47.125 21.774-43.747 20.121-40.31 18.376-35.851 13.249-35.851 10.51-35.851 7.767-42.608 8.096-44.452 8.821M-37.333 3.674C-31.702 4.129-23.247-3.672-26.553-6.668-29.846-9.638-38.287-8.549-42.522-5.236-46.737-1.957-39.861 3.467-37.333 3.674M-216.99-63.108C-220.244-75.911-224.043-80.527-227.283-84.564-230.517-88.65-242.509-93.859-250.115-93.3-257.734-92.73-258.795-72.401-258.795-61.95-258.795-58.338-263.905-69.046-266.572-47.287-268.278-33.355-277.221-48.739-277.847-39.447-278.485-30.178-282.95-32.026-287.652-26.23-292.321-20.442-298.149-26.797-304.682-29.725-311.176-32.612-308.502-34.133-317.741-31.226-317.979-31.15-318.097-31.08-318.327-30.998-326.803-10.962-331.484 11.066-331.484 34.185-331.484 39.842-331.182 45.399-330.655 50.898-330.339 51.458-330.01 51.995-329.621 52.456-320.764 62.937-320.962 65.39-320.962 65.39L-311.162 68.785C-311.162 68.785-295.516 66.374-283.728 61.936-274.021 58.294-258.729 50.059-249.839 53.684-243.411 56.335-238.38 59.849-238.986 65.202-239.71 71.916-244.999 73.513-251.399 68.985-253.764 67.319-258.795 79.107-262.739 78.508-266.685 77.922-257.86 64.658-261.205 64.096-264.563 63.522-271.307 77.922-272.46 80.253-273.593 82.567-278.801 88.347-283.478 83.938-293.355 74.553-309.397 75.126-312.618 72.713-322.424 65.377-325.012 75.126-324.795 81.066-324.399 82.423-323.997 83.792-323.562 85.137-320.362 88.666-308.87 89.835-304.926 87.204-300.593 84.31-297.484 87.948-295.792 89.706-294.073 91.422-294.679 94.204-295.759 96.513-296.859 98.841-293.593 100.543-291.354 101.143-289.095 101.741-281.634 106.964-278.657 108.709-275.647 110.438-260.165 112.317-253.224 108.848-246.289 105.354-239.921 108.205-236.51 112.223-232.229 117.3-226.783 121.172-224.366 122.344-221.936 123.479-230.339 131.323-237.247 122.771-244.176 114.264-247.698 113.477-250.952 113.477-254.205 113.477-273.54 118.3-275.924 124.412-278.281 130.51-269.878 135.083-262.739 138.544-255.607 141.945-236.082 141.899-231.09 143.028-220.942 145.255-207.968 150.353-201.436 145.903-194.929 141.533-228.726 133.835-217.616 127.836-213.665 125.666-195.799 138.116-189.675 141.3-175.271 148.729-203.642 151.182-199.96 166.282-195.799 183.352-234.758 176.75-254.179 175.298-228.133 191.985-197.201 201.691-163.991 201.691-84.979 201.691-18.795 146.957-1.146 73.354-1.027 69.716-1.594 67.092-1.962 65.604-3.477 59.568-14.93 54.379-21.573 64.096-23.267 66.545-30.451 73.328-30.207 61.725-29.977 50.114-18.926 48.929-29.634 41.962-40.329 34.998-42.292 36.677-47.237 34.922-52.17 33.177-56.957 21.215-55.778 14.823-54.58 8.429-39.315-9.025-50.643-8.309-53.296-8.11-73.31 5.555-76.615 14.346-80.099 23.599-83.905 32.653-86.605 39.634-89.338 46.585-96.397 48.362-102.384 44.271-108.337 40.19-100.718 36.12-105.005 27.396-109.272 18.686-112.341 10.908-118.63 18.103-134.975 36.835-158.729 27.596-162.456 48.438-164.465 59.739-174.198 58.656-182.331 65.057-190.511 71.419-195.062 74.883-196.437 70.273-197.649 66.229-170.84 44.975-168.93 39.528-166.085 31.442-176.957 24.304-184.92 22.387-192.842 20.486-196.338 26.852-204.143 34.981-211.939 43.092-215.357 48.899-215.897 42.521-216.681 33.309-208.488 19.775-200.54 14.718-193.764 10.425-186.17 8.481-188.363 1.518-190.57-5.47-188.403-1.515-195.996-9.025-203.603-16.576-205.051-19.003-204.498-29.428-203.951-39.889-206.671-40.487-208.304-49.181-209.931-57.877-213.704-50.353-216.99-63.108M-306.961 121.469C-306.579 121.922-306.236 122.294-306.092 122.481-303.069 125.927-297.05 126.664-292.888 127.313-288.72 128.027-283.161 125.927-282.489 123.157-281.778 120.401-292.94 115.344-294.982 113.45-300.764 108.123-309.819 97.27-315.113 96.101-316.846 95.712-318.269 95.976-319.44 96.555-315.956 105.234-311.794 113.585-306.961 121.469M-298.373 138.544C-296.207 141.726-289.009 150.806-288.133 151.952-286.282 154.336-282.607 154.823-280.026 155.281-277.479 155.775-274.073 154.336-273.665 152.42-273.224 150.496-274.652 143.055-275.91 141.774-279.434 138.116-288.613 132.95-293.671 133.763-297.583 134.362-299.117 137.392-298.373 138.544M234.041 39.578C205.453 79.681 76.128 239.789-164.268 239.789-404.702 239.789-533.987 79.681-562.621 39.578-563.84 37.862-564.887 36.381-565.742 35.12-564.887 33.826-563.84 32.351-562.621 30.615-533.987-9.467-404.702-169.582-164.268-169.582 76.128-169.582 205.453-9.467 234.041 30.615 235.292 32.351 236.318 33.826 237.142 35.12 236.318 36.381 235.292 37.862 234.041 39.578" fill="#ffffff"/>
</g>
<text fill="#ffffff" xml:space="preserve" transform="matrix(1 0 -0 1 0 1080)" font-size="93" font-family="Oswald-SemiBold" font-weight="bold"><tspan y="-911.4395" x="341 388.988 430.18699 484.77799 537.044 589.31">STOPPE</tspan><tspan y="-783.2855" x="341 393.359 434.651 462.551 528.209 579.266 621.11599 673.66098 727.97299 783.21499 811.115 863.66 917.87899 959.72897 1012.2739">KLIMAENDRINGENE</tspan></text>
</g>
</svg>
