<svg xmlns="http://www.w3.org/2000/svg" xmlns:xlink="http://www.w3.org/1999/xlink" xmlns:inkscape="http://www.inkscape.org/namespaces/inkscape" version="1.1" width="1080" height="1080" viewBox="0 0 1080 1080">
<defs>
<clipPath id="clip_1">
<path transform="matrix(1,0,0,-1,0,1080)" d="M0 1080H1080V0H0Z"/>
</clipPath>
</defs>
<g inkscape:groupmode="layer" inkscape:label="Layer 1">
</g>
<g inkscape:groupmode="layer" inkscape:label="Layer 3">
</g>
<g inkscape:groupmode="layer" inkscape:label="Utrydde fattigdom">
</g>
<g inkscape:groupmode="layer" inkscape:label="Layer 4">
</g>
<g inkscape:groupmode="layer" inkscape:label="Layer 6">
</g>
<g inkscape:groupmode="layer" inkscape:label="Overskrift">
<path transform="matrix(1,0,0,-1,0,1080)" d="M0 0H1080V1080H0Z" fill="#19486a"/>
</g>
<g inkscape:groupmode="layer" inkscape:label="Layer 7">
<path transform="matrix(1,0,0,-1,0,1080)" d="M0 0H1080V1080H0Z" fill="#19486a"/>
<path transform="matrix(1,0,0,-1,162.1953,90.84961)" d="M0 0V-218.549H-36.745V-51.249H-37.074L-62.86-78.003H-63.176V-39.646L-29.325 0Z" fill="#ffffff"/>
<path transform="matrix(1,0,0,-1,178.9561,90.84961)" d="M0 0H92.198V-33.844L44.165-218.549H7.723L56.729-29.97H0Z" fill="#ffffff"/>
<g clip-path="url(#clip_1)">
<path transform="matrix(1,0,0,-1,644.2939,666.82327)" d="M0 0C27.805 25.802 45.257 62.622 45.257 103.466 45.257 109.574 44.822 115.593 44.072 121.506 100.578 115.454 144.749 67.507 144.749 9.403 144.749-23.605 130.403-53.25 107.702-73.895 86.455-34.081 46.704-5.611 0 0M95.842-140.139C95.842-202.292 45.257-252.877-16.919-252.877-37.152-252.877-56.085-247.45-72.517-238.083-48.533-212.771-33.746-178.61-33.746-141.077-33.746-131.834-34.68-122.807-36.377-114.061-16.104-125.329 7.196-131.769 31.995-131.769 54.052-131.769 74.95-126.674 93.553-117.603 95.053-124.895 95.842-132.427 95.842-140.139M-287.685-141.077C-287.685-133.059-286.83-125.25-285.218-117.711-266.642-126.714-245.822-131.769-223.838-131.769-199.118-131.769-175.897-125.371-155.67-114.169-157.242-122.589-158.11-131.266-158.11-140.139-158.11-178.27-142.862-212.902-118.201-238.333-134.89-248.107-154.243-253.812-174.924-253.812-237.112-253.812-287.685-203.232-287.685-141.077M-336.593 9.403C-336.593 67.507-292.435 115.447-235.929 121.506-236.679 115.593-237.112 109.574-237.112 103.466-237.112 62.195-219.3 25.006-190.987-.829-237.816-6.161-277.766-34.463-299.236-74.188-322.102-53.546-336.593-23.761-336.593 9.403M-95.935 216.217C-49.73 216.217-9.985 188.276 7.426 148.417-38.442 140.329-76.733 110.054-95.935 69.082-115.109 110.061-153.413 140.336-199.282 148.417-181.87 188.276-142.125 216.217-95.935 216.217M-69.083-40.269C-53.46-32.078-35.752-27.378-16.919-27.378 27.41-27.378 65.734-53.161 84.159-90.455 68.53-98.651 50.796-103.348 31.995-103.348-12.347-103.348-50.678-77.565-69.083-40.269M-123.142-41.028C-141.691-77.917-179.805-103.348-223.838-103.348-242.514-103.348-260.109-98.701-275.634-90.633-257.083-53.743-218.957-28.315-174.924-28.315-156.242-28.315-138.666-32.953-123.142-41.028M-207.209 120.802C-152.914 112.728-111.077 65.925-111.077 9.403-111.077 3.506-111.676-2.26-112.558-7.92-166.859 .161-208.683 46.95-208.683 103.466-208.683 109.376-208.091 115.142-207.209 120.802M-95.408-220.901C-116.518-200.404-129.68-171.79-129.68-140.139-129.68-108.966-116.945-80.714-96.448-60.285-75.352-80.782-62.176-109.399-62.176-141.077-62.176-172.23-74.898-200.477-95.408-220.901M16.826 103.466C16.826 46.95-24.997 .161-79.299-7.92-80.18-2.26-80.766 3.506-80.766 9.403-80.766 65.925-38.942 112.721 15.354 120.796 16.234 115.142 16.826 109.376 16.826 103.466M173.174 9.403C173.174 85.527 112.616 147.723 37.179 150.473 17.773 205.271-34.562 244.644-95.935 244.644-157.295 244.644-209.623 205.271-229.048 150.473-304.484 147.717-365.017 85.521-365.017 9.403-365.017-35.766-343.664-76.026-310.537-101.888-314.136-114.343-316.115-127.479-316.115-141.077-316.115-218.895-252.782-282.234-174.924-282.234-145.382-282.234-117.944-273.092-95.244-257.515-72.813-272.525-45.876-281.294-16.919-281.294 60.926-281.294 124.259-217.961 124.259-140.139 124.259-126.815 122.371-113.938 118.911-101.727 151.9-75.855 173.174-35.67 173.174 9.403" fill="#ffffff"/>
</g>
<text fill="#ffffff" xml:space="preserve" transform="matrix(1 0 -0 1 0 1080)" font-size="93" font-family="Oswald-SemiBold" font-weight="bold"><tspan y="-914.5449" x="364.6094 412.0394 463.0964 528.7544 579.8114 635.0534 689.5514 731.40139 759.3014 813.6134">SAMARBEID </tspan><tspan y="-786.3909" x="364.6094 405.1574 459.7484 514.9904 539.2634 590.32046 614.59347 667.1384 718.19546 742.46847 808.12649 859.1835 900.47549 942.32546 994.8704">FOR &#x00c5; N&#x00c5; M&#x00c5;LENE</tspan></text>
</g>
</svg>
