<svg xmlns="http://www.w3.org/2000/svg" xmlns:xlink="http://www.w3.org/1999/xlink" xmlns:inkscape="http://www.inkscape.org/namespaces/inkscape" version="1.1" width="1080" height="1080" viewBox="0 0 1080 1080">
<defs>
<clipPath id="clip_1">
<path transform="matrix(1,0,0,-1,0,1080)" d="M0 1080H1080V0H0Z"/>
</clipPath>
</defs>
<g inkscape:groupmode="layer" inkscape:label="Layer 1">
</g>
<g inkscape:groupmode="layer" inkscape:label="Layer 3">
</g>
<g inkscape:groupmode="layer" inkscape:label="Utrydde fattigdom">
</g>
<g inkscape:groupmode="layer" inkscape:label="Layer 4">
</g>
<g inkscape:groupmode="layer" inkscape:label="Layer 6">
</g>
<g inkscape:groupmode="layer" inkscape:label="Overskrift">
<path transform="matrix(1,0,0,-1,0,1080)" d="M0 0H1080V1080H0Z" fill="#bf8b2e"/>
</g>
<g inkscape:groupmode="layer" inkscape:label="Layer 7">
<path transform="matrix(1,0,0,-1,0,1080)" d="M0 0H1079.941V1080H0Z" fill="#bf8b2e"/>
<path transform="matrix(1,0,0,-1,107.8037,141.90723)" d="M0 0H.328V-166.689H36.938V51.062H7.682L-26.019 11.555V-26.661H-25.704Z" fill="#ffffff"/>
<g clip-path="url(#clip_1)">
<path transform="matrix(1,0,0,-1,166.5664,135.81842)" d="M0 0V-26.326H33.397V.977C33.397 14.137 39.834 17.99 47.528 17.99 54.606 17.99 60.701 15.106 60.701 1.605V-16.365C60.701-34.361 59.102-41.42 47.2-53.944L26.66-75.789C6.75-96.99-.656-111.12-.656-132.643V-172.792H94.428V-142.913H34.354V-132.643C34.354-115.616 40.463-109.193 49.77-99.238L73.219-74.511C92.172-54.279 96.354-41.42 96.354-19.583V1.605C96.354 32.769 81.267 47.535 48.498 47.535 16.371 47.535 0 30.515 0 0" fill="#ffffff"/>
<path transform="matrix(1,0,0,-1,814.0391,560.3564)" d="M0 0C-47.699 37.672-110.891 38.445-134.026 32.939L-136.713 32.317C-163.439 26.006-205.896 15.56-255.587-46.105-255.862-46.446-256.15-46.801-256.412-47.154L-257.042-47.914C-257.527-48.604-257.867-49.409-257.867-50.313-257.867-51.061-257.684-51.742-257.33-52.378L-256.177-54.278C-249.937-64.713-242.072-78.141-235.428-90.515-235.361-90.646-235.297-90.744-235.243-90.895-234.536-92.265-233.12-93.228-231.456-93.228-230.302-93.228-229.267-92.769-228.52-92.035-228.205-91.629-227.89-91.202-227.615-90.771-183.508-29.773-148.825-21.352-125.362-15.834L-122.557-15.172C-110.38-12.249-64.083-12.426-30.659-38.812-4.574-59.403 8.664-92.173 8.664-136.194 8.664-210.043-27.252-238.933-57.398-250.159-104.089-267.612-148.864-244.28-149.192-244.104L-151.197-243.127C-176.85-231.992-215.123-208.824-251.195-136.372-323.904 9.654-384.724 23.404-424.964 32.521L-427.114 32.999C-445.438 37.154-509.076 40.091-559.095 .164-585.231-20.684-616.362-61.219-616.362-135.9-616.362-181.403-607.017-211.446-582.99-243.056-577.721-250.258-523.875-319.434-419.773-299.483-403.113-296.292-380.542-288.335-355.716-269.729L-332.805-290.4C-331.31-291.757-328.924-291.646-327.548-290.138-326.893-289.437-326.617-288.538-326.63-287.654V-287.346L-310.102-185.67-310.089-184.542C-310.102-183.553-310.508-182.544-311.32-181.836-312.016-181.174-312.88-180.918-313.745-180.918L-314.453-180.984-315.528-181.096-412.918-208.359-414.687-208.647C-415.396-208.798-416.051-209.165-416.549-209.735-417.965-211.282-417.834-213.642-416.274-215.018L-415.133-216.073-393.31-235.78C-407.399-244.903-419.682-249.091-429.054-250.906-504.37-265.272-541.557-215.941-542.973-214.009L-543.497-213.287C-560.995-190.31-566.907-170.786-566.907-135.9-566.907-91.747-553.904-58.964-528.253-38.478-495.68-12.484-450.76-12.334-438.071-15.224L-435.883-15.716C-402.904-23.181-357.722-33.397-295.486-158.412-263.163-223.315-222.674-265.751-171.724-288.133-165.235-291.441-134.302-306.109-94.152-306.109-77.362-306.109-58.972-303.547-40.11-296.534-10.578-285.511 58.119-247.853 58.119-136.194 58.119-61.56 26.517-20.939 0 0" fill="#ffffff"/>
<path transform="matrix(1,0,0,-1,814.0391,560.3564)" d="M0 0C-47.699 37.672-110.891 38.445-134.026 32.939L-136.713 32.317C-163.439 26.006-205.896 15.56-255.587-46.105-255.862-46.446-256.15-46.801-256.412-47.154L-257.042-47.914C-257.527-48.604-257.867-49.409-257.867-50.313-257.867-51.061-257.684-51.742-257.33-52.378L-256.177-54.278C-249.937-64.713-242.072-78.141-235.428-90.515-235.361-90.646-235.297-90.744-235.243-90.895-234.536-92.265-233.12-93.228-231.456-93.228-230.302-93.228-229.267-92.769-228.52-92.035-228.205-91.629-227.89-91.202-227.615-90.771-183.508-29.773-148.825-21.352-125.362-15.834L-122.557-15.172C-110.38-12.249-64.083-12.426-30.659-38.812-4.574-59.403 8.664-92.173 8.664-136.194 8.664-210.043-27.252-238.933-57.398-250.159-104.089-267.612-148.864-244.28-149.192-244.104L-151.197-243.127C-176.85-231.992-215.123-208.824-251.195-136.372-323.904 9.654-384.724 23.404-424.964 32.521L-427.114 32.999C-445.438 37.154-509.076 40.091-559.095 .164-585.231-20.684-616.362-61.219-616.362-135.9-616.362-181.403-607.017-211.446-582.99-243.056-577.721-250.258-523.875-319.434-419.773-299.483-403.113-296.292-380.542-288.335-355.716-269.729L-332.805-290.4C-331.31-291.757-328.924-291.646-327.548-290.138-326.893-289.437-326.617-288.538-326.63-287.654V-287.346L-310.102-185.67-310.089-184.542C-310.102-183.553-310.508-182.544-311.32-181.836-312.016-181.174-312.88-180.918-313.745-180.918L-314.453-180.984-315.528-181.096-412.918-208.359-414.687-208.647C-415.396-208.798-416.051-209.165-416.549-209.735-417.965-211.282-417.834-213.642-416.274-215.018L-415.133-216.073-393.31-235.78C-407.399-244.903-419.682-249.091-429.054-250.906-504.37-265.272-541.557-215.941-542.973-214.009L-543.497-213.287C-560.995-190.31-566.907-170.786-566.907-135.9-566.907-91.747-553.904-58.964-528.253-38.478-495.68-12.484-450.76-12.334-438.071-15.224L-435.883-15.716C-402.904-23.181-357.722-33.397-295.486-158.412-263.163-223.315-222.674-265.751-171.724-288.133-165.235-291.441-134.302-306.109-94.152-306.109-77.362-306.109-58.972-303.547-40.11-296.534-10.578-285.511 58.119-247.853 58.119-136.194 58.119-61.56 26.517-20.939 0 0" fill="#ffffff"/>
<path transform="matrix(1,0,0,-1,814.0391,560.3564)" stroke-width=".73" stroke-linecap="butt" stroke-miterlimit="10" stroke-linejoin="miter" fill="none" stroke="#ffffff" d="M0 0C-47.699 37.672-110.891 38.445-134.026 32.939L-136.713 32.317C-163.439 26.006-205.896 15.56-255.587-46.105-255.862-46.446-256.15-46.801-256.412-47.154L-257.042-47.914C-257.527-48.604-257.867-49.409-257.867-50.313-257.867-51.061-257.684-51.742-257.33-52.378L-256.177-54.278C-249.937-64.713-242.072-78.141-235.428-90.515-235.361-90.646-235.297-90.744-235.243-90.895-234.536-92.265-233.12-93.228-231.456-93.228-230.302-93.228-229.267-92.769-228.52-92.035-228.205-91.629-227.89-91.202-227.615-90.771-183.508-29.773-148.825-21.352-125.362-15.834L-122.557-15.172C-110.38-12.249-64.083-12.426-30.659-38.812-4.574-59.403 8.664-92.173 8.664-136.194 8.664-210.043-27.252-238.933-57.398-250.159-104.089-267.612-148.864-244.28-149.192-244.104L-151.197-243.127C-176.85-231.992-215.123-208.824-251.195-136.372-323.904 9.654-384.724 23.404-424.964 32.521L-427.114 32.999C-445.438 37.154-509.076 40.091-559.095 .164-585.231-20.684-616.362-61.219-616.362-135.9-616.362-181.403-607.017-211.446-582.99-243.056-577.721-250.258-523.875-319.434-419.773-299.483-403.113-296.292-380.542-288.335-355.716-269.729L-332.805-290.4C-331.31-291.757-328.924-291.646-327.548-290.138-326.893-289.437-326.617-288.538-326.63-287.654V-287.346L-310.102-185.67-310.089-184.542C-310.102-183.553-310.508-182.544-311.32-181.836-312.016-181.174-312.88-180.918-313.745-180.918L-314.453-180.984-315.528-181.096-412.918-208.359-414.687-208.647C-415.396-208.798-416.051-209.165-416.549-209.735-417.965-211.282-417.834-213.642-416.274-215.018L-415.133-216.073-393.31-235.78C-407.399-244.903-419.682-249.091-429.054-250.906-504.37-265.272-541.557-215.941-542.973-214.009L-543.497-213.287C-560.995-190.31-566.907-170.786-566.907-135.9-566.907-91.747-553.904-58.964-528.253-38.478-495.68-12.484-450.76-12.334-438.071-15.224L-435.883-15.716C-402.904-23.181-357.722-33.397-295.486-158.412-263.163-223.315-222.674-265.751-171.724-288.133-165.235-291.441-134.302-306.109-94.152-306.109-77.362-306.109-58.972-303.547-40.11-296.534-10.578-285.511 58.119-247.853 58.119-136.194 58.119-61.56 26.517-20.939 0 0"/>
</g>
<text fill="#ffffff" xml:space="preserve" transform="matrix(1 0 -0 1 0 1080)" font-size="93" font-family="Oswald-SemiBold" font-weight="bold"><tspan y="-914.1641" x="357.5889 408.6459 461.19093 508.6209 555.2976 606.3546 661.5966 702.8886 730.78866">ANSVARLIG</tspan><tspan y="-786.01016" x="357.5889 398.1369 452.7279 507.9699 562.4679 617.3379 672.11489 724.4739 748.7469 803.3379 857.5569">FORBRUK OG </tspan><tspan y="-657.85617" x="357.5889 409.8549 464.53889 519.1299 573.4419 628.2189 679.3689 727.3569 759.90689 814.49789">PRODUKSJON</tspan></text>
</g>
</svg>
