<svg xmlns="http://www.w3.org/2000/svg" xmlns:xlink="http://www.w3.org/1999/xlink" xmlns:inkscape="http://www.inkscape.org/namespaces/inkscape" version="1.1" width="1080" height="1080" viewBox="0 0 1080 1080">
<defs>
<clipPath id="clip_1">
<path transform="matrix(1,0,0,-1,0,1080)" d="M0 1080H1080V0H0Z"/>
</clipPath>
</defs>
<g inkscape:groupmode="layer" inkscape:label="Layer 1">
</g>
<g inkscape:groupmode="layer" inkscape:label="Layer 3">
</g>
<g inkscape:groupmode="layer" inkscape:label="Utrydde fattigdom">
</g>
<g inkscape:groupmode="layer" inkscape:label="Layer 4">
</g>
<g inkscape:groupmode="layer" inkscape:label="Layer 6">
</g>
<g inkscape:groupmode="layer" inkscape:label="Overskrift">
<path transform="matrix(1,0,0,-1,0,1080)" d="M0 0H1080V1080H0Z" fill="#fcc30b"/>
</g>
<g inkscape:groupmode="layer" inkscape:label="Layer 7">
<path transform="matrix(1,0,0,-1,0,1080)" d="M2 0H1080V1078.033H2Z" fill="#fcc30b"/>
<path transform="matrix(1,0,0,-1,112.5713,122.132328)" d="M0 0H56.43L7.687-187.536H43.929L91.698-3.846V29.825H0Z" fill="#ffffff"/>
<g clip-path="url(#clip_1)">
<path transform="matrix(1,0,0,-1,541.4189,763.2246)" d="M0 0C-45.381 0-82.173 36.785-82.173 82.172-82.173 119.063-57.889 150.261-24.421 160.662V130.066C-41.842 121.169-53.794 103.087-53.794 82.172-53.794 52.459-29.72 28.379 0 28.379 29.72 28.379 53.794 52.459 53.794 82.172 53.794 103.146 41.783 121.261 24.284 130.138V160.701C57.817 150.346 82.186 119.115 82.186 82.172 82.186 36.785 45.394 0 0 0M-11.723 176.54C-11.723 181.799-6.443 187.589 .039 187.589 6.509 187.589 11.743 181.799 11.743 176.54V122.294C11.743 117.061 6.509 111.33 .039 111.33-6.443 111.33-11.723 117.061-11.723 122.294ZM-.026 238.955C-87.275 238.955-158.006 168.219-158.006 80.963-158.006-6.333-87.275-77.051-.026-77.051 87.223-77.051 157.954-6.333 157.954 80.963 157.954 168.219 87.223 238.955-.026 238.955" fill="#ffffff"/>
<path transform="matrix(1,0,0,-1,360.0317,680.88186)" d="M0 0C0 7.163-6.345 12.966-12.142 12.966H-81.329C-87.165 12.966-93.568 7.163-93.568 0-93.568-7.183-87.165-13.019-81.329-13.019H-12.142C-6.345-13.019 0-7.183 0 0" fill="#ffffff"/>
<path transform="matrix(1,0,0,-1,816.394,680.88186)" d="M0 0C0 7.163-6.345 12.966-12.142 12.966H-81.329C-87.157 12.966-93.562 7.163-93.562 0-93.562-7.183-87.157-13.019-81.329-13.019H-12.142C-6.345-13.019 0-7.183 0 0" fill="#ffffff"/>
<path transform="matrix(1,0,0,-1,541.458,499.5078)" d="M0 0C7.15 0 12.959 6.346 12.959 12.136V81.329C12.959 87.164 7.15 93.562 0 93.562-7.176 93.562-13.025 87.164-13.025 81.329V12.136C-13.025 6.346-7.176 0 0 0" fill="#ffffff"/>
<path transform="matrix(1,0,0,-1,541.458,955.8643)" d="M0 0C7.15 0 12.959 6.347 12.959 12.142V81.323C12.959 87.151 7.15 93.563 0 93.563-7.176 93.563-13.025 87.151-13.025 81.323V12.142C-13.025 6.347-7.176 0 0 0" fill="#ffffff"/>
<path transform="matrix(1,0,0,-1,384.0015,590.7803)" d="M0 0C3.565 6.221 .942 14.405-4.096 17.283L-64.143 51.648C-69.207 54.553-77.646 52.694-81.205 46.48-84.77 40.245-82.108 32.003-77.044 29.099L-16.997-5.267C-11.972-8.145-3.566-6.234 0 0" fill="#ffffff"/>
<path transform="matrix(1,0,0,-1,780.0869,817.4629)" d="M0 0C3.552 6.207 .929 14.405-4.095 17.282L-64.144 51.647C-69.207 54.545-77.652 52.688-81.205 46.467-84.77 40.245-82.114 31.989-77.05 29.098L-17.002-5.268C-11.972-8.146-3.572-6.235 0 0" fill="#ffffff"/>
<path transform="matrix(1,0,0,-1,631.5596,523.4844)" d="M0 0C6.215-3.552 14.393-.928 17.277 4.096L51.642 64.144C54.546 69.214 52.689 77.652 46.474 81.212 40.246 84.783 31.99 82.114 29.092 77.051L-5.273 17.01C-8.151 11.972-6.241 3.566 0 0" fill="#ffffff"/>
<path transform="matrix(1,0,0,-1,404.8765,919.5635)" d="M0 0C6.208-3.552 14.399-.928 17.277 4.103L51.642 64.144C54.54 69.207 52.682 77.659 46.467 81.212 40.246 84.776 31.983 82.114 29.091 77.058L-5.272 17.01C-8.151 11.985-6.234 3.566 0 0" fill="#ffffff"/>
<path transform="matrix(1,0,0,-1,451.0225,523.6406)" d="M0 0C6.209 3.571 8.08 11.965 5.188 16.989L-29.301 76.972C-32.218 82.028-40.428 84.678-46.643 81.106-52.877 77.534-54.736 69.068-51.818 64.013L-17.335 4.043C-14.437-.981-6.234-3.579 0 0" fill="#ffffff"/>
<path transform="matrix(1,0,0,-1,678.5176,919.2559)" d="M0 0C6.208 3.572 8.08 11.966 5.194 16.983L-29.294 76.966C-32.212 82.022-40.429 84.679-46.644 81.107-52.872 77.535-54.736 69.069-51.812 64.006L-17.33 4.03C-14.444-.987-6.228-3.578 0 0" fill="#ffffff"/>
<path transform="matrix(1,0,0,-1,698.6992,590.499)" d="M0 0C3.565-6.202 11.959-8.073 16.983-5.187L76.952 29.301C82.016 32.212 84.685 40.436 81.113 46.644 77.528 52.865 69.076 54.736 64.013 51.824L4.036 17.336C-.988 14.451-3.585 6.221 0 0" fill="#ffffff"/>
<path transform="matrix(1,0,0,-1,303.085,818)" d="M0 0C3.565-6.202 11.958-8.073 16.982-5.182L76.952 29.308C82.015 32.213 84.685 40.436 81.1 46.644 77.534 52.872 69.062 54.736 64.012 51.831L4.036 17.342C-.988 14.458-3.579 6.229 0 0" fill="#ffffff"/>
</g>
<text fill="#ffffff" xml:space="preserve" transform="matrix(1 0 -0 1 0 1080)" font-size="93" font-family="Oswald-SemiBold" font-weight="bold"><tspan y="-912.3638" x="301.3086 356.5506 398.4006 450.94563 475.21864 517.0686 569.6136 611.46359 666.1476 720.3666">REN ENERGI</tspan><tspan y="-784.2098" x="301.3086 343.0656 370.9656 412.2576 436.5306 487.58763 528.87966 570.17166">TIL ALLE</tspan></text>
</g>
</svg>
