<svg xmlns="http://www.w3.org/2000/svg" xmlns:xlink="http://www.w3.org/1999/xlink" xmlns:inkscape="http://www.inkscape.org/namespaces/inkscape" version="1.1" width="1080" height="1080" viewBox="0 0 1080 1080">
<defs>
<clipPath id="clip_1">
<path transform="matrix(1,0,0,-1,0,1080)" d="M0 1080H1080V0H0Z"/>
</clipPath>
</defs>
<g inkscape:groupmode="layer" inkscape:label="Layer 1">
</g>
<g inkscape:groupmode="layer" inkscape:label="Layer 3">
</g>
<g inkscape:groupmode="layer" inkscape:label="Utrydde fattigdom">
</g>
<g inkscape:groupmode="layer" inkscape:label="Layer 4">
</g>
<g inkscape:groupmode="layer" inkscape:label="Layer 6">
</g>
<g inkscape:groupmode="layer" inkscape:label="Overskrift">
<path transform="matrix(1,0,0,-1,0,1080)" d="M0 0H1080V1080H0Z" fill="#ff3a21"/>
</g>
<g inkscape:groupmode="layer" inkscape:label="Layer 7">
<path transform="matrix(1,0,0,-1,0,1080)" d="M0 0H1080V1079.926H0Z" fill="#ff3a21"/>
<g clip-path="url(#clip_1)">
<path transform="matrix(1,0,0,-1,172.2227,159.55127)" d="M0 0C-14.447 0-25.053-5.132-30.834-15.096H-31.162V39.192H31.805V69.063H-64.553V-53.651H-31.162V-48.814C-31.162-35.967-25.367-28.9-15.103-28.9-3.854-28.9 .655-36.622 .655-48.513V-101.188C.655-112.757-3.526-120.78-14.774-120.78-27.308-120.78-31.791-112.429-31.791-99.588V-72.28H-65.221V-97.012C-65.221-130.095-52.046-151.3-14.774-151.3 22.169-151.3 37.259-131.708 37.259-101.509V-48.185C37.259-13.811 19.6 0 0 0" fill="#ffffff"/>
<path transform="matrix(1,0,0,-1,538.1953,783.9009)" d="M0 0C-71.363 0-129.407 58.063-129.407 129.42-129.407 200.786-71.363 258.843 0 258.843 71.369 258.843 129.426 200.786 129.426 129.42 129.426 58.063 71.369 0 0 0M248.548 375.107H114.304C113.386 375.107 112.6 374.346 112.6 373.396V328.787C112.6 327.83 113.386 327.069 114.304 327.069H167.759L108.404 267.702C78.508 291.191 40.889 305.248 0 305.248-96.94 305.248-175.828 226.373-175.828 129.42-175.828 40.155-108.949-33.714-22.693-44.891V-96.294H-75.644C-76.627-96.294-77.374-97.054-77.374-97.992V-145.806C-77.374-146.756-76.627-147.514-75.644-147.514H-22.693V-198.101C-22.693-199.045-21.934-199.806-20.989-199.806H26.803C27.753-199.806 28.533-199.045 28.533-198.101V-147.514H81.477C82.421-147.514 83.182-146.756 83.182-145.806V-97.992C83.182-97.054 82.421-96.294 81.477-96.294H28.533V-44.055C111.957-30.372 175.821 42.185 175.821 129.42 175.821 167.051 163.911 201.927 143.709 230.552L202.218 289.07V239.143C202.218 238.198 203.005 237.438 203.948 237.438H248.548C249.505 237.438 250.291 238.198 250.291 239.143V373.396C250.291 374.346 249.505 375.107 248.548 375.107" fill="#ffffff"/>
<path transform="matrix(1,0,0,-1,617.2471,601.35696)" d="M0 0H-156.977C-157.921 0-158.681-.698-158.681-1.53V-39.532C-158.681-40.424-157.921-41.092-156.977-41.092H0C.977-41.092 1.737-40.424 1.737-39.532V-1.53C1.737-.698 .977 0 0 0" fill="#ffffff"/>
<path transform="matrix(1,0,0,-1,617.2471,669.2129)" d="M0 0H-156.977C-157.921 0-158.681-.718-158.681-1.583V-39.585C-158.681-40.438-157.921-41.119-156.977-41.119H0C.977-41.119 1.737-40.438 1.737-39.585V-1.583C1.737-.718 .977 0 0 0" fill="#ffffff"/>
</g>
<text fill="#ffffff" xml:space="preserve" transform="matrix(1 0 -0 1 0 1080)" font-size="93" font-family="Oswald-SemiBold" font-weight="bold"><tspan y="-910.7837" x="301.4492 342.74119 370.64118 423.00019 464.8502 512.8382 554.5952 582.49526 623.78726 665.0792 692.97927 745.52426">LIKESTILLING</tspan><tspan y="-782.6297" x="301.4492 367.10719 408.95719 450.24919 490.51817 545.10916 610.76718 635.04019 687.3992 719.94918 773.51718 826.06216 878.6071 920.4571 973.0021">MELLOM KJ&#x00d8;NNENE</tspan></text>
</g>
</svg>
