<svg xmlns="http://www.w3.org/2000/svg" xmlns:xlink="http://www.w3.org/1999/xlink" xmlns:inkscape="http://www.inkscape.org/namespaces/inkscape" version="1.1" width="1080" height="1080" viewBox="0 0 1080 1080">
<defs>
<clipPath id="clip_1">
<path transform="matrix(1,0,0,-1,0,1080)" d="M0 1080H1080V0H0Z"/>
</clipPath>
</defs>
<g inkscape:groupmode="layer" inkscape:label="Layer 1">
</g>
<g inkscape:groupmode="layer" inkscape:label="Layer 3">
</g>
<g inkscape:groupmode="layer" inkscape:label="Utrydde fattigdom">
</g>
<g inkscape:groupmode="layer" inkscape:label="Layer 4">
</g>
<g inkscape:groupmode="layer" inkscape:label="Layer 6">
</g>
<g inkscape:groupmode="layer" inkscape:label="Overskrift">
<path transform="matrix(1,0,0,-1,0,1080)" d="M0 0H1080V1080H0Z" fill="#4c9f38"/>
</g>
<g inkscape:groupmode="layer" inkscape:label="Layer 7">
<path transform="matrix(1,0,0,-1,0,1080)" d="M0 0H1079.968V1080H0Z" fill="#4c9f38"/>
<g clip-path="url(#clip_1)">
<path transform="matrix(1,0,0,-1,154.1143,311.1978)" d="M0 0C36.946 0 52.997 19.6 52.997 49.782V81.895C52.997 101.806 44.326 114.662 26.02 118.83 41.114 123.641 51.07 135.854 51.07 154.157V173.108C51.07 203.938 36.297 222.887 2.576 222.887-35.333 222.887-48.501 200.416-48.501 168.294V149.028H-15.101V171.185C-15.101 184.673-10.913 192.375 .649 192.375 12.217 192.375 16.372 184.673 16.372 172.791V149.343C16.372 137.778 8.671 131.686-3.205 131.686H-17.027V103.729H-1.599C11.24 103.729 16.372 97.637 16.372 86.072V50.1C16.372 38.548 11.24 30.503 0 30.503-12.525 30.503-17.027 38.863-17.027 51.706V82.857H-50.408V54.281C-50.408 21.192-37.254 0 0 0" fill="#ffffff"/>
<path transform="matrix(1,0,0,-1,902.73,674.9658)" d="M0 0C0 30.388-19.499 55.025-49.032 55.025-63.798 55.025-81.613 38.853-91.287 28.907-100.96 38.866-117.595 55.051-132.368 55.051-161.901 55.051-182.599 30.411-182.599 .013-182.599-15.183-176.615-28.937-166.928-38.902L-91.221-114.747-15.619-38.988-15.678-38.932C-5.991-28.969 0-15.203 0 0" fill="#ffffff"/>
<path transform="matrix(1,0,0,-1,580.4097,913.5337)" d="M0 0C-.256 0-.511 .006-.774 .022-6.528 .373-11.28 4.644-12.256 10.329L-50.71 234.294-108.963 126.292C-111.513 121.56-116.841 119.013-122.078 119.954-127.367 120.895-131.444 125.118-132.211 130.427L-156.939 303.273-202.183 201.648C-204.182 197.165-208.632 194.274-213.541 194.274H-389.389C-396.257 194.274-401.822 199.842-401.822 206.705-401.822 213.57-396.257 219.137-389.389 219.137H-221.616L-162.104 352.81C-159.849 357.869-154.521 360.822-149.028 360.065-143.542 359.298-139.224 354.999-138.437 349.513L-112.942 171.289-55.494 277.801C-52.978 282.48-47.78 285.037-42.537 284.168-37.306 283.313-33.197 279.23-32.299 274.002L3.31 66.577 133.102 497.709C134.583 502.618 138.922 506.118 144.027 506.518 149.153 506.897 153.983 504.145 156.205 499.528L224.5 357.948C227.481 351.765 224.886 344.335 218.706 341.353 212.525 338.368 205.086 340.963 202.103 347.147L147.698 459.937 11.896 8.848C10.31 3.568 5.453 0 0 0" fill="#ffffff"/>
</g>
<text fill="#ffffff" xml:space="preserve" transform="matrix(1 0 -0 1 0 1080)" font-size="93" font-family="Oswald-SemiBold" font-weight="bold"><tspan y="-910.8696" x="302.5039 356.7229 411.3139 465.62593 489.89894 546.6289 588.4789 629.2129 677.20089 719.05087 743.32388 797.91488 852.13388">GOD HELSE OG </tspan><tspan y="-782.71566" x="302.5039 343.7959 371.6959 420.8929 468.88093 521.2399 567.92599 618.983 660.27499 688.175 729.932 771.782">LIVSKVALITET</tspan></text>
</g>
</svg>
