<svg xmlns="http://www.w3.org/2000/svg" xmlns:xlink="http://www.w3.org/1999/xlink" xmlns:inkscape="http://www.inkscape.org/namespaces/inkscape" version="1.1" width="1080" height="1080" viewBox="0 0 1080 1080">
<defs>
<clipPath id="clip_1">
<path transform="matrix(1,0,0,-1,0,1080)" d="M0 1080H1080V0H0Z"/>
</clipPath>
</defs>
<g inkscape:groupmode="layer" inkscape:label="Layer 1">
</g>
<g inkscape:groupmode="layer" inkscape:label="Layer 3">
</g>
<g inkscape:groupmode="layer" inkscape:label="Utrydde fattigdom">
</g>
<g inkscape:groupmode="layer" inkscape:label="Layer 4">
</g>
<g inkscape:groupmode="layer" inkscape:label="Layer 6">
</g>
<g inkscape:groupmode="layer" inkscape:label="Overskrift">
<path transform="matrix(1,0,0,-1,0,1080)" d="M0 0H1080V1080H0Z" fill="#dda63a"/>
</g>
<g inkscape:groupmode="layer" inkscape:label="Layer 7">
<path transform="matrix(1,0,0,-1,0,1080)" d="M2.111 0H1080V1077.927H2.111Z" fill="#dda63a"/>
<g clip-path="url(#clip_1)">
<path transform="matrix(1,0,0,-1,203.6982,279.92683)" d="M0 0H-59.943V10.256C-59.943 27.237-53.847 33.654-44.558 43.59L-21.167 68.27C-2.256 88.463 1.917 101.284 1.917 123.092V144.247C1.917 175.33-13.154 190.088-45.847 190.088-77.893 190.088-94.246 173.094-94.246 142.638V116.368H-60.905V143.612C-60.905 156.741-54.495 160.6-46.795 160.6-39.758 160.6-33.661 157.708-33.661 144.247V126.297C-33.661 108.335-35.27 101.284-47.123 88.79L-67.649 66.995C-87.508 45.828-94.887 31.725-94.887 10.256V-29.815H0Z" fill="#ffffff"/>
<path transform="matrix(1,0,0,-1,432.0527,918.0005)" d="M0 0V-15.156C-.014-15.26-.052-15.385-.052-15.496-.052-15.627-.014-15.745 0-15.856 .157-19.604 3.218-22.593 6.992-22.666 7.038-22.666 7.077-22.691 7.129-22.691 7.182-22.691 7.247-22.666 7.306-22.666H185.109C185.156-22.666 185.208-22.691 185.26-22.691 185.312-22.691 185.365-22.666 185.417-22.666 189.303-22.593 192.403-19.434 192.429-15.548 192.429-15.535 192.456-15.522 192.456-15.496 192.456-15.496 192.429-15.47 192.429-15.444V1.708C292.523 34.518 367.505 115.643 383.996 214.506 384.035 214.716 384.061 214.912 384.094 215.095 384.153 215.442 384.192 215.755 384.192 216.089 384.192 220.066 380.987 223.278 377.003 223.278H-186.294-189.683C-193.679 223.278-196.891 220.066-196.891 216.089L-196.519 212.858C-179.197 113.052-102.155 31.476 0 0" fill="#ffffff"/>
<path transform="matrix(1,0,0,-1,624.3188,452.8604)" d="M0 0C-2.335-3.323-57.085-82.145 1.223-145.882 27.963-175.135 25.641-200.947 18.008-218.378H55.411C62.985-192.639 59.858-160.358 29.494-127.181-13.468-80.215 30.043-16.733 30.698-15.752 35.826-8.51 33.079 .824 24.628 5.18 16.143 9.511 5.147 7.195 0 0" fill="#ffffff"/>
<path transform="matrix(1,0,0,-1,529.5952,671.2388)" d="M0 0H37.416C44.977 25.746 41.838 58.014 11.474 91.197-31.502 138.17 11.977 201.619 12.664 202.66 17.766 209.868 15.064 219.189 6.581 223.559-1.871 227.876-12.886 225.58-18.015 218.378-20.362 215.068-75.159 136.233-16.798 72.496 9.943 43.237 7.614 17.418 0 0" fill="#ffffff"/>
<path transform="matrix(1,0,0,-1,398.8232,452.8604)" d="M0 0C-2.368-3.323-57.118-82.145 1.203-145.882 27.957-175.148 25.642-200.96 18.028-218.378H55.43C62.992-192.652 59.865-160.372 29.474-127.181-13.501-80.215 30.011-16.733 30.698-15.726 35.781-8.51 33.073 .824 24.589 5.18 16.137 9.537 5.128 7.208 0 0" fill="#ffffff"/>
</g>
<text fill="#ffffff" xml:space="preserve" transform="matrix(1 0 -0 1 0 1080)" font-size="93" font-family="Oswald-SemiBold" font-weight="bold"><tspan y="-908.98" x="305.751 360.528 402.28504 456.13206 502.81806 557.13009 611.4421">UTRYDDE</tspan><tspan y="-780.826" x="305.751 353.739 408.51603 445.251">SULT</tspan></text>
</g>
</svg>
