<svg xmlns="http://www.w3.org/2000/svg" xmlns:xlink="http://www.w3.org/1999/xlink" xmlns:inkscape="http://www.inkscape.org/namespaces/inkscape" version="1.1" width="1080" height="1080" viewBox="0 0 1080 1080">
<defs>
<clipPath id="clip_1">
<path transform="matrix(1,0,0,-1,0,1080)" d="M0 1080H1080V0H0Z"/>
</clipPath>
<clipPath id="clip_2">
<path transform="matrix(1,0,0,-1,0,1080)" d="M0 1080H1080V0H0Z"/>
</clipPath>
</defs>
<g inkscape:groupmode="layer" inkscape:label="Layer 1">
</g>
<g inkscape:groupmode="layer" inkscape:label="Layer 3">
</g>
<g inkscape:groupmode="layer" inkscape:label="Utrydde fattigdom">
</g>
<g inkscape:groupmode="layer" inkscape:label="Layer 4">
</g>
<g inkscape:groupmode="layer" inkscape:label="Layer 6">
</g>
<g inkscape:groupmode="layer" inkscape:label="Overskrift">
<path transform="matrix(1,0,0,-1,0,1080)" d="M0 0H1080V1080H0Z" fill="#fd6925"/>
</g>
<g inkscape:groupmode="layer" inkscape:label="Layer 7">
<path transform="matrix(1,0,0,-1,0,1080)" d="M1.078 0H1080V1078H1.078Z" fill="#fd6925"/>
<g clip-path="url(#clip_1)">
<path transform="matrix(1,0,0,-1,173.2969,180.51422)" d="M0 0C-.642-12.178-5.769-19.875-17.312-19.875-29.805-19.875-34.63-12.178-34.63 1.938V39.776C-34.63 53.565-29.51 61.576-16.991 61.576-4.807 61.576 0 53.244 0 39.776ZM36.253 33.353C36.253 67.036 21.488 91.399-16.991 91.399-55.805 91.399-70.863 70.245-70.863 36.568V4.495C-70.863-31.107-56.767-49.061-30.453-49.061-15.06-49.061-5.769-41.996-.314-31.431H0V-78.239C0-91.387-5.134-100.693-18.274-100.693-31.429-100.693-36.234-92.994-36.234-79.522V-65.099H-69.594V-76.648C-69.594-108.711-58.037-131.159-17.626-131.159 20.841-131.159 36.253-106.465 36.253-72.468Z" fill="#ffffff"/>
</g>
<text fill="#ffffff" xml:space="preserve" transform="matrix(1 0 -0 1 0 1080)" font-size="93" font-family="Oswald-SemiBold" font-weight="bold"><tspan y="-908.5186" x="276.2412 304.1412 356.68623 410.99824 465.77525 513.76327 555.52029 610.76229 638.6623">INDUSTRI,</tspan><tspan y="-798.49966" x="276.2412 304.1412 356.68623 409.2312 463.2549 509.9409 560.4399 608.42788 640.97787 695.56887 748.11386 772.38687 826.97787">INNOVASJON OG</tspan><tspan y="-688.48068" x="276.2412 304.1412 356.68623 397.23423 452.47624 502.97523 550.9632 592.7202 647.5902 702.3672 754.7262 796.4832 851.2602">INFRASTRUKTUR</tspan></text>
<g clip-path="url(#clip_2)">
<path transform="matrix(1,0,0,-1,804.0781,890.1592)" d="M0 0-115.138-66.447V66.468L0 132.943ZM-380.351-66.447V56.367L-273.986-5.051ZM-397.845-66.447-512.963 0V132.943L-397.845 66.468ZM-273.986 301.218-380.351 239.796V362.623ZM-132.633 239.799-238.983 301.218-132.633 362.623ZM-238.983 148.095-123.885 214.538-8.754 148.099-123.885 81.625ZM-265.232 163.249-371.597 224.645-265.232 286.063ZM-141.387 224.642-247.737 163.252V286.063ZM-265.232 10.103-371.603 71.522-265.232 132.943ZM13.121 155.677-115.138 229.696V377.777C-115.138 380.904-116.801 383.792-119.512 385.356L-252.111 461.916C-254.821 463.474-258.147 463.474-260.858 461.916L-393.472 385.356C-396.182 383.792-397.845 380.904-397.845 377.777V229.696L-526.084 155.677C-528.795 154.111-530.458 151.225-530.458 148.099V-5.051C-530.458-8.177-528.795-11.064-526.084-12.63L-393.472-89.177C-392.116-89.956-390.61-90.349-389.098-90.349-387.585-90.349-386.079-89.956-384.724-89.177L-256.484-15.154-128.259-89.177C-126.903-89.956-125.397-90.349-123.885-90.349-122.372-90.349-120.866-89.959-119.512-89.177L13.121-12.63C15.832-11.068 17.495-8.177 17.495-5.051V148.099C17.495 151.225 15.832 154.115 13.121 155.677" fill="#ffffff"/>
</g>
</g>
</svg>
