<svg xmlns="http://www.w3.org/2000/svg" xmlns:xlink="http://www.w3.org/1999/xlink" xmlns:inkscape="http://www.inkscape.org/namespaces/inkscape" version="1.1" width="1080" height="1080" viewBox="0 0 1080 1080">
<defs>
<clipPath id="clip_1">
<path transform="matrix(1,0,0,-1,0,1080)" d="M0 1080H1080V0H0Z"/>
</clipPath>
</defs>
<g inkscape:groupmode="layer" inkscape:label="Layer 1">
</g>
<g inkscape:groupmode="layer" inkscape:label="Layer 3">
</g>
<g inkscape:groupmode="layer" inkscape:label="Utrydde fattigdom">
</g>
<g inkscape:groupmode="layer" inkscape:label="Layer 4">
</g>
<g inkscape:groupmode="layer" inkscape:label="Layer 6">
</g>
<g inkscape:groupmode="layer" inkscape:label="Overskrift">
<path transform="matrix(1,0,0,-1,0,1080)" d="M0 0H1080V1080H0Z" fill="#00689d"/>
</g>
<g inkscape:groupmode="layer" inkscape:label="Layer 7">
<path transform="matrix(1,0,0,-1,0,1080)" d="M0 0H1080V1080H0Z" fill="#00689d"/>
<path transform="matrix(1,0,0,-1,83.3438,130.49799)" d="M0 0V-38.332H.328L26.098-11.597H26.427V-178.789H63.148V39.634H33.842Z" fill="#ffffff"/>
<g clip-path="url(#clip_1)">
<path transform="matrix(1,0,0,-1,238.6318,260.0039)" d="M0 0C0-13.851-5.154-21.904-17.71-21.904-29.951-21.904-34.776-13.535-34.776 0V39.943C-34.145 52.184-28.991 59.921-17.382 59.921-4.839 59.921 0 52.184 0 38.011ZM36.405 3.215V35.434C36.405 71.188 22.233 89.241-4.182 89.241-19.656 89.241-28.991 82.154-34.46 71.518H-34.776V118.554C-34.776 131.768-30.608 141.109-17.382 141.109-4.182 141.109-.316 133.378-.316 119.855V105.334H33.185V116.943C33.185 149.162 22.562 171.703-18.039 171.703-56.693 171.703-71.195 146.9-71.195 112.749V6.443C-71.195-27.38-56.364-51.867-17.71-51.867 21.26-51.867 36.405-30.607 36.405 3.215" fill="#ffffff"/>
<path transform="matrix(1,0,0,-1,758.1846,403.02729)" d="M0 0C0 0-12.483-16.583-8.854-32.735-5.2-48.897 13.221-58.508 13.221-58.508 13.221-58.508 25.71-41.926 22.068-25.773 18.427-9.605 0 0 0 0" fill="#ffffff"/>
<path transform="matrix(1,0,0,-1,737.8379,497.7207)" d="M0 0C0 0 12.491 16.592 8.85 32.75 5.194 48.916-13.219 58.504-13.219 58.504-13.219 58.504-25.717 41.938-22.088 25.772-18.426 9.62 0 0 0 0" fill="#ffffff"/>
<path transform="matrix(1,0,0,-1,789.1543,479.9619)" d="M0 0C0 0 13.188-13.299 28.201-11.961 43.217-10.63 54.346 4.822 54.346 4.822 54.346 4.822 41.179 18.121 26.15 16.79 11.136 15.452 0 0 0 0" fill="#ffffff"/>
<path transform="matrix(1,0,0,-1,810.7559,408.93159)" d="M0 0C-12.214-12.398-10.491-34.332-10.491-34.332-10.491-34.332 11.044-36.198 23.284-23.816 35.499-11.432 33.776 10.506 33.776 10.506 33.776 10.506 12.228 12.372 0 0" fill="#ffffff"/>
<path transform="matrix(1,0,0,-1,783.8027,529.2559)" d="M0 0C14.962-1.772 29.03 11.076 29.03 11.076 29.03 11.076 18.841 26.788 3.893 28.557-11.083 30.315-25.151 17.466-25.151 17.466-25.151 17.466-14.962 1.765 0 0" fill="#ffffff"/>
<path transform="matrix(1,0,0,-1,797.168,789.1875)" d="M0 0H-111.835C-120.585 0-127.678-7.06-127.678-15.81-127.678-24.547-120.585-31.64-111.835-31.64H0C8.736-31.64 15.816-24.547 15.816-15.81 15.816-7.06 8.736 0 0 0" fill="#ffffff"/>
<path transform="matrix(1,0,0,-1,797.168,963.5791)" d="M0 0H-111.835C-120.585 0-127.678-7.066-127.678-15.816-127.678-24.547-120.585-31.64-111.835-31.64H0C8.736-31.64 15.816-24.547 15.816-15.816 15.816-7.066 8.736 0 0 0" fill="#ffffff"/>
<path transform="matrix(1,0,0,-1,294.207,750.7793)" d="M0 0C-2.629 .815-5.233 1.528-7.764 2.002-7.764 2.002-4.897 1.11 0 0" fill="#ffffff"/>
<path transform="matrix(1,0,0,-1,475.4619,819.2295)" d="M0 0C7.369-.125 14.765 .095 22.174 .598V-57.831L0-57.324ZM317.584-12.646H213.954C208.983-12.646 204.947-16.688 204.947-21.648V-53.031L137.296-60.467 38.464-58.206V2.162C51.592 3.842 64.739 6.459 77.788 10.14 172.926 36.984 193.673 115.641 191.603 170.062 189.531 225.487 207.268 247.01 232.755 256.582 240.052 259.323 247.27 261.055 253.876 262.179 254.159 248.564 256.92 232.741 263.008 213.881 265.269 214.005 267.518 214.196 269.752 214.439 263.323 233.73 260.582 249.597 260.431 263.129 273.598 264.684 282.992 263.806 282.992 263.806 282.992 263.806 274.092 268.586 261.522 279.097 265.795 305.343 281.428 321.459 297.54 337.937 306.396 347.011 315.546 356.376 322.751 367.539L317.137 371.16C310.32 360.554 301.366 351.439 292.747 342.61 277.036 326.537 261.18 310.112 255.809 284.057 250.701 288.665 245.179 294.114 239.525 300.459 216.063 326.761 185.863 307.439 142.798 267.34 99.706 227.262 45.53 225.888-7.389 280.03-77.203 351.505-138.104 351.098-179.868 347.041-151.298 334.873-141.306 308.177-126.843 240.32-111.689 169.123-73.47 136.91-21.187 132.464-50.271 122.188-51.71 105.776-90.667 78.867-121.098 57.873-163.899 64.509-181.255 68.45-149.397 58.521-111.663 25.102-77.9 13.473-58.244 6.708-37.518 2.524-16.29 .841V-56.949L-193.351-52.906V-93.225L137.296-85.658 204.947-93.105V-124.463C204.947-129.427 208.983-133.483 213.954-133.483H317.584C322.561-133.483 326.603-129.427 326.603-124.463V-21.648C326.603-16.688 322.561-12.646 317.584-12.646" fill="#ffffff"/>
<path transform="matrix(1,0,0,-1,272.4346,905.7881)" d="M0 0C0-8.5-5.93-15.396-13.24-15.396H-21.207C-28.505-15.396-34.454-8.5-34.454 0V27.867C-34.454 36.38-28.505 43.263-21.207 43.263H-13.24C-5.93 43.263 0 36.38 0 27.867Z" fill="#ffffff"/>
</g>
<text fill="#ffffff" xml:space="preserve" transform="matrix(1 0 -0 1 0 1080)" font-size="84" font-family="Oswald-SemiBold" font-weight="bold"><tspan y="-921.8896" x="302.3838 339.00779 388.90379 426.7038 475.7598 495.7518 517.6758 567.5718 605.37179 643.08779 680.8038 717.4278 755.2278 805.1238 854.1798 879.3798 928.3518 979.5918 1017.3918 1055.1078">FRED, RETTFERDIGHET </tspan><tspan y="-818.9056" x="302.3838 351.6918 400.66383 422.58784 467.27583 505.0758 542.3718 578.99588 628.47189 675.9319 724.9039 762.70388 812.59988 850.39987 897.85989 946.9159 984.7159">OG VELFUNGERENDE </tspan><tspan y="-715.9216" x="302.3838 327.5838 375.0438 418.3878 456.1038 481.3038 519.0198 568.4958 611.8398 641.2398 690.5478 738.0078 775.8078">INSTITUSJONER</tspan></text>
</g>
</svg>
