<svg xmlns="http://www.w3.org/2000/svg" xmlns:xlink="http://www.w3.org/1999/xlink" xmlns:inkscape="http://www.inkscape.org/namespaces/inkscape" version="1.1" width="1080" height="1080" viewBox="0 0 1080 1080">
<defs>
<clipPath id="clip_1">
<path transform="matrix(1,0,0,-1,0,1080)" d="M0 1080H1080V0H0Z"/>
</clipPath>
</defs>
<g inkscape:groupmode="layer" inkscape:label="Layer 1">
</g>
<g inkscape:groupmode="layer" inkscape:label="Layer 3">
</g>
<g inkscape:groupmode="layer" inkscape:label="Utrydde fattigdom">
</g>
<g inkscape:groupmode="layer" inkscape:label="Layer 4">
</g>
<g inkscape:groupmode="layer" inkscape:label="Layer 6">
</g>
<g inkscape:groupmode="layer" inkscape:label="Overskrift">
<path transform="matrix(1,0,0,-1,0,1080)" d="M0 0H1080V1080H0Z" fill="#0a97d9"/>
</g>
<g inkscape:groupmode="layer" inkscape:label="Layer 7">
<path transform="matrix(1,0,0,-1,0,1080)" d="M0 0H1080V1080H0Z" fill="#0a97d9"/>
<path transform="matrix(1,0,0,-1,141.2227,91.20801)" d="M0 0V-218.461H-36.738V-51.235H-37.06L-62.826-77.975H-63.162V-39.632L-29.331 0Z" fill="#ffffff"/>
<path transform="matrix(1,0,0,-1,185.7095,245.57032)" d="M0 0 32.883 89.941H33.206V0ZM67.378-64.147V-28.692H82.206V0H67.378V154.412H31.272L-32.232-6.123V-28.692H32.562V-64.147Z" fill="#ffffff"/>
<g clip-path="url(#clip_1)">
<path transform="matrix(1,0,0,-1,675.6387,807.71487)" d="M0 0C-19.919 0-36.061 16.166-36.061 36.073-36.061 55.982-19.919 72.104 0 72.104 19.963 72.104 36.1 55.982 36.1 36.073 36.1 16.166 19.963 0 0 0M156.608 16.807C142.966 35.238 54.847 147.584-68.694 147.584-175.975 147.584-290.741 50.278-290.741 50.278-290.741 50.278-333.853 138.516-422.038 146.995-422.557 146.995-423.11 147.11-423.695 147.11H-424.241C-426.083 147.009-427.806 145.22-427.609 143.621-427.359 142.075-426.228 140.394-426.228 140.394-414.861 121.521-385.852 67.832-385.852 14.195-385.852-39.616-415.032-93.45-426.293-112.229L-427.057-113.428C-427.385-113.993-427.609-114.559-427.609-115.289-427.609-117.15-426.162-118.598-424.353-118.763L-423.399-118.684C-423.103-118.684-422.787-118.684-422.471-118.598-334.011-110.355-290.741-21.849-290.741-21.849-290.741-21.849-175.975-119.163-68.694-119.163 54.847-119.163 142.966-6.812 156.608 11.577 156.983 12.08 157.286 12.515 157.556 12.844 157.713 13.274 157.845 13.679 157.845 14.195 157.845 14.679 157.713 15.165 157.556 15.541 157.286 15.916 156.983 16.346 156.608 16.807" fill="#ffffff"/>
<path transform="matrix(1,0,0,-1,250.8184,448.96089)" d="M0 0C-.269 .059-.454 .151-.677 .151-2.631 .151-4.223-1.443-4.223-3.431V-28.019C-4.223-29.049-3.834-29.953-3.19-30.565 56.446-82.383 112.912-33.83 125.981-21 126.252-20.612 126.528-20.237 126.916-20 127.501-19.625 128.14-19.359 128.87-19.359 129.791-19.359 130.659-19.714 131.271-20.31 131.316-20.376 131.389-20.432 131.442-20.461 198.807-84.751 269.441-32.68 284.136-20.461L285.584-19.139C285.998-18.945 286.445-18.872 286.926-18.872 287.425-18.872 287.925-18.945 288.327-19.139L289.78-20.461C304.469-32.68 375.104-84.751 442.462-20.461 442.476-20.432 442.561-20.376 442.594-20.31 443.225-19.714 444.054-19.359 444.988-19.359 445.718-19.359 446.396-19.625 446.942-20 447.35-20.237 447.632-20.612 447.935-21 460.992-33.83 517.398-82.383 577.087-30.565 577.706-29.953 578.114-29.049 578.114-28.019V-3.431C578.114-1.443 576.568 .151 574.614 .151 574.357 .151 574.121 .059 573.851 0 573.298-.315 572.726-.612 572.062-.928 553.722-10.117 496.836-31.97 445.199 16.886 444.712 17.339 444.205 17.793 443.699 18.32 443.225 18.514 442.771 18.642 442.192 18.642 441.831 18.642 441.443 18.54 441.127 18.478 440.357 18.168 439.746 17.678 439.331 17.083 423.938 5.352 353.304-42.468 290.398 16.212L289.478 17.109C288.82 17.691 287.925 18.168 286.926 18.168 285.998 18.168 285.077 17.691 284.466 17.109L283.486 16.212C220.613-42.468 149.899 5.352 134.534 17.083 134.132 17.678 133.54 18.168 132.784 18.478 132.422 18.54 132.06 18.642 131.659 18.642 131.159 18.642 130.659 18.514 130.179 18.32 129.718 17.793 129.172 17.339 128.666 16.886 77.035-31.97 20.168-10.117 1.816-.928 1.171-.612 .559-.315 0 0" fill="#ffffff"/>
<path transform="matrix(1,0,0,-1,376.7998,559.4287)" d="M0 0C.283 .401 .546 .697 .941 .977 1.52 1.339 2.165 1.642 2.889 1.642 3.81 1.642 4.685 1.267 5.303 .654 5.335 .596 5.408 .546 5.46 .503 72.806-63.697 143.46-11.659 158.162 .503L159.603 1.878C160.017 2.042 160.464 2.102 160.937 2.102 161.451 2.102 161.937 2.042 162.359 1.878L163.799 .503C178.488-11.659 249.115-63.697 316.487 .503 316.5 .546 316.56 .596 316.613 .654 317.244 1.267 318.066 1.642 319 1.642 319.744 1.642 320.415 1.339 320.954 .977 321.375 .697 321.651 .401 321.954 0 335.004-12.844 391.41-61.412 451.105-9.545 451.73-8.909 452.152-8.078 452.152-7.055V17.6C452.152 19.562 450.573 21.128 448.633 21.128 448.376 21.128 448.139 21.03 447.87 20.98 447.316 20.714 446.738 20.405 446.081 20.086 427.754 10.89 370.841-10.909 319.217 37.88 318.737 38.34 318.23 38.801 317.724 39.297 317.244 39.563 316.79 39.649 316.211 39.649 315.85 39.649 315.468 39.563 315.146 39.383 314.369 39.188 313.764 38.698 313.35 38.061 297.97 26.346 227.323-21.49 164.411 37.195L163.49 38.116C162.838 38.745 161.937 39.103 160.937 39.103 160.017 39.103 159.096 38.745 158.478 38.116L157.504 37.195C94.632-21.49 23.918 26.346 8.552 38.061 8.15 38.698 7.552 39.188 6.809 39.383 6.447 39.563 6.065 39.649 5.677 39.649 5.171 39.649 4.685 39.563 4.21 39.297 3.724 38.801 3.204 38.34 2.678 37.88-48.953-10.909-105.813 10.89-124.165 20.086-124.811 20.405-125.416 20.714-125.975 20.98-126.25 21.03-126.429 21.128-126.652 21.128-128.612 21.128-130.204 19.562-130.204 17.6V-7.055C-130.204-8.078-129.816-8.909-129.178-9.545-69.536-61.412-13.063-12.844 0 0" fill="#ffffff"/>
</g>
<text fill="#ffffff" xml:space="preserve" transform="matrix(1 0 -0 1 0 1080)" font-size="93" font-family="Oswald-SemiBold" font-weight="bold"><tspan y="-914.5449" x="364.6484 405.9404 433.8404 483.3164 525.1664 566.9234 591.1964">LIVET I</tspan><tspan y="-786.3909" x="364.6484 421.37843 469.64543 519.1214 560.9714">HAVET</tspan></text>
</g>
</svg>
