<svg xmlns="http://www.w3.org/2000/svg" xmlns:xlink="http://www.w3.org/1999/xlink" xmlns:inkscape="http://www.inkscape.org/namespaces/inkscape" version="1.1" width="1080" height="1080" viewBox="0 0 1080 1080">
<defs>
<clipPath id="clip_1">
<path transform="matrix(1,0,0,-1,0,1080)" d="M0 1080H1080V0H0Z"/>
</clipPath>
</defs>
<g inkscape:groupmode="layer" inkscape:label="Layer 1">
</g>
<g inkscape:groupmode="layer" inkscape:label="Layer 3">
</g>
<g inkscape:groupmode="layer" inkscape:label="Utrydde fattigdom">
</g>
<g inkscape:groupmode="layer" inkscape:label="Layer 4">
</g>
<g inkscape:groupmode="layer" inkscape:label="Layer 6">
</g>
<g inkscape:groupmode="layer" inkscape:label="Overskrift">
<path transform="matrix(1,0,0,-1,0,1080)" d="M0 0H1080V1080H0Z" fill="#56c02b"/>
</g>
<g inkscape:groupmode="layer" inkscape:label="Layer 7">
<path transform="matrix(1,0,0,-1,0,1080)" d="M1.368 0H1080V1076.54H1.368Z" fill="#56c02b"/>
<path transform="matrix(1,0,0,-1,80.4854,133.4375)" d="M0 0V-38.234H.315L26.018-11.566H26.346V-178.331H62.974V39.533H33.729Z" fill="#ffffff"/>
<g clip-path="url(#clip_1)">
<path transform="matrix(1,0,0,-1,230.5366,163.00293)" d="M0 0C-14.452 0-25.048-5.128-30.845-15.095H-31.172V39.211H31.814V69.085H-64.574V-53.669H-31.172V-48.83C-31.172-35.991-25.389-28.917-15.107-28.917-3.856-28.917 .655-36.634 .655-48.521V-101.222C.655-112.774-3.528-120.813-14.78-120.813-27.304-120.813-31.789-112.46-31.789-99.607V-72.298H-65.229V-97.051C-65.229-130.138-52.05-151.343-14.78-151.343 22.176-151.343 37.27-131.737 37.27-101.535V-48.194C37.27-13.81 19.605 0 0 0" fill="#ffffff"/>
<path transform="matrix(1,0,0,-1,448.8071,734.03518)" d="M0 0C1.318 0 2.38-1.072 2.38-2.39V-81.068C2.38-82.405 1.318-83.461 0-83.461H-31.841C-33.166-83.461-34.235-82.405-34.235-81.068V-2.39C-34.235-1.072-33.166 0-31.841 0Z" fill="#ffffff"/>
<path transform="matrix(1,0,0,-1,798.4609,851.2783)" d="M0 0H-524.694C-526.006 0-527.094-1.128-527.094-2.466V-34.535C-527.094-35.841-526.006-36.896-524.694-36.896H0C1.291-36.896 2.406-35.841 2.406-34.535V-2.466C2.406-1.128 1.291 0 0 0" fill="#ffffff"/>
<path transform="matrix(1,0,0,-1,798.4609,915.0186)" d="M0 0H-524.694C-526.006 0-527.094-1.057-527.094-2.361V-34.529C-527.094-35.814-526.006-36.897-524.694-36.897H0C1.291-36.897 2.406-35.814 2.406-34.529V-2.361C2.406-1.057 1.291 0 0 0" fill="#ffffff"/>
<path transform="matrix(1,0,0,-1,698.6162,646.9414)" d="M0 0C-6.557 5.128-24.051 17.101-45.387 17.101-60.639 17.101-74.829 11.091-87.523-.804-88.421-1.655-88.926-2.836-88.926-4.095V-6.954C-88.926-8.36-88.461-9.675-87.431-10.54-86.29-11.402-85.097-11.727-83.733-11.402-83.431-11.36-83.058-11.265-82.75-11.15-81.779-10.813-80.868-10.229-80.126-9.488-77.373-7.639-69.858-5.114-59.111-5.114-47.997-5.114-26.156-8.091-5.048-27.772L-4.563-28.205C-3.376-29.428-1.737-30.104 0-30.104 1.652-30.104 3.364-29.415 4.439-28.248L4.866-27.809C26.091-8.091 47.893-5.114 59.007-5.114 69.833-5.114 77.314-7.639 80.075-9.488 80.829-10.229 81.753-10.826 82.973-11.265 83.438-11.402 84.776-11.675 86.048-11.36 87.989-10.813 89.353-9.065 89.353-7.035V-4.505C89.353-3.305 88.835-2.095 87.943-1.259 75.131 10.954 60.791 17.127 45.296 17.127 24.156 17.127 6.741 5.341 0 0" fill="#ffffff"/>
<path transform="matrix(1,0,0,-1,666.0542,437.8213)" d="M0 0C-1.115-.518-1.921-1.537-2.289-2.764L-2.819-4.515C-3.213-5.892-2.964-7.344-2.13-8.455-1.318-9.521-.164-10.163 1.115-10.223 1.357-10.252 1.593-10.311 1.771-10.252 2.682-10.223 3.501-10.025 4.308-9.603 4.774-9.508 5.744-9.249 7.488-9.249 9.836-9.249 30.989-9.96 44.975-33.732L45.151-34.07C45.912-35.447 47.1-36.396 48.509-36.759 48.916-36.89 49.696-37.018 50.181-37.018 51.151-37.018 52.128-36.759 52.823-36.362L53.171-36.195C60.823-32.368 68.75-30.405 76.58-30.405 89.831-30.405 98.487-35.811 100.506-38.063 100.919-38.828 101.549-39.493 102.264-40.021 102.709-40.276 103.496-40.674 103.968-40.841 104.205-40.899 104.48-40.932 104.742-40.952 104.886-40.981 105.057-40.981 105.214-40.981 105.929-40.981 106.617-40.805 107.292-40.46 108.368-39.92 109.175-38.939 109.522-37.771L109.961-36.225C110.093-35.831 110.145-35.401 110.145-34.949 110.145-34.13 109.936-33.336 109.535-32.697 99.346-15.002 84.56-11.304 73.943-11.304 66.043-11.304 59.132-13.354 55.059-14.849 50.253-8.383 38.103 4.98 19.671 4.98 13.193 4.98 6.59 3.314 0 0" fill="#ffffff"/>
<path transform="matrix(1,0,0,-1,555.188,518.5449)" d="M0 0 .151-2.36C.223-3.836 .997-5.111 2.25-5.895 3.285-6.547 4.609-6.773 5.777-6.429 6.033-6.37 6.321-6.275 6.544-6.189 7.449-5.819 8.216-5.242 8.813-4.515 11.042-2.904 18.229 .029 28.825 .029 39.015 .029 54.516-2.691 70.311-15.665L70.678-16.042C71.807-17.016 73.249-17.566 74.724-17.566H75.11C76.763-17.438 78.291-16.678 79.229-15.586L79.583-15.189C97.07 3.317 115.909 6.068 125.58 6.068 132.472 6.068 137.356 4.646 139.259 3.57 139.98 2.947 140.872 2.456 141.986 2.154 142.301 2.079 143.074 1.941 143.907 2.029 144.248 2.065 144.674 2.184 145.009 2.292 146.884 2.947 148.117 4.776 147.986 6.803L147.868 8.855C147.789 10.078 147.219 11.176 146.287 11.977 135.848 20.756 124.583 25.183 112.729 25.183 94.271 25.183 79.55 14.284 73.452 8.94 67.872 12.74 54.332 20.56 38.444 20.56 24.484 20.56 11.966 14.76 1.22 3.357 .374 2.456-.052 1.229 0 0" fill="#ffffff"/>
<path transform="matrix(1,0,0,-1,289.6675,560.667)" d="M0 0C0 31.421 25.474 56.882 56.882 56.882 58.115 56.882 59.315 56.773 60.528 56.705 63.524 96.467 96.657 127.826 137.193 127.826 179.702 127.826 214.166 93.372 214.166 50.863 214.166 38.82 211.314 27.474 206.383 17.323 244.905 8.789 273.736-25.514 273.736-66.587 273.736-114.086 235.227-152.596 187.728-152.596 184.259-152.596 72.947-151.927 72.947-151.927 39.303-151.92 12.039-124.669 12.039-91.028 12.039-74.868 18.373-60.236 28.641-49.332 11.547-39.52 0-21.13 0 0" fill="#ffffff"/>
</g>
<text fill="#ffffff" xml:space="preserve" transform="matrix(1 0 -0 1 0 1080)" font-size="93" font-family="Oswald-SemiBold" font-weight="bold"><tspan y="-911.377" x="368.5859 409.8779 437.7779 487.2539 529.1039 570.8609 595.1339 643.2149 694.2719">LIVET P&#x00c5; </tspan><tspan y="-783.223" x="368.5859 409.8779 460.9349 513.4799">LAND</tspan></text>
</g>
</svg>
