<svg xmlns="http://www.w3.org/2000/svg" xmlns:xlink="http://www.w3.org/1999/xlink" xmlns:inkscape="http://www.inkscape.org/namespaces/inkscape" version="1.1" width="1080" height="1080" viewBox="0 0 1080 1080">
<defs>
<clipPath id="clip_1">
<path transform="matrix(1,0,0,-1,0,1080)" d="M0 1080H1080V0H0Z"/>
</clipPath>
</defs>
<g inkscape:groupmode="layer" inkscape:label="Layer 1">
</g>
<g inkscape:groupmode="layer" inkscape:label="Layer 3">
</g>
<g inkscape:groupmode="layer" inkscape:label="Utrydde fattigdom">
</g>
<g inkscape:groupmode="layer" inkscape:label="Layer 4">
</g>
<g inkscape:groupmode="layer" inkscape:label="Layer 6">
</g>
<g inkscape:groupmode="layer" inkscape:label="Overskrift">
<path transform="matrix(1,0,0,-1,0,1080)" d="M0 0H1080V1080H0Z" fill="#e5243b"/>
</g>
<g inkscape:groupmode="layer" inkscape:label="Layer 7">
<path transform="matrix(1,0,0,-1,0,1080)" d="M0 0H1079.961V1080H0Z" fill="#e5243b"/>
<path transform="matrix(1,0,0,-1,150.7834,142.0376)" d="M0 0H.32V-166.688H36.924V51.067H7.694L-26.019 11.562V-26.647H-25.697Z" fill="#ffffff"/>
<g clip-path="url(#clip_1)">
<path transform="matrix(1,0,0,-1,831.7102,515.2563)" d="M0 0C0 16.528 13.401 29.908 29.918 29.908 46.407 29.908 59.77 16.528 59.77 0 59.77-16.512 46.407-29.901 29.918-29.901 13.401-29.901 0-16.512 0 0" fill="#ffffff"/>
<path transform="matrix(1,0,0,-1,896.5266,556.686)" d="M0 0C20.284-1.835 36.184-18.898 36.184-39.706V-49.642-53.987-122.585C36.184-128.959 30.993-134.169 24.61-134.169 18.181-134.169 13.01-128.959 13.01-122.585V-51.405C13.01-48.734 12.236-45.12 7.354-45.12 3.979-45.12 3.277-48.698 3.152-50.976V-264.324C3.152-273.493-4.272-280.975-13.487-280.975-22.709-280.975-30.174-273.493-30.174-264.324V-141.378C-30.219-140.022-30.671-136.496-34.898-136.496H-34.918C-39.166-136.496-39.683-140.022-39.729-141.378V-264.324C-39.729-273.493-47.147-280.975-56.362-280.975-65.597-280.975-73.022-273.493-73.022-264.324V-50.976C-73.134-48.698-73.861-45.12-77.21-45.12-82.118-45.12-82.859-48.734-82.859-51.405V-122.585C-82.859-128.959-88.057-134.169-94.46-134.169-100.869-134.169-106.033-128.959-106.033-122.585V-53.987-49.642-39.706C-106.033-18.898-90.121-1.835-69.805 0-69.143 .085-68.415 .183-67.615 .183H-34.898-2.274C-1.416 .183-.715 .085 0 0" fill="#ffffff"/>
<path transform="matrix(1,0,0,-1,653.9182,530.959)" d="M0 0C0 15.638-12.643 28.342-28.286 28.342-43.937 28.342-56.612 15.638-56.612 0-56.612-15.645-43.937-28.315-28.286-28.315-12.643-28.315 0-15.645 0 0" fill="#ffffff"/>
<path transform="matrix(1,0,0,-1,568.5813,595.0918)" d="M0 0-23.535-76.614C-23.535-76.614-27.729-90.658-15.814-94.165-3.959-97.677-.36-83.964-.36-83.964L18.619-20.021C18.619-20.021 19.648-15.103 23.345-16.167 27.047-17.227 25.658-22.489 25.658-22.489L-7.373-142.318H23.345V-228.147C23.345-236.267 29.957-242.877 38.11-242.877 46.25-242.877 52.837-236.267 52.837-228.147V-142.318H57.051 61.219V-228.147C61.219-236.267 67.792-242.877 75.958-242.877 84.131-242.877 90.73-236.267 90.73-228.147V-142.318H121.436L88.431-22.489C88.431-22.489 87.041-17.227 90.73-16.167 94.434-15.103 95.463-20.021 95.463-20.021L114.436-83.964C114.436-83.964 118.047-97.677 129.883-94.165 141.824-90.658 137.61-76.614 137.61-76.614L114.075 0C114.075 0 105.667 22.149 87.041 22.149H57.051 27.047C8.428 22.149 0 0 0 0" fill="#ffffff"/>
<path transform="matrix(1,0,0,-1,484.3518,530.959)" d="M0 0C0 15.638-12.661 28.342-28.299 28.342-43.949 28.342-56.612 15.638-56.612 0-56.612-15.645-43.949-28.315-28.299-28.315-12.661-28.315 0-15.645 0 0" fill="#ffffff"/>
<path transform="matrix(1,0,0,-1,399.0022,595.0918)" d="M0 0-23.522-76.614C-23.522-76.614-27.729-90.658-15.809-94.165-3.959-97.677-.361-83.964-.361-83.964L18.619-20.021C18.619-20.021 19.647-15.103 23.344-16.167 27.054-17.227 25.651-22.489 25.651-22.489L-7.366-142.318H23.344V-228.147C23.344-236.267 29.977-242.877 38.109-242.877 46.263-242.877 52.85-236.267 52.85-228.147V-142.318H57.077 61.231V-228.147C61.231-236.267 67.792-242.877 75.978-242.877 84.15-242.877 90.73-236.267 90.73-228.147V-142.318H121.448L88.449-22.489C88.449-22.489 87.047-17.227 90.73-16.167 94.427-15.103 95.469-20.021 95.469-20.021L114.429-83.964C114.429-83.964 118.04-97.677 129.883-94.165 141.817-90.658 137.603-76.614 137.603-76.614L114.068 0C114.068 0 105.68 22.149 87.047 22.149H57.077 27.054C8.44 22.149 0 0 0 0" fill="#ffffff"/>
<path transform="matrix(1,0,0,-1,749.0012,689.4131)" d="M0 0C13.035 0 23.554 10.547 23.554 23.586 23.554 36.615 13.035 47.131 0 47.131-13.036 47.131-23.568 36.615-23.568 23.586-23.568 10.547-13.036 0 0 0" fill="#ffffff"/>
<path transform="matrix(1,0,0,-1,692.5002,762.62258)" d="M0 0C-1.153-2.756-2.097-8.599 3.435-11.148 9.923-14.127 13.534-7.858 13.534-7.858L26.347 32.995C26.347 32.995 28.568 35.731 28.568 32.903V-63.271H28.627C28.627-69.965 34.015-75.362 40.719-75.362 47.404-75.362 52.805-69.965 52.805-63.271V-25.317C52.805-25.317 52.104-19.954 56.429-19.954 60.754-19.954 60.085-25.317 60.085-25.317V-63.271C60.085-69.965 65.512-75.362 72.196-75.362 78.869-75.362 84.315-69.965 84.315-63.271V32.903C84.315 35.731 85.809 33.712 85.809 33.712L95.85 5.737C95.85 5.737 100.208-6.764 101.551-7.314 106.08-9.218 111.316-7.055 113.23-2.484 114.482 .498 114.004 3.699 112.273 6.114L112.358 6.203C112.07 7.107 97.351 43.203 95.62 48.268 90.306 63.785 80.632 63.65 71.319 63.906 61.999 64.128 56.429 63.906 56.429 63.906 56.429 63.906 50.478 64.149 38.176 63.785 25.901 63.397 22.021 57.106 8.475 22.253 6.541 17.233 0 .993-.085 .02Z" fill="#ffffff"/>
<path transform="matrix(1,0,0,-1,231.5061,515.2563)" d="M0 0C0 16.528-13.415 29.908-29.925 29.908-46.42 29.908-59.783 16.528-59.783 0-59.783-16.512-46.42-29.901-29.925-29.901-13.415-29.901 0-16.512 0 0" fill="#ffffff"/>
<path transform="matrix(1,0,0,-1,166.677,556.686)" d="M0 0C-20.278-1.835-36.197-18.898-36.197-39.706V-49.642-53.987-122.585C-36.197-128.959-31-134.169-24.598-134.169-18.187-134.169-13.003-128.959-13.003-122.585V-51.405C-13.003-48.734-12.23-45.12-7.348-45.12-3.979-45.12-3.277-48.698-3.133-50.976V-264.324C-3.133-273.493 4.278-280.975 13.5-280.975 22.708-280.975 30.153-273.493 30.153-264.324V-141.378C30.226-140.022 30.671-136.496 34.904-136.496H34.918C39.165-136.496 39.683-140.022 39.722-141.378V-264.324C39.722-273.493 47.153-280.975 56.362-280.975 65.59-280.975 73.015-273.493 73.015-264.324V-50.976C73.113-48.698 73.874-45.12 77.216-45.12 82.125-45.12 82.858-48.734 82.858-51.405V-122.585C82.858-128.959 88.056-134.169 94.459-134.169 100.862-134.169 106.039-128.959 106.039-122.585V-53.987-49.642-39.706C106.039-18.898 90.134-1.835 69.817 0 69.142 .085 68.427 .183 67.621 .183H34.904 2.28C1.422 .183 .707 .085 0 0" fill="#ffffff"/>
<path transform="matrix(1,0,0,-1,140.6057,691.3174)" d="M0 0-26.55-140.727" fill="#ffffff"/>
<path transform="matrix(1,0,0,-1,140.6057,691.3174)" stroke-width="3" stroke-linecap="butt" stroke-miterlimit="10" stroke-linejoin="miter" fill="none" stroke="#ffffff" d="M0 0-26.55-140.727"/>
<path transform="matrix(1,0,0,-1,286.9124,677.0664)" d="M0 0C-1.547 2.416-4.208 4.028-7.274 4.028-12.007 4.028-15.86 .174-15.86-4.539-15.86-5.908-15.021-8.307-15.021-8.307L8.736-51.299C8.736-51.299 10.19-54.262 10.19-56.969V-149.289H10.237C10.237-155.731 15.435-160.902 21.856-160.902 28.267-160.902 33.438-155.731 33.438-149.289V-112.856C33.438-112.856 32.782-107.701 36.943-107.701 41.092-107.701 40.443-112.856 40.443-112.856V-149.289C40.443-155.731 45.653-160.902 52.07-160.902 58.479-160.902 63.703-155.731 63.703-149.289V-56.969C63.703-54.262 65.138-51.299 65.138-51.299L87.1-11.61C87.1-11.61 89.787-5.908 89.787-4.539 89.787 .174 85.946 4.028 81.195 4.028 78.088 4.028 75.435 2.416 73.927 0L73.828 .049C73.141-.544 62.143-20.13 58.512-23.757 54.672-27.627 51.237-27.198 51.237-27.198H36.943 22.683C22.683-27.198 19.222-27.627 15.401-23.757 11.725-20.13 .773-.544 .072 .049Z" fill="#ffffff"/>
<path transform="matrix(1,0,0,-1,323.8557,689.4131)" d="M0 0C13.035 0 23.555 10.547 23.555 23.586 23.555 36.615 13.035 47.131 0 47.131-13.029 47.131-23.554 36.615-23.554 23.586-23.554 10.547-13.029 0 0 0" fill="#ffffff"/>
<path transform="matrix(1,0,0,-1,323.8948,722.4907)" d="M0 0 26.636-19.425 39.291-66.029H0-39.322L-26.634-19.425Z" fill="#ffffff"/>
</g>
<text fill="#ffffff" xml:space="preserve" transform="matrix(1 0 -0 1 0 1080)" font-size="93" font-family="Oswald-SemiBold" font-weight="bold"><tspan y="-910.8696" x="287.6943 342.4713 384.22834 438.07536 484.76136 539.07339 593.3854">UTRYDDE</tspan><tspan y="-782.71566" x="287.6943 325.73133 372.97535 414.73237 456.48939 484.38938 538.6084 592.9204 647.5114">FATTIGDOM</tspan></text>
</g>
</svg>
