<svg xmlns="http://www.w3.org/2000/svg" xmlns:xlink="http://www.w3.org/1999/xlink" xmlns:inkscape="http://www.inkscape.org/namespaces/inkscape" version="1.1" width="1080" height="1080" viewBox="0 0 1080 1080">
<defs>
<clipPath id="clip_1">
<path transform="matrix(1,0,0,-1,0,1080)" d="M0 1080H1080V0H0Z"/>
</clipPath>
</defs>
<g inkscape:groupmode="layer" inkscape:label="Layer 1">
</g>
<g inkscape:groupmode="layer" inkscape:label="Layer 3">
</g>
<g inkscape:groupmode="layer" inkscape:label="Utrydde fattigdom">
</g>
<g inkscape:groupmode="layer" inkscape:label="Layer 4">
</g>
<g inkscape:groupmode="layer" inkscape:label="Layer 6">
</g>
<g inkscape:groupmode="layer" inkscape:label="Overskrift">
<path transform="matrix(1,0,0,-1,0,1080)" d="M0 0H1080V1080H0Z" fill="#26bde2"/>
</g>
<g inkscape:groupmode="layer" inkscape:label="Layer 7">
<path transform="matrix(1,0,0,-1,0,1080)" d="M0 0H1080V1080H0Z" fill="#26bde2"/>
<g clip-path="url(#clip_1)">
<path transform="matrix(1,0,0,-1,144.2656,220.48291)" d="M0 0C.645 12.247 5.804 19.985 17.412 19.985 29.981 19.985 34.824 12.247 34.824-1.948V-40.004C34.824-53.862 29.678-61.931 17.096-61.931 4.83-61.931 0-53.546 0-40.004ZM17.096-91.924C56.105-91.924 71.267-70.63 71.267-36.766V-4.515C71.267 31.278 57.08 49.335 30.626 49.335 15.148 49.335 5.804 42.228 .315 31.593H0V78.677C0 91.911 4.198 101.255 17.412 101.255 30.626 101.255 34.508 93.503 34.508 79.968V65.457H68.043V77.065C68.043 109.323 57.395 131.882 16.767 131.882-21.927 131.882-36.443 107.06-36.443 72.88V-33.542C-36.443-67.412-21.611-91.924 17.096-91.924" fill="#ffffff"/>
<path transform="matrix(1,0,0,-1,711.9346,522.5986)" d="M0 0C-10.661 4.695-24.177 3.004-37.154-2.254-85.97-22.038-119.188-29.155-170.53-13.078-202.86-2.958-233.112 18.238-268.871 5.33-292.6-3.204-314.711-11.348-341.54-11.141L-357.038 68.307H11.141ZM-124.795-235.921C-124.795-235.921-142.667-254.287-171.741-252.297-200.88-254.287-218.733-235.921-218.733-235.921-248.208-206.476-237.692-169.842-227.433-150.912-221.096-139.055-175.814-71.051-171.918-65.267V-64.809C-171.918-64.809-171.853-64.897-171.741-65.029L-171.583-64.809V-65.267C-167.792-71.051-122.439-139.055-116.102-150.912-105.83-169.842-95.347-206.476-124.795-235.921M27.25 84.104C26.329 85.104 25.091 85.66 23.69 85.66H-369.712C-371.074 85.66-372.324 85.104-373.246 84.104-374.107 83.005-374.45 81.649-374.233 80.382L-308.137-319.363C-307.775-321.574-305.841-323.216-303.603-323.216H-222.484L-216.937-388.324-251.07-388.363-171.642-467.788-92.023-388.184-126.151-388.219-120.61-323.216H-38.063C-35.786-323.216-33.884-321.574-33.548-319.294L28.29 80.382C28.5 81.754 28.099 83.067 27.25 84.104" fill="#ffffff"/>
<text fill="#ffffff" xml:space="preserve" transform="matrix(1 0 -0 1 0 1080)" font-size="93" font-family="Oswald-SemiBold" font-weight="bold"><tspan y="-910.4878" x="283.8086 339.0506 380.9006 433.44563 475.20265 499.47566 546.15237 597.20938 649.75436 702.2993 726.5723 781.1633 835.3823 859.65536 913.8743 968.46536 1022.77737 1064.6273">RENT VANN OG GODE </tspan></text>
</g>
<text fill="#ffffff" xml:space="preserve" transform="matrix(1 0 -0 1 0 1080)" font-size="93" font-family="Oswald-SemiBold" font-weight="bold"><tspan y="-782.3613" x="283.8086 331.2386 382.2956 434.84059 462.74058 504.49757 569.8766 625.1186 665.66659 720.25759 775.4996 832.22958 886.82058 928.11257">SANIT&#x00c6;RFORHOLD</tspan></text>
</g>
</svg>
