<svg xmlns="http://www.w3.org/2000/svg" xmlns:xlink="http://www.w3.org/1999/xlink" xmlns:inkscape="http://www.inkscape.org/namespaces/inkscape" version="1.1" width="1080" height="1080" viewBox="0 0 1080 1080">
<defs>
<clipPath id="clip_1">
<path transform="matrix(1,0,0,-1,0,1080)" d="M0 1080H1080V0H0Z"/>
</clipPath>
</defs>
<g inkscape:groupmode="layer" inkscape:label="Layer 1">
</g>
<g inkscape:groupmode="layer" inkscape:label="Layer 3">
</g>
<g inkscape:groupmode="layer" inkscape:label="Utrydde fattigdom">
</g>
<g inkscape:groupmode="layer" inkscape:label="Layer 4">
</g>
<g inkscape:groupmode="layer" inkscape:label="Layer 6">
</g>
<g inkscape:groupmode="layer" inkscape:label="Overskrift">
<path transform="matrix(1,0,0,-1,0,1080)" d="M0 0H1080V1080H0Z" fill="#fd9d24"/>
</g>
<g inkscape:groupmode="layer" inkscape:label="Layer 7">
<path transform="matrix(1,0,0,-1,0,1080)" d="M0 0H1080V1080H0Z" fill="#fd9d24"/>
<path transform="matrix(1,0,0,-1,77.5967,130.38672)" d="M0 0V-38.315H.316L26.078-11.58H26.406V-178.734H63.118V39.63H33.807Z" fill="#ffffff"/>
<path transform="matrix(1,0,0,-1,161.3252,130.38672)" d="M0 0V-38.315H.328L26.091-11.58H26.406V-178.734H63.131V39.63H33.833Z" fill="#ffffff"/>
<g clip-path="url(#clip_1)">
<path transform="matrix(1,0,0,-1,186.3052,824.4941)" d="M0 0H1.676 162.903C165.104 0 166.898 1.801 166.898 4.009 166.898 5.035 166.484 5.955 165.847 6.665L165.623 6.901 84.576 111.765 83.788 112.633C83.051 113.435 82.006 113.934 80.836 113.934 79.831 113.934 78.931 113.514 78.215 112.909L77.728 112.344 76.966 111.489-2.103 7.729-3.319 6.244C-3.752 5.613-4.002 4.838-4.002 4.009-4.002 1.801-2.208 0 0 0" fill="#ffffff"/>
<path transform="matrix(1,0,0,-1,348.7144,839.2803)" d="M0 0H-163.224C-165.432 0-167.219-1.788-167.219-3.996V-131.731C-167.219-133.939-165.432-135.74-163.224-135.74H-110.687V-55.377C-110.687-53.155-108.906-51.381-106.691-51.381H-57.926C-55.718-51.381-53.931-53.155-53.931-55.377V-135.74H0C2.202-135.74 3.996-133.939 3.996-131.731V-3.996C3.996-1.788 2.202 0 0 0" fill="#ffffff"/>
<path transform="matrix(1,0,0,-1,898.2129,858.1289)" d="M0 0C0-2.13-1.761-3.852-3.957-3.852H-52.208C-54.404-3.852-56.165-2.13-56.165 0V29.351C-56.165 31.467-54.404 33.188-52.208 33.188H-3.957C-1.761 33.188 0 31.467 0 29.351ZM0-54.207C0-56.35-1.761-58.071-3.957-58.071H-52.208C-54.404-58.071-56.165-56.35-56.165-54.207V-24.883C-56.165-22.74-54.404-21.031-52.208-21.031H-3.957C-1.761-21.031 0-22.74 0-24.883ZM-73.766 0C-73.766-2.13-75.527-3.852-77.708-3.852H-125.974C-128.168-3.852-129.943-2.13-129.943 0V29.351C-129.943 31.467-128.168 33.188-125.974 33.188H-77.708C-75.527 33.188-73.766 31.467-73.766 29.351ZM-73.766-54.207C-73.766-56.35-75.527-58.071-77.708-58.071H-125.974C-128.168-58.071-129.943-56.35-129.943-54.207V-24.883C-129.943-22.74-128.168-21.031-125.974-21.031H-77.708C-75.527-21.031-73.766-22.74-73.766-24.883ZM14.629 52.287H-146.926C-149.108 52.287-150.869 50.592-150.869 48.448V-114.684C-150.869-116.8-149.108-118.521-146.926-118.521H14.629C16.825-118.521 18.586-116.8 18.586-114.684V48.448C18.586 50.592 16.825 52.287 14.629 52.287" fill="#ffffff"/>
<path transform="matrix(1,0,0,-1,514.2456,543.1162)" d="M0 0C0-1.131-.934-2.064-2.09-2.064H-38.276C-39.433-2.064-40.353-1.131-40.353 0V40.353C-40.353 41.509-39.433 42.429-38.276 42.429H-2.09C-.934 42.429 0 41.509 0 40.353ZM0-92.627C0-93.771-.934-94.704-2.09-94.704H-38.276C-39.433-94.704-40.353-93.771-40.353-92.627V-52.274C-40.353-51.132-39.433-50.225-38.276-50.225H-2.09C-.934-50.225 0-51.132 0-52.274ZM0-185.28C0-186.424-.934-187.357-2.09-187.357H-38.276C-39.433-187.357-40.353-186.424-40.353-185.28V-144.928C-40.353-143.785-39.433-142.852-38.276-142.852H-2.09C-.934-142.852 0-143.785 0-144.928ZM0-277.907C0-279.077-.934-279.984-2.09-279.984H-38.276C-39.433-279.984-40.353-279.077-40.353-277.907V-237.581C-40.353-236.411-39.433-235.505-38.276-235.505H-2.09C-.934-235.505 0-236.411 0-237.581ZM0-370.561C0-371.704-.934-372.638-2.09-372.638H-38.276C-39.433-372.638-40.353-371.704-40.353-370.561V-330.222C-40.353-329.078-39.433-328.157-38.276-328.157H-2.09C-.934-328.157 0-329.078 0-330.222ZM-70.991 0C-70.991-1.131-71.925-2.064-73.068-2.064H-109.267C-110.411-2.064-111.344-1.131-111.344 0V40.353C-111.344 41.509-110.411 42.429-109.267 42.429H-73.068C-71.925 42.429-70.991 41.509-70.991 40.353ZM-70.991-92.627C-70.991-93.771-71.925-94.704-73.068-94.704H-109.267C-110.411-94.704-111.344-93.771-111.344-92.627V-52.274C-111.344-51.132-110.411-50.225-109.267-50.225H-73.068C-71.925-50.225-70.991-51.132-70.991-52.274ZM-70.991-185.28C-70.991-186.424-71.925-187.357-73.068-187.357H-109.267C-110.411-187.357-111.344-186.424-111.344-185.28V-144.928C-111.344-143.785-110.411-142.852-109.267-142.852H-73.068C-71.925-142.852-70.991-143.785-70.991-144.928ZM-70.991-277.907C-70.991-279.077-71.925-279.984-73.068-279.984H-109.267C-110.411-279.984-111.344-279.077-111.344-277.907V-237.581C-111.344-236.411-110.411-235.505-109.267-235.505H-73.068C-71.925-235.505-70.991-236.411-70.991-237.581ZM-70.991-370.561C-70.991-371.704-71.925-372.638-73.068-372.638H-109.267C-110.411-372.638-111.344-371.704-111.344-370.561V-330.222C-111.344-329.078-110.411-328.157-109.267-328.157H-73.068C-71.925-328.157-70.991-329.078-70.991-330.222ZM23.055 115.938H-135.043C-137.16 115.938-138.907 114.216-138.907 112.06V-428.25C-138.907-430.38-137.16-432.114-135.043-432.114H23.055C25.171-432.114 26.945-430.38 26.945-428.25V112.06C26.945 114.216 25.171 115.938 23.055 115.938" fill="#ffffff"/>
<path transform="matrix(1,0,0,-1,916.6147,789.4248)" d="M0 0C0-1.814-1.446-3.26-3.247-3.26H-165.854C-167.641-3.26-169.1-1.814-169.1 0V32.519C-169.1 34.306-167.641 35.765-165.854 35.765H-3.247C-1.446 35.765 0 34.306 0 32.519Z" fill="#ffffff"/>
<path transform="matrix(1,0,0,-1,710.2905,694.3008)" d="M0 0C0-2.143-1.748-3.864-3.864-3.864H-50.973C-53.128-3.864-54.864-2.143-54.864 0V29.495C-54.864 31.651-53.128 33.373-50.973 33.373H-3.864C-1.748 33.373 0 31.651 0 29.495ZM0-54.509C0-56.639-1.748-58.359-3.864-58.359H-50.973C-53.128-58.359-54.864-56.639-54.864-54.509V-25.014C-54.864-22.871-53.128-21.148-50.973-21.148H-3.864C-1.748-21.148 0-22.871 0-25.014ZM0-109.018C0-111.134-1.748-112.869-3.864-112.869H-50.973C-53.128-112.869-54.864-111.134-54.864-109.018V-79.509C-54.864-77.367-53.128-75.645-50.973-75.645H-3.864C-1.748-75.645 0-77.367 0-79.509ZM0-163.513C0-165.656-1.748-167.378-3.864-167.378H-50.973C-53.128-167.378-54.864-165.656-54.864-163.513V-134.018C-54.864-131.862-53.128-130.153-50.973-130.153H-3.864C-1.748-130.153 0-131.862 0-134.018ZM0-218.009C0-220.151-1.748-221.873-3.864-221.873H-50.973C-53.128-221.873-54.864-220.151-54.864-218.009V-188.514C-54.864-186.385-53.128-184.662-50.973-184.662H-3.864C-1.748-184.662 0-186.385 0-188.514ZM-71.898 10.41V8.991-54.562C-71.898-56.704-73.646-58.426-75.763-58.426H-122.872C-125.027-58.426-126.762-56.704-126.762-54.562V-46.715-46.386C-126.743-45.873-126.644-45.387-126.466-44.939-126.387-44.782-126.375-44.717-126.23-44.493-126.138-44.31-126.006-44.139-125.888-43.98-125.77-43.797-125.593-43.56-125.448-43.35-119.427-34.727-92.246-1.249-80.83 12.75L-79.687 14.13C-78.858 15.129-77.61 15.773-76.21 15.773-74.047 15.773-72.319 14.195-71.898 12.158ZM-72.03-109.018C-72.03-111.134-73.751-112.869-75.894-112.869H-123.016C-125.159-112.869-126.881-111.134-126.881-109.018V-79.509C-126.881-77.367-125.159-75.645-123.016-75.645H-75.894C-73.751-75.645-72.03-77.367-72.03-79.509ZM-72.03-163.513C-72.03-165.656-73.751-167.378-75.894-167.378H-123.016C-125.159-167.378-126.881-165.656-126.881-163.513V-134.018C-126.881-131.862-125.159-130.153-123.016-130.153H-75.894C-73.751-130.153-72.03-131.862-72.03-134.018ZM-72.03-218.009C-72.03-220.151-73.751-221.873-75.894-221.873H-123.016C-125.159-221.873-126.881-220.151-126.881-218.009V-188.514C-126.881-186.385-125.159-184.662-123.016-184.662H-75.894C-73.751-184.662-72.03-186.385-72.03-188.514ZM-47.444 58.044-46.333 59.438C-35.699 73.081-17.784 95.137-9.05 105.85L-7.906 107.217C-7.078 108.216-5.83 108.859-4.43 108.859-2.268 108.859-.539 107.296-.118 105.245V103.497 102.077 55.376C-.118 52.971-2.031 51.039-4.41 50.934-4.482 50.934-4.542 50.894-4.607 50.894-4.673 50.894-4.732 50.934-4.804 50.934H-41.706-43.632C-43.704 50.934-43.764 50.894-43.829 50.894-43.895 50.894-43.954 50.934-44.026 50.934-46.406 51.039-48.317 52.971-48.317 55.376-48.317 56.375-47.996 57.295-47.444 58.044M17.975 165.091C17.449 166.826 15.911 168.114 14.005 168.114 13.15 168.114 12.408 167.798 11.745 167.365 11.646 167.299 11.547 167.246 11.449 167.168L10.115 165.485-145.269-31.625-145.985-32.585C-146.788-33.373-147.299-34.451-147.333-35.66V-35.923-277.881C-147.333-280.01-145.598-281.732-143.456-281.732H14.485C16.628-281.732 18.349-280.01 18.349-277.881V163.474C18.349 164.053 18.198 164.604 17.975 165.091" fill="#ffffff"/>
</g>
<text fill="#ffffff" xml:space="preserve" transform="matrix(1 0 -0 1 0 1080)" font-size="93" font-family="Oswald-SemiBold" font-weight="bold"><tspan y="-916.3145" x="300.7637 355.26173 420.64073 475.88273 517.7327 570.09176 625.33377 676.39077 716.9387 758.69577 786.59579 840.81478">B&#x00c6;REKRAFTIGE</tspan><tspan y="-807.3185" x="300.7637 354.14573 400.83174 442.68174 497.92375 522.1967 576.7877">BYER OG</tspan><tspan y="-698.3225" x="300.7637 341.03269 395.6237 447.9827 499.0397 539.77377 587.20376 638.26077 703.91879 744.46676 799.2437 851.7887">LOKALSAMFUNN</tspan></text>
</g>
</svg>
