<svg xmlns="http://www.w3.org/2000/svg" xmlns:xlink="http://www.w3.org/1999/xlink" xmlns:inkscape="http://www.inkscape.org/namespaces/inkscape" version="1.1" width="1080" height="1080" viewBox="0 0 1080 1080">
<defs>
<clipPath id="clip_1">
<path transform="matrix(1,0,0,-1,0,1080)" d="M0 1080H1080V0H0Z"/>
</clipPath>
</defs>
<g inkscape:groupmode="layer" inkscape:label="Layer 1">
</g>
<g inkscape:groupmode="layer" inkscape:label="Layer 3">
</g>
<g inkscape:groupmode="layer" inkscape:label="Utrydde fattigdom">
</g>
<g inkscape:groupmode="layer" inkscape:label="Layer 4">
</g>
<g inkscape:groupmode="layer" inkscape:label="Layer 6">
</g>
<g inkscape:groupmode="layer" inkscape:label="Overskrift">
<path transform="matrix(1,0,0,-1,0,1080)" d="M0 0H1080V1080H0Z" fill="#a21942"/>
</g>
<g inkscape:groupmode="layer" inkscape:label="Layer 7">
<path transform="matrix(1,0,0,-1,0,1080)" d="M0 0H1079V1078H0Z" fill="#a21942"/>
<g clip-path="url(#clip_1)">
<path transform="matrix(1,0,0,-1,173.0693,260.6021)" d="M0 0C0-13.162-4.813-22.466-17.961-22.466-30.809-22.466-35.614-13.162-35.614 0V35.3C-35.614 48.448-30.809 57.76-17.961 57.76-4.813 57.76 0 48.448 0 35.3ZM-34.338 120.319C-34.338 133.494-29.833 141.193-17.961 141.193-5.782 141.193-1.277 133.494-1.277 120.319V105.573C-1.277 92.418-5.782 84.698-17.961 84.698-29.833 84.698-34.338 92.418-34.338 105.573ZM36.584 3.85V27.6C36.584 48.448 29.211 63.535 12.199 71.242 26.624 78.288 33.375 91.122 33.375 109.095V118.092C33.375 152.103 15.728 170.391-17.961 170.391-51.33 170.391-68.669 152.103-68.669 118.092V109.095C-68.669 91.442-62.238 78.288-48.134 71.242-65.139 63.535-72.204 48.448-72.204 27.6V3.85C-72.204-29.198-56.47-52.305-17.961-52.305 20.855-52.305 36.584-29.198 36.584 3.85" fill="#ffffff"/>
<path transform="matrix(1,0,0,-1,744.2354,573.0908)" d="M0 0-109.672-104.328C-113.811-108.447-115.932-111.479-115.932-119.997V-412.396C-115.932-415.828-113.13-418.638-109.672-418.638H3.614C7.064-418.638 9.854-415.828 9.854-412.396V-2.632C9.854 .818 7.156 7.118 0 0" fill="#ffffff"/>
<path transform="matrix(1,0,0,-1,428.2822,709.0127)" d="M0 0-109.685-104.316C-113.81-108.441-115.938-111.467-115.938-119.972V-276.475C-115.938-279.894-113.129-282.702-109.685-282.702H3.608C7.065-282.702 9.854-279.894 9.854-276.475V-2.62C9.854 .838 7.131 7.15 0 0" fill="#ffffff"/>
<path transform="matrix(1,0,0,-1,794.085,446.5703)" d="M0 0C.039 .831-.256 1.722-.93 2.377-1.506 2.94-2.246 3.201-2.96 3.267L-3.563 3.228-4.46 3.175-88.438-15.769-89.963-15.925C-90.565-16.043-91.135-16.344-91.6-16.783-92.837-18.033-92.837-20.051-91.6-21.301L-90.65-22.251-71.472-41.423-261.762-231.713-349.648-143.819C-350.644-142.818-352.222-142.818-353.224-143.819L-377.071-167.675C-377.091-167.675-377.091-167.7-377.091-167.7L-517.977-308.561C-518.952-309.556-518.952-311.166-517.977-312.143L-494.097-336.009C-493.121-336.998-491.53-336.998-490.548-336.009L-351.417-196.911-287.64-260.694C-287.574-260.793-287.541-260.897-287.437-260.996L-263.582-284.823C-262.593-285.826-261.002-285.826-260.007-284.823L-44.042-68.859-23.9-88.987C-22.663-90.237-20.646-90.237-19.422-88.987-18.832-88.397-18.544-87.678-18.505-86.918L-18.491-86.649-.046-.924Z" fill="#ffffff"/>
<path transform="matrix(1,0,0,-1,586.8809,727.3213)" d="M0 0-53.064-53.503C-54.073-54.335-55.546-54.309-56.482-53.373L-104.558-4.367C-113.358 4.4-115.257-2.711-115.257-6.155V-258.153C-115.257-261.585-112.494-264.394-109.05-264.394H4.27C7.7-264.394 10.503-261.585 10.503-258.153V-1.978C10.503 1.467 7.786 7.792 0 0" fill="#ffffff"/>
</g>
<text fill="#ffffff" xml:space="preserve" transform="matrix(1 0 -0 1 0 1080)" font-size="93" font-family="Oswald-SemiBold" font-weight="bold"><tspan y="-912.2446" x="302.2148 353.27183 405.81684 453.80485 495.56184 537.4118 589.9568 644.2688 672.1688 726.3878 750.6608 801.71786 856.95986 911.4578 953.3078 981.2078">ANSTENDIG ARBEID</tspan><tspan y="-784.09066" x="302.2148 356.80583 411.0248 435.29783 488.8658 539.6438 594.2348 646.7798 701.3708 767.0288 794.92886 842.9168 895.2758">OG &#x00d8;KONOMISK </tspan><tspan y="-655.93667" x="302.2148 351.69084 393.54084 444.69084 492.67884">VEKST</tspan></text>
</g>
</svg>
