<?xml version="1.0" encoding="UTF-8" standalone="no"?>
<!-- Created with Inkscape (http://www.inkscape.org/) -->

<svg
   xmlns:dc="http://purl.org/dc/elements/1.1/"
   xmlns:cc="http://creativecommons.org/ns#"
   xmlns:rdf="http://www.w3.org/1999/02/22-rdf-syntax-ns#"
   xmlns:svg="http://www.w3.org/2000/svg"
   xmlns="http://www.w3.org/2000/svg"
   xmlns:sodipodi="http://sodipodi.sourceforge.net/DTD/sodipodi-0.dtd"
   xmlns:inkscape="http://www.inkscape.org/namespaces/inkscape"
   width="200mm"
   height="200mm"
   viewBox="0 0 708.6614 708.6614"
   id="svg4174"
   version="1.1"
   inkscape:version="0.91 r13725"
   sodipodi:docname="objectif 14.svg">
  <defs
     id="defs4176" />
  <sodipodi:namedview
     id="base"
     pagecolor="#ffffff"
     bordercolor="#666666"
     borderopacity="1.0"
     inkscape:pageopacity="0.0"
     inkscape:pageshadow="2"
     inkscape:zoom="0.35"
     inkscape:cx="92.435686"
     inkscape:cy="520"
     inkscape:document-units="px"
     inkscape:current-layer="layer1"
     showgrid="false"
     inkscape:window-width="1366"
     inkscape:window-height="745"
     inkscape:window-x="-8"
     inkscape:window-y="-8"
     inkscape:window-maximized="1" />
  <metadata
     id="metadata4179">
    <rdf:RDF>
      <cc:Work
         rdf:about="">
        <dc:format>image/svg+xml</dc:format>
        <dc:type
           rdf:resource="http://purl.org/dc/dcmitype/StillImage" />
        <dc:title></dc:title>
      </cc:Work>
    </rdf:RDF>
  </metadata>
  <g
     inkscape:label="Calque 1"
     inkscape:groupmode="layer"
     id="layer1"
     transform="translate(0,-343.70075)">
    <rect
       id="rect346"
       style="clip-rule:evenodd;fill:#194468;fill-rule:nonzero;stroke-miterlimit:2"
       height="670.37549"
       width="670.33795"
       y="365.24789"
       x="2250.6177" />
    <path
       inkscape:connector-curvature="0"
       id="path348"
       style="clip-rule:evenodd;fill:#ffffff;fill-rule:nonzero;stroke-miterlimit:2"
       d="m 2350.9213,421.43126 0,135.15844 -22.7209,0 0,-103.46258 -0.2041,0 -15.9459,16.54585 -0.1958,0 0,-23.72086 20.9333,-24.52085 18.1334,0 z" />
    <path
       inkscape:connector-curvature="0"
       id="path350"
       style="clip-rule:evenodd;fill:#ffffff;fill-rule:nonzero;stroke-miterlimit:2"
       d="m 2361.2921,421.43126 57.0126,0 0,20.93335 -29.7042,114.22509 -22.5375,0 30.3125,-116.62092 -35.0834,0 0,-18.53752 z" />
    <path
       inkscape:connector-curvature="0"
       id="path352"
       style="clip-rule:evenodd;fill:#ffffff;fill-rule:nonzero;stroke-miterlimit:2"
       d="m 2649.0674,777.63151 c 17.1916,-15.95835 27.9875,-38.72919 27.9875,-63.98754 0,-3.77917 -0.2708,-7.50001 -0.7333,-11.15834 34.9458,3.74583 62.2625,33.39586 62.2625,69.32921 0,20.41251 -8.8708,38.74586 -22.9125,51.51254 -13.1417,-24.62086 -37.7209,-42.2292 -66.6042,-45.69587 z m 59.2708,86.66256 c 0,38.43752 -31.2833,69.72082 -69.7375,69.72082 -12.5125,0 -24.2167,-3.3541 -34.3834,-9.15 14.8334,-15.6541 23.9792,-36.7791 23.9792,-59.98749 0,-5.72084 -0.575,-11.30001 -1.625,-16.70835 12.5334,6.96668 26.9417,10.95001 42.2792,10.95001 13.6459,0 26.5667,-3.15 38.0709,-8.76251 0.9291,4.51251 1.4166,9.16668 1.4166,13.93752 z m -237.1835,0.58333 c 0,-4.9625 0.5292,-9.79168 1.525,-14.45418 11.4875,5.57084 24.3667,8.69584 37.9584,8.69584 15.2875,0 29.65,-3.95833 42.1584,-10.88334 -0.975,5.20417 -1.5125,10.57084 -1.5125,16.05835 0,23.57922 9.4333,45.00002 24.6833,60.72502 -10.3167,6.0458 -22.2875,9.575 -35.0792,9.575 -38.4584,0 -69.7334,-31.2792 -69.7334,-69.71669 z m -30.2458,-93.06256 c 0,-35.93335 27.3083,-65.57921 62.2542,-69.32921 -0.4667,3.65833 -0.7334,7.37917 -0.7334,11.15834 0,25.52502 11.0167,48.52086 28.5251,64.50004 -28.9626,3.29583 -53.6626,20.79585 -66.9418,45.3667 -14.1458,-12.76668 -23.1041,-31.18753 -23.1041,-51.69587 z m 148.8293,-127.90008 c 28.5708,0 53.1542,17.27917 63.9208,41.92919 -28.3667,5 -52.05,23.72502 -63.9208,49.06254 -11.8584,-25.34169 -35.5459,-44.06254 -63.9126,-49.06254 10.7667,-24.65002 35.3459,-41.92919 63.9126,-41.92919 z m 16.6041,158.61677 c 9.6625,-5.06251 20.6125,-7.97084 32.2584,-7.97084 27.4125,0 51.1167,15.94584 62.5125,39.00835 -9.6666,5.07084 -20.6333,7.97501 -32.2625,7.97501 -27.4208,0 -51.1209,-15.94584 -62.5084,-39.01252 z m -33.4292,0.47083 c -11.4708,22.81252 -35.0417,38.54169 -62.275,38.54169 -11.55,0 -22.4292,-2.875 -32.0292,-7.86668 11.4708,-22.8125 35.05,-38.53752 62.2792,-38.53752 11.5542,0 22.425,2.86667 32.025,7.86251 z m -51.9917,-100.07923 c 33.5792,4.99167 59.4542,33.93752 59.4542,68.89171 0,3.64583 -0.3708,7.2125 -0.9166,10.7125 -33.5834,-4.99583 -59.4501,-33.93336 -59.4501,-68.88337 0,-3.65417 0.3667,-7.22084 0.9125,-10.72084 z m 69.1418,211.31676 c -13.0542,-12.675 -21.1959,-30.3708 -21.1959,-49.94582 0,-19.27919 7.8792,-36.75003 20.5542,-49.38337 13.0458,12.675 21.1958,30.37502 21.1958,49.9667 0,19.26669 -7.8708,36.73339 -20.5541,49.36249 z m 69.4083,-200.59592 c 0,34.95001 -25.8666,63.88754 -59.4458,68.88337 -0.5417,-3.5 -0.9042,-7.06667 -0.9042,-10.7125 0,-34.95419 25.8625,-63.89587 59.4375,-68.88755 0.5459,3.49584 0.9125,7.06251 0.9125,10.71668 z m 96.6876,58.17087 c 0,-47.07919 -37.45,-85.54173 -84.1001,-87.24173 -12,-33.88751 -44.3667,-58.23753 -82.3208,-58.23753 -37.9501,0 -70.3084,24.35002 -82.3209,58.23753 -46.6501,1.70417 -84.0876,40.1667 -84.0876,87.24173 0,27.93335 13.2042,52.83337 33.6917,68.82504 -2.225,7.70417 -3.45,15.82501 -3.45,24.23752 0,48.12089 39.1708,87.2959 87.3167,87.2959 18.2709,0 35.2375,-5.6583 49.2751,-15.28751 13.8708,9.27921 30.5333,14.70421 48.4375,14.70421 48.1417,0 87.3084,-39.16671 87.3084,-87.29593 0,-8.23751 -1.1667,-16.20002 -3.3042,-23.75419 20.4,-16 33.5542,-40.85002 33.5542,-68.72504 z" />
    <rect
       id="rect766"
       style="clip-rule:evenodd;fill:#0d649b;fill-rule:nonzero;stroke-miterlimit:2"
       height="670.37964"
       width="670.34631"
       y="365.24789"
       x="1507.5795" />
    <path
       inkscape:connector-curvature="0"
       id="path768"
       style="clip-rule:evenodd;fill:#ffffff;fill-rule:nonzero;stroke-miterlimit:2"
       d="m 1559.154,446.00628 0,23.72085 0.2042,0 15.9458,-16.54584 0.2042,0 0,103.45841 22.725,0 0,-135.15844 -18.1375,0 -20.9417,24.52502 z" />
    <path
       inkscape:connector-curvature="0"
       id="path770"
       style="clip-rule:evenodd;fill:#ffffff;fill-rule:nonzero;stroke-miterlimit:2"
       d="m 1655.2499,526.14384 c 0,8.57084 -3.1875,13.55417 -10.9583,13.55417 -7.575,0 -10.5625,-5.17917 -10.5625,-13.55417 l 0,-24.71669 c 0.3916,-7.57501 3.5791,-12.3625 10.7625,-12.3625 7.7666,0 10.7583,4.78749 10.7583,13.55833 l 0,23.52086 z m 22.5292,-1.98751 0,-19.93751 c 0,-22.12918 -8.7709,-33.30002 -25.1167,-33.30002 -9.575,0 -15.3542,4.3875 -18.7375,10.97084 l -0.1958,0 0,-29.10835 c 0,-8.17918 2.5833,-13.95835 10.7625,-13.95835 8.1708,0 10.5625,4.78751 10.5625,13.15418 l 0,8.98751 20.7292,0 0,-7.18751 c 0,-19.93752 -6.5709,-33.87919 -31.6959,-33.87919 -23.9209,0 -32.8959,15.34168 -32.8959,36.47503 l 0,65.78337 c 0,20.93335 9.175,36.08337 33.1001,36.08337 24.1166,0 33.4875,-13.15418 33.4875,-34.08337 z" />
    <path
       inkscape:connector-curvature="0"
       id="path772"
       style="clip-rule:evenodd;fill:#ffffff;fill-rule:nonzero;stroke-miterlimit:2"
       d="m 1959.7086,661.43559 c 0,0 -6.3459,8.42084 -4.5,16.62502 1.8583,8.20834 11.2083,13.08751 11.2083,13.08751 0,0 6.3459,-8.42084 4.4959,-16.62501 -1.85,-8.20834 -11.2042,-13.08752 -11.2042,-13.08752 z" />
    <path
       inkscape:connector-curvature="0"
       id="path774"
       style="clip-rule:evenodd;fill:#ffffff;fill-rule:nonzero;stroke-miterlimit:2"
       d="m 1949.3711,709.52313 c 0,0 6.3458,-8.425 4.4958,-16.62918 -1.8583,-8.2125 -11.2083,-13.07917 -11.2083,-13.07917 0,0 -6.3459,8.4125 -4.5042,16.62084 1.8625,8.20418 11.2167,13.08751 11.2167,13.08751 z" />
    <path
       inkscape:connector-curvature="0"
       id="path776"
       style="clip-rule:evenodd;fill:#ffffff;fill-rule:nonzero;stroke-miterlimit:2"
       d="m 1975.4336,700.50646 c 0,0 6.7,6.75417 14.325,6.075 7.625,-0.675 13.275,-8.525 13.275,-8.525 0,0 -6.6875,-6.75417 -14.3167,-6.07501 -7.625,0.67917 -13.2833,8.52501 -13.2833,8.52501 z" />
    <path
       inkscape:connector-curvature="0"
       id="path778"
       style="clip-rule:evenodd;fill:#ffffff;fill-rule:nonzero;stroke-miterlimit:2"
       d="m 1986.4044,664.4356 c -6.2041,6.29584 -5.3291,17.43334 -5.3291,17.43334 0,0 10.9375,0.95001 17.1541,-5.34167 6.2,-6.2875 5.325,-17.42918 5.325,-17.42918 0,0 -10.9416,-0.94582 -17.15,5.33751 z" />
    <path
       inkscape:connector-curvature="0"
       id="path780"
       style="clip-rule:evenodd;fill:#ffffff;fill-rule:nonzero;stroke-miterlimit:2"
       d="m 1972.7169,725.53981 c 7.5959,0.9 14.7417,-5.625 14.7417,-5.625 0,0 -5.175,-7.97918 -12.7625,-8.87501 -7.6083,-0.89583 -14.7542,5.62917 -14.7542,5.62917 0,0 5.175,7.97501 12.775,8.87084 z" />
    <path
       inkscape:connector-curvature="0"
       id="path782"
       style="clip-rule:evenodd;fill:#ffffff;fill-rule:nonzero;stroke-miterlimit:2"
       d="m 1979.5044,847.69405 -56.7958,0 c -4.4417,0 -8.0459,3.58334 -8.0459,8.02918 0,4.43333 3.6042,8.0375 8.0459,8.0375 l 56.7958,0 c 4.4334,0 8.0334,-3.60417 8.0334,-8.0375 0,-4.44584 -3.6,-8.02918 -8.0334,-8.02918 z" />
    <path
       inkscape:connector-curvature="0"
       id="path784"
       style="clip-rule:evenodd;fill:#ffffff;fill-rule:nonzero;stroke-miterlimit:2"
       d="m 1979.5044,936.25249 -56.7958,0 c -4.4417,0 -8.0459,3.5916 -8.0459,8.03331 0,4.4375 3.6042,8.0375 8.0459,8.0375 l 56.7958,0 c 4.4334,0 8.0334,-3.6 8.0334,-8.0375 0,-4.44171 -3.6,-8.03331 -8.0334,-8.03331 z" />
    <path
       inkscape:connector-curvature="0"
       id="path786"
       style="clip-rule:evenodd;fill:#ffffff;fill-rule:nonzero;stroke-miterlimit:2"
       d="m 1724.0791,828.1857 c -1.3333,-0.4125 -2.6583,-0.775 -3.9416,-1.01666 0,0 1.4541,0.45416 3.9416,1.01666 z" />
    <path
       inkscape:connector-curvature="0"
       id="path788"
       style="clip-rule:evenodd;fill:#ffffff;fill-rule:nonzero;stroke-miterlimit:2"
       d="m 1816.1292,862.94823 c 3.7417,0.0625 7.5,-0.05 11.2583,-0.30417 l 0,29.67083 -11.2583,-0.2541 0,-29.11256 z m 161.2794,6.42496 -52.625,0 c -2.5251,0 -4.5751,2.05 -4.5751,4.5667 l 0,15.9417 -34.3583,3.775 -50.1918,-1.15 0,-30.65836 c 6.6708,-0.85 13.3458,-2.17917 19.9708,-4.05 48.3168,-13.63335 58.8502,-43.72503 57.8002,-71.36255 -1.05,-28.14586 7.9583,-39.0792 20.9,-43.93752 3.7083,-1.39167 7.375,-2.27084 10.725,-2.84167 0.1458,6.91249 1.5458,14.95 4.6417,24.52917 1.1458,-0.0667 2.2875,-0.1625 3.425,-0.2875 -3.2667,-9.79584 -4.6584,-17.85001 -4.7375,-24.725 6.6916,-0.7875 11.4583,-0.34167 11.4583,-0.34167 0,0 -4.5208,-2.42917 -10.9042,-7.76667 2.1709,-13.32918 10.1125,-21.51252 18.2917,-29.88336 4.5,-4.60834 9.1459,-9.36251 12.8042,-15.03335 l -2.85,-1.8375 c -3.4625,5.38751 -8.0125,10.01251 -12.3833,14.50001 -7.9834,8.16251 -16.0334,16.50418 -18.7626,29.73336 -2.5916,-2.34167 -5.3958,-5.10834 -8.2708,-8.32917 -11.9125,-13.35418 -27.25,-3.54584 -49.1209,16.82085 -21.8834,20.35416 -49.396,21.05 -76.271,-6.44584 -35.4542,-36.29587 -66.3792,-36.0917 -87.5917,-34.0292 14.5083,6.17917 19.5833,19.73335 26.9292,54.19586 7.6958,36.15837 27.1042,52.51671 53.6584,54.77505 -12.3084,1.99167 -15.5042,3.7 -35.2876,17.36668 -15.4542,10.65833 -37.1917,7.29166 -46.0042,5.28749 16.1792,5.04584 35.3376,22.01669 52.4876,27.92086 9.9833,3.4375 20.5083,5.5625 31.2875,6.41667 l 0,29.34586 -95.2043,-2.05 0,20.4708 173.2003,-3.8416 34.3583,3.7833 0,15.925 c 0,2.5208 2.05,4.5792 4.5751,4.5792 l 52.625,0 c 2.5292,0 4.5792,-2.0584 4.5792,-4.5792 l 0,-52.2167 c 0,-2.5167 -2.05,-4.5667 -4.5792,-4.5667 z" />
    <path
       inkscape:connector-curvature="0"
       id="path790"
       style="clip-rule:evenodd;fill:#ffffff;fill-rule:nonzero;stroke-miterlimit:2"
       d="m 1707.7333,906.90659 c 0,4.3208 -3.0084,7.8167 -6.7209,7.8167 l -4.05,0 c -3.7,0 -6.725,-3.4959 -6.725,-7.8167 l 0,-14.15 c 0,-4.325 3.025,-7.8208 6.725,-7.8208 l 4.05,0 c 3.7125,0 6.7209,3.4958 6.7209,7.8208 l 0,14.15 z" />
    <rect
       id="rect1052"
       style="clip-rule:evenodd;fill:#3f7d3d;fill-rule:nonzero;stroke-miterlimit:2"
       height="671.37128"
       width="671.32965"
       y="365.24789"
       x="-720.95563" />
    <path
       inkscape:connector-curvature="0"
       id="path1054"
       style="clip-rule:evenodd;fill:#ffffff;fill-rule:nonzero;stroke-miterlimit:2"
       d="m -636.21817,421.56876 0,135.3001 -22.75421,0 0,-103.57091 -0.2,0 -15.9583,16.56252 -0.2083,0 0,-23.75002 20.9583,-24.54169 18.16251,0 z" />
    <path
       inkscape:connector-curvature="0"
       id="path1056"
       style="clip-rule:evenodd;fill:#ffffff;fill-rule:nonzero;stroke-miterlimit:2"
       d="m -561.18477,450.90628 0,11.77085 c 0,11.37084 -6.1833,18.95418 -15.5625,21.95418 11.3709,2.59167 16.7625,10.57083 16.7625,22.94584 l 0,19.95835 c 0,18.75836 -9.975,30.9292 -32.9292,30.9292 -23.1542,0 -31.3417,-13.17085 -31.3417,-33.72087 l 0,-17.76251 20.7667,0 0,19.36252 c 0,7.97917 2.7875,13.16251 10.575,13.16251 6.9792,0 10.1667,-4.98334 10.1667,-12.17501 l 0,-22.34586 c 0,-7.19167 -3.1875,-10.975 -11.1667,-10.975 l -9.575,0 0,-17.36251 8.5834,0 c 7.3791,0 12.1583,-3.79583 12.1583,-10.97917 l 0,-14.56668 c 0,-7.38751 -2.5833,-12.17501 -9.7625,-12.17501 -7.1833,0 -9.7792,4.7875 -9.7792,13.17501 l 0,13.76668 -20.7667,0 0,-11.97085 c 0,-19.95835 8.1875,-33.92502 31.7334,-33.92502 20.9583,0 30.1375,11.77501 30.1375,30.93335 z" />
    <path
       inkscape:connector-curvature="0"
       id="path1058"
       style="clip-rule:evenodd;fill:#ffffff;fill-rule:nonzero;stroke-miterlimit:2"
       d="m -278.64707,810.0357 c -2.7792,-0.75833 -14.4167,-16.84168 -5.2167,-27.42502 1.525,-1.74167 -3.0875,-6.85834 -1.8292,-6.96251 5.0334,-0.3875 7.7126,2.73334 9.0292,7.23751 0.1042,1.97917 0.1792,3.98333 0.1792,6.00417 0,7.24584 -0.7542,14.31668 -2.1625,21.14585 z m -28.3834,52.30836 c -1.0375,-0.29166 -2.1042,-0.625 -3.2542,-1.2 -5.6541,-2.87917 -4.975,1.72084 -7.7542,0.70417 -2.8,-1.0375 3.1376,-7.48751 -5.2208,-2.02917 -8.3167,5.44167 -6.0708,-0.84167 -9.7,-10.06251 -3.6667,-9.22917 4.175,-19.75835 10.7208,-22.14168 9.0001,-3.25833 14.5917,-3.92083 18.8126,-4.96249 12.4458,-3.10834 15.0792,-10.49585 17.3333,-6.00001 0.425,0.84167 0.8417,1.64167 1.2167,2.39584 0.7208,1.34166 1.5584,4.0625 1.5959,6.75 -5.2792,13.84584 -13.4334,26.28335 -23.7501,36.54585 z m -73.0709,30.15833 c -10.125,0 -19.8833,-1.4708 -29.1209,-4.1708 -1.3291,-1.0792 -2.0875,-2.8917 -1.2583,-5.0583 3.2083,-8.3626 12.7542,-11.6334 20.2917,-12.3584 16.8,-1.6417 38.8792,10.9042 42.3917,8.8792 3.5292,-2.0209 10.6292,-11.2584 21.05,-10.8709 7.1125,0.275 7.0583,1.4709 9.4458,2.3709 -17.425,13.2917 -39.1791,21.2083 -62.8,21.2083 z m -14.0917,-67.52918 c -1.4208,2.33333 -5.3166,19.75834 -7.9333,17.72917 -2.6292,-2.03333 1.0583,-20.20834 1.8166,-21.59167 4.0917,-7.50834 12.9417,-7.13334 6.1167,3.8625 z m 42.3167,-20.57085 c -2.0458,1.82084 -7.2833,1.15417 -9.9042,-0.89167 -2.6041,-2.025 1.6542,-5.3875 3.2084,-5.5125 3.4875,-0.30833 8.725,4.55834 6.6958,6.40417 z m 45.7251,0.17917 c -1.1125,-0.41667 -2.1,-1.475 -2.95,-4.02084 -0.8417,-2.54167 1.3,-3.99167 3.3875,-2.97083 2.125,1.07916 4.8875,4.25 4.8875,5.94583 0,1.69584 -4.1792,1.49167 -5.325,1.04584 z m 4.4083,3.18333 c 3.4834,-0.27916 8.7125,4.54584 6.6667,6.40001 -2.0375,1.8375 -7.2625,1.15833 -9.8792,-0.8875 -2.6083,-2.02917 1.6458,-5.38334 3.2125,-5.51251 z m -111.1459,41.31669 c -2.0125,7.91668 -4.3667,10.77501 -6.3667,13.27085 -2.0042,2.52917 -9.4208,5.74999 -14.1292,5.40419 -4.7125,-0.3542 -5.3666,-12.9292 -5.3666,-19.3917 0,-2.23751 -3.1626,4.3875 -4.8126,-9.07501 -1.0541,-8.61667 -6.5875,0.9 -6.975,-4.85 -0.3958,-5.73334 -3.1583,-4.59168 -6.0666,-8.175 -2.8917,-3.57917 -6.4959,0.35 -10.5375,2.16249 -4.0125,1.7875 -2.3625,2.725 -8.075,0.92917 -0.15,-0.05 -0.225,-0.0917 -0.3667,-0.14167 -5.2417,-12.39583 -8.1375,-26.02501 -8.1375,-40.32502 0,-3.5 0.1875,-6.93751 0.5125,-10.34168 0.1958,-0.34583 0.4,-0.67916 0.6375,-0.9625 5.4833,-6.48334 5.3625,-8.00417 5.3625,-8.00417 l 6.0625,-2.09584 c 0,0 9.6792,1.48751 16.9708,4.23751 6.0042,2.25 15.4667,7.34584 20.9626,5.10417 3.9791,-1.64167 7.0875,-3.8125 6.7125,-7.12501 -0.4459,-4.15417 -3.7167,-5.14167 -7.675,-2.34167 -1.4625,1.02917 -4.575,-6.2625 -7.0167,-5.89167 -2.4417,0.3625 3.0208,8.56668 0.95,8.91668 -2.075,0.35416 -6.25,-8.55418 -6.9625,-9.99584 -0.7,-1.43334 -3.925,-5.00834 -6.8167,-2.27917 -6.1125,5.80417 -16.0375,5.45 -18.0292,6.94584 -6.0625,4.5375 -7.6666,-1.49584 -7.5333,-5.17084 0.2458,-0.8375 0.4917,-1.6875 0.7625,-2.51667 1.9792,-2.18333 9.0875,-2.90834 11.5292,-1.27917 2.6833,1.7875 4.6041,-0.4625 5.6541,-1.55 1.0625,-1.05833 0.6875,-2.78333 0.021,-4.20834 -0.6833,-1.44166 1.3375,-2.49583 2.7209,-2.86666 1.4,-0.37084 6.0125,-3.6 7.8583,-4.67917 1.8625,-1.07082 11.4375,-2.23333 15.7334,-0.0875 4.2875,2.16249 8.2291,0.39582 10.3416,-2.0875 2.6459,-3.14167 6.0167,-5.53751 7.5084,-6.26251 1.5083,-0.70416 -3.6917,-5.55417 -7.9667,-0.2625 -4.2875,5.26251 -6.4667,5.75001 -8.4792,5.75001 -2.0125,0 -13.9708,-2.98334 -15.45,-6.76667 -1.4583,-3.77084 3.7417,-6.60001 8.1584,-8.74168 4.4125,-2.10417 16.4916,-2.075 19.5791,-2.775 6.2792,-1.375 14.3042,-4.52917 18.3501,-1.77917 4.0208,2.70417 -16.8876,7.46667 -10.0167,11.17918 2.4458,1.34166 13.5,-6.35834 17.2917,-8.32918 8.9041,-4.59583 -8.6459,-6.1125 -6.3667,-15.45834 2.575,-10.55834 -21.5292,-6.47501 -33.5375,-5.57501 16.1083,-10.325 35.2458,-16.32918 55.7917,-16.32918 48.8833,0 89.8251,33.86253 100.7418,79.39589 0.071,2.25 -0.2792,3.875 -0.5042,4.79583 -0.9375,3.73334 -8.0209,6.94584 -12.1292,0.93334 -1.05,-1.51667 -5.4958,-5.71251 -5.3458,1.46667 0.1458,7.17917 6.9791,7.91667 0.3541,12.225 -6.6167,4.30834 -7.8292,3.27084 -10.8875,4.35418 -3.05,1.08333 -6.0125,8.48334 -5.2833,12.4375 0.7375,3.95417 10.1833,14.75418 3.175,14.30835 -1.6375,-0.12083 -14.0209,-8.57501 -16.0667,-14.01251 -2.1584,-5.72501 -4.5084,-11.32918 -6.1834,-15.64585 -1.6875,-4.30417 -6.0583,-5.4 -9.7583,-2.87083 -3.6833,2.525 1.0333,5.04583 -1.6208,10.44167 -2.6417,5.38751 -4.5417,10.20001 -8.4292,5.74584 -10.1125,-11.58751 -24.8084,-5.87084 -27.1125,-18.76252 -1.2417,-6.99167 -7.2625,-6.325 -12.2959,-10.28334 -5.0583,-3.9375 -7.875,-6.07917 -8.725,-3.22917 -0.7541,2.50417 15.8334,15.65418 17.0167,19.02085 1.7583,5.00417 -4.9708,9.42084 -9.8917,10.60834 -4.9041,1.17501 -7.0708,-2.7625 -11.8958,-7.79167 -4.825,-5.02084 -6.9375,-8.61251 -7.2709,-4.66667 -0.4833,5.70001 4.5834,14.07085 9.5001,17.20002 4.1916,2.65833 8.8875,3.85833 7.5333,8.16667 -1.3625,4.32083 -0.025,1.87917 -4.725,6.525 -4.7042,4.67084 -5.6,6.17084 -5.2584,12.62084 0.3417,6.47084 -1.3416,6.84167 -2.3541,12.22084 -1.0042,5.37917 -3.3417,0.72083 -5.3709,8.61667 z m -55.6584,-114.19173 c 0.2333,-0.27917 0.4458,-0.50833 0.5375,-0.625 1.8667,-2.13334 5.5875,-2.5875 8.1625,-2.9875 2.5833,-0.44167 6.0208,0.85416 6.4333,2.57083 0.4417,1.70417 -6.4625,4.83334 -7.725,6.00417 -3.575,3.29583 -9.1791,10.00833 -12.4541,10.73333 -1.0709,0.2375 -1.9542,0.075 -2.6792,-0.28333 2.1583,-5.37084 4.7333,-10.53333 7.725,-15.4125 z m 5.3083,-10.56251 c 1.3417,-1.97083 5.7959,-7.5875 6.3375,-8.29584 1.1417,-1.475 3.4167,-1.775 5.0167,-2.05833 1.575,-0.30417 3.6792,0.58333 3.9333,1.77083 0.2709,1.1875 -0.6125,5.79167 -1.3916,6.58334 -2.175,2.26667 -7.8584,5.4625 -10.9875,4.95834 -2.4209,-0.37084 -3.3667,-2.24584 -2.9084,-2.95834 z m 329.3795,61.22504 c -17.6833,-24.80836 -97.6917,-123.86259 -246.4127,-123.86259 -148.7459,0 -228.7251,99.05423 -246.4418,123.86259 -0.7542,1.0625 -1.4,1.97916 -1.9292,2.75833 0.5292,0.8 1.175,1.7125 1.9292,2.7875 17.7167,24.79586 97.6959,123.85011 246.4418,123.85011 148.721,0 228.7294,-99.05425 246.4127,-123.85011 0.7708,-1.075 1.4083,-1.9875 1.9208,-2.7875 -0.5125,-0.77917 -1.15,-1.69583 -1.9208,-2.75833 z" />
    <rect
       id="rect1126"
       style="clip-rule:evenodd;fill:#5fb12f;fill-rule:nonzero;stroke-miterlimit:2"
       height="669.9046"
       width="669.87964"
       y="365.36868"
       x="766.54126" />
    <path
       inkscape:connector-curvature="0"
       id="path1128"
       style="clip-rule:evenodd;fill:#ffffff;fill-rule:nonzero;stroke-miterlimit:2"
       d="m 815.59535,445.95211 0,23.70419 0.1958,0 15.9333,-16.53335 0.2042,0 0,103.38758 22.7084,0 0,-135.07094 -18.1334,0 -20.9083,24.51252 z" />
    <path
       inkscape:connector-curvature="0"
       id="path1130"
       style="clip-rule:evenodd;fill:#ffffff;fill-rule:nonzero;stroke-miterlimit:2"
       d="m 908.62035,464.2813 c -8.9583,0 -15.525,3.17916 -19.125,9.35834 l -0.2,0 0,-33.67086 39.0501,0 0,-18.52085 -59.7584,0 0,76.10422 20.7083,0 0,-3.00001 c 0,-7.95833 3.5875,-12.34583 9.9584,-12.34583 6.9791,0 9.775,4.7875 9.775,12.15417 l 0,32.67502 c 0,7.16251 -2.5917,12.14585 -9.5709,12.14585 -7.7625,0 -10.5416,-5.17918 -10.5416,-13.14585 l 0,-16.93335 -20.7376,0 0,15.34585 c 0,20.51252 8.175,33.66253 31.2792,33.66253 22.9125,0 32.2709,-12.15417 32.2709,-30.88336 l 0,-33.06669 c 0,-21.32084 -10.9542,-29.87918 -23.1084,-29.87918 z" />
    <path
       inkscape:connector-curvature="0"
       id="path1132"
       style="clip-rule:evenodd;fill:#ffffff;fill-rule:nonzero;stroke-miterlimit:2"
       d="m 1043.9453,818.30237 c 0.8167,0 1.4709,0.66667 1.4709,1.48334 l 0,48.77918 c 0,0.8292 -0.6542,1.4833 -1.4709,1.4833 l -19.7458,0 c -0.8208,0 -1.4792,-0.6541 -1.4792,-1.4833 l 0,-48.77918 c 0,-0.81667 0.6584,-1.48334 1.4792,-1.48334 l 19.7458,0 z" />
    <path
       inkscape:connector-curvature="0"
       id="path1134"
       style="clip-rule:evenodd;fill:#ffffff;fill-rule:nonzero;stroke-miterlimit:2"
       d="m 1260.7205,890.98989 -325.29595,0 c -0.8166,0 -1.4916,0.7 -1.4916,1.5292 l 0,19.8833 c 0,0.8084 0.675,1.4625 1.4916,1.4625 l 325.29595,0 c 0.7959,0 1.4875,-0.6541 1.4875,-1.4625 l 0,-19.8833 c 0,-0.8292 -0.6916,-1.5292 -1.4875,-1.5292 z" />
    <path
       inkscape:connector-curvature="0"
       id="path1136"
       style="clip-rule:evenodd;fill:#ffffff;fill-rule:nonzero;stroke-miterlimit:2"
       d="m 1260.7205,930.51079 -325.29595,0 c -0.8166,0 -1.4916,0.6541 -1.4916,1.4625 l 0,19.94171 c 0,0.8 0.675,1.4708 1.4916,1.4708 l 325.29595,0 c 0.7959,0 1.4875,-0.6708 1.4875,-1.4708 l 0,-19.94171 c 0,-0.8084 -0.6916,-1.4625 -1.4875,-1.4625 z" />
    <path
       inkscape:connector-curvature="0"
       id="path1138"
       style="clip-rule:evenodd;fill:#ffffff;fill-rule:nonzero;stroke-miterlimit:2"
       d="m 1198.8205,764.3065 c -4.0667,-3.17501 -14.9167,-10.60001 -28.1417,-10.60001 -9.4542,0 -18.25,3.725 -26.125,11.10001 -0.5542,0.52916 -0.8667,1.2625 -0.8667,2.04166 l 0,1.77084 c 0,0.87083 0.2875,1.6875 0.925,2.225 0.7083,0.53333 1.4458,0.73333 2.2958,0.53333 0.1834,-0.025 0.4167,-0.0833 0.6084,-0.15833 0.6041,-0.20833 1.1625,-0.56667 1.625,-1.02917 1.7083,-1.14583 6.3666,-2.70833 13.0291,-2.70833 6.8917,0 20.4334,1.84167 33.5209,14.04584 l 0.3,0.26667 c 0.7333,0.75833 1.75,1.17917 2.8292,1.17917 1.025,0 2.0833,-0.42917 2.75,-1.15417 l 0.2625,-0.27083 c 13.1583,-12.22501 26.6792,-14.06668 33.5667,-14.06668 6.7125,0 11.35,1.5625 13.0625,2.70833 0.4666,0.4625 1.0416,0.82917 1.7958,1.10417 0.2917,0.0833 1.1208,0.25417 1.9083,0.0583 1.2,-0.34166 2.0459,-1.425 2.0459,-2.68333 l 0,-1.56667 c 0,-0.74583 -0.3209,-1.49583 -0.8709,-2.0125 -7.9458,-7.57501 -16.8375,-11.40001 -26.4416,-11.40001 -13.1084,0 -23.9042,7.30834 -28.0792,10.61668 z" />
    <path
       inkscape:connector-curvature="0"
       id="path1140"
       style="clip-rule:evenodd;fill:#ffffff;fill-rule:nonzero;stroke-miterlimit:2"
       d="m 1178.633,634.66058 c -0.6917,0.32084 -1.1917,0.95417 -1.4209,1.7125 l -0.3291,1.08334 c -0.2459,0.85833 -0.092,1.75417 0.425,2.44583 0.5083,0.6625 1.2208,1.05834 2.0125,1.09584 0.15,0.0167 0.2958,0.0542 0.4083,0.0167 0.5625,-0.0167 1.0708,-0.1375 1.5708,-0.40001 0.2917,-0.0583 0.8917,-0.22083 1.9709,-0.22083 1.4583,0 14.5708,0.44167 23.2416,15.17918 l 0.1125,0.20833 c 0.4709,0.85417 1.2084,1.44167 2.0834,1.66667 0.25,0.0833 0.7291,0.1625 1.0333,0.1625 0.6,0 1.2083,-0.1625 1.6375,-0.40833 l 0.2167,-0.10417 c 4.7458,-2.37083 9.6583,-3.5875 14.5083,-3.5875 8.2209,0 13.5834,3.35 14.8375,4.75 0.2542,0.47084 0.6459,0.88333 1.0917,1.21249 0.275,0.15834 0.7625,0.40417 1.0583,0.50834 0.1459,0.0375 0.3167,0.0542 0.475,0.0667 0.088,0.0208 0.1959,0.0208 0.2917,0.0208 0.4458,0 0.8708,-0.1125 1.2917,-0.325 0.6666,-0.33334 1.1666,-0.94166 1.3833,-1.66666 l 0.2708,-0.95834 c 0.083,-0.24583 0.1125,-0.5125 0.1125,-0.79166 0,-0.50834 -0.1291,-1 -0.375,-1.39584 -6.3208,-10.97084 -15.4875,-13.26251 -22.0666,-13.26251 -4.9,0 -9.1834,1.26667 -11.7084,2.19584 -2.9833,-4.00834 -10.5125,-12.29168 -21.9375,-12.29168 -4.0167,0 -8.1125,1.02917 -12.1958,3.0875 z" />
    <path
       inkscape:connector-curvature="0"
       id="path1142"
       style="clip-rule:evenodd;fill:#ffffff;fill-rule:nonzero;stroke-miterlimit:2"
       d="m 1109.8996,684.70645 0.088,1.4625 c 0.046,0.91667 0.525,1.70833 1.3041,2.19167 0.6417,0.40416 1.4625,0.54583 2.1834,0.32916 0.1625,-0.0333 0.3416,-0.0958 0.475,-0.14583 0.5625,-0.22917 1.0333,-0.5875 1.4083,-1.0375 1.3833,-1 5.8417,-2.82084 12.4083,-2.82084 6.3167,0 15.9292,1.6875 25.7209,9.73334 l 0.225,0.23334 c 0.7,0.60416 1.5958,0.94583 2.5125,0.94583 l 0.2417,0 c 1.0208,-0.0792 1.9666,-0.55 2.55,-1.22917 l 0.2208,-0.24583 c 10.8417,-11.47501 22.5209,-13.17918 28.5125,-13.17918 4.275,0 7.3042,0.88334 8.4834,1.55 0.4458,0.38334 1,0.69167 1.6916,0.87917 0.1959,0.0458 0.675,0.12917 1.1917,0.075 0.2125,-0.0208 0.475,-0.0958 0.6833,-0.1625 1.1584,-0.40833 1.925,-1.54167 1.8417,-2.79583 l -0.071,-1.275 c -0.05,-0.75834 -0.4042,-1.43751 -0.9792,-1.93334 -6.4708,-5.44584 -13.4542,-8.18751 -20.8083,-8.18751 -11.4417,0 -20.5667,6.75418 -24.3501,10.07085 -3.4583,-2.35834 -11.85,-7.20418 -21.7041,-7.20418 -8.6542,0 -16.4126,3.59584 -23.0792,10.66251 -0.5292,0.5625 -0.7875,1.32084 -0.75,2.08334 z" />
    <path
       inkscape:connector-curvature="0"
       id="path1144"
       style="clip-rule:evenodd;fill:#ffffff;fill-rule:nonzero;stroke-miterlimit:2"
       d="m 945.28295,710.81897 c 0,-19.47918 15.7915,-35.26253 35.2624,-35.26253 0.7625,0 1.5083,0.0667 2.2625,0.10833 1.8542,-24.65001 22.39995,-44.09169 47.52915,-44.09169 26.3542,0 47.7209,21.35835 47.7209,47.7167 0,7.4625 -1.7709,14.50001 -4.825,20.79168 23.8792,5.29167 41.75,26.55835 41.75,52.02086 0,29.45002 -23.8667,53.32088 -53.3125,53.32088 -2.1542,0 -71.16675,-0.41251 -71.16675,-0.41251 -20.8541,-0.004 -37.7582,-16.90001 -37.7582,-37.75419 0,-10.01668 3.925,-19.09168 10.2957,-25.85001 -10.5999,-6.08334 -17.7582,-17.48751 -17.7582,-30.58752 z" />
    <rect
       id="rect1174"
       style="clip-rule:evenodd;fill:#2596d3;fill-rule:nonzero;stroke-miterlimit:2"
       height="669.90881"
       width="669.87964"
       y="365.60202"
       x="21.5282" />
    <path
       inkscape:connector-curvature="0"
       id="path1176"
       style="clip-rule:evenodd;fill:#ffffff;fill-rule:nonzero;stroke-miterlimit:2"
       d="m 440.89915,864.57323 c -12.3083,0 -22.2833,-9.98751 -22.2833,-22.29168 0,-12.30418 9.975,-22.26668 22.2833,-22.26668 12.3376,0 22.3126,9.9625 22.3126,22.26668 0,12.30417 -9.975,22.29168 -22.3126,22.29168 z m 96.7876,-10.38334 c -8.4332,-11.39167 -62.8916,-80.82089 -139.2376,-80.82089 -66.3001,0 -137.2251,60.13337 -137.2251,60.13337 0,0 -26.64165,-54.5292 -81.14165,-59.77087 -0.3209,0 -0.6625,-0.0708 -1.025,-0.0708 l -0.3375,0 c -1.1375,0.0625 -2.2042,1.17083 -2.0834,2.15833 0.1542,0.95417 0.8542,1.99167 0.8542,1.99167 7.025,11.66251 24.9542,44.84587 24.9542,77.99172 0,33.25417 -18.0334,66.52507 -24.9917,78.13337 l -0.475,0.7375 c -0.2,0.35 -0.3417,0.6958 -0.3417,1.15 0,1.15 0.8959,2.0458 2.0167,2.15 l 0.5875,-0.05 c 0.1833,0 0.3792,0 0.5708,-0.054 54.6709,-5.0958 81.41255,-59.7917 81.41255,-59.7917 0,0 70.925,60.1376 137.2251,60.1376 76.346,0 130.8044,-69.4293 139.2376,-80.79593 0.2292,-0.30833 0.4167,-0.57917 0.5792,-0.78333 0.1041,-0.2625 0.1791,-0.51667 0.1791,-0.83334 0,-0.3 -0.075,-0.6 -0.1791,-0.82917 -0.1625,-0.23333 -0.35,-0.5 -0.5792,-0.78333 z" />
    <path
       inkscape:connector-curvature="0"
       id="path1178"
       style="clip-rule:evenodd;fill:#ffffff;fill-rule:nonzero;stroke-miterlimit:2"
       d="m 178.3615,642.86476 c -0.1666,-0.0333 -0.2791,-0.0917 -0.4166,-0.0917 -1.2084,0 -2.1959,0.98333 -2.1959,2.2125 l 0,15.19584 c 0,0.6375 0.2417,1.19583 0.6417,1.575 36.8542,32.02086 71.74999,2.01667 79.82919,-5.9125 0.1667,-0.24166 0.3375,-0.47083 0.5792,-0.61666 0.36246,-0.23334 0.75416,-0.4 1.20416,-0.4 0.5666,0 1.1041,0.22083 1.4833,0.59166 0.029,0.0375 0.075,0.075 0.1083,0.0917 41.6293,39.73336 85.2793,7.55 94.3626,0 l 0.8958,-0.81666 c 0.2542,-0.12084 0.5334,-0.16667 0.8292,-0.16667 0.3083,0 0.6167,0.0458 0.8667,0.16667 l 0.8958,0.81666 c 9.0792,7.55 52.7292,39.73336 94.3585,0 0.01,-0.0167 0.058,-0.0542 0.079,-0.0917 0.3916,-0.37083 0.9041,-0.59166 1.4791,-0.59166 0.4542,0 0.8709,0.16666 1.2084,0.4 0.2541,0.14583 0.4291,0.375 0.6166,0.61666 8.0667,7.92917 42.9292,37.93336 79.8126,5.9125 0.3833,-0.37917 0.6375,-0.9375 0.6375,-1.575 l 0,-15.19584 c 0,-1.22917 -0.9583,-2.2125 -2.1625,-2.2125 -0.1583,0 -0.3042,0.0583 -0.4708,0.0917 -0.3417,0.19583 -0.6959,0.37916 -1.1084,0.575 -11.3333,5.67917 -46.4875,19.18334 -78.4,-11.00835 -0.3042,-0.27916 -0.6167,-0.5625 -0.9292,-0.8875 -0.2917,-0.12083 -0.5708,-0.2 -0.9292,-0.2 -0.2208,0 -0.4625,0.0625 -0.6583,0.10417 -0.475,0.1875 -0.8542,0.49167 -1.1083,0.8625 -9.5168,7.24584 -53.1668,36.80002 -92.0419,0.5375 l -0.5708,-0.55417 c -0.4042,-0.3625 -0.9583,-0.65833 -1.575,-0.65833 -0.575,0 -1.1417,0.29583 -1.5208,0.65833 l -0.6084,0.55417 c -38.8541,36.26252 -82.5542,6.70834 -92.05,-0.5375 -0.2459,-0.37083 -0.6125,-0.675 -1.0792,-0.8625 -0.225,-0.0417 -0.45,-0.10417 -0.6958,-0.10417 -0.3084,0 -0.6209,0.0792 -0.9167,0.2 -0.2833,0.325 -0.6208,0.60834 -0.9375,0.8875 -31.90415,30.19169 -67.04585,16.68752 -78.38755,11.00835 -0.4,-0.19584 -0.7791,-0.37917 -1.125,-0.575 z" />
    <path
       inkscape:connector-curvature="0"
       id="path1180"
       style="clip-rule:evenodd;fill:#ffffff;fill-rule:nonzero;stroke-miterlimit:2"
       d="m 256.21989,711.13563 c 0.175,-0.25 0.3375,-0.42916 0.5834,-0.60416 0.35826,-0.225 0.75406,-0.4125 1.19996,-0.4125 0.5666,0 1.1083,0.23333 1.4916,0.60833 0.021,0.0375 0.067,0.0708 0.1,0.0958 41.6168,39.67502 85.2793,7.51667 94.3668,0 l 0.8916,-0.85 c 0.2542,-0.1 0.5334,-0.1375 0.825,-0.1375 0.3167,0 0.6167,0.0375 0.8792,0.1375 l 0.8875,0.85 c 9.0792,7.51667 52.725,39.67502 94.3585,0 0.01,-0.025 0.046,-0.0583 0.079,-0.0958 0.3916,-0.375 0.9,-0.60833 1.475,-0.60833 0.4625,0 0.875,0.1875 1.2083,0.4125 0.2625,0.175 0.4333,0.35416 0.6208,0.60416 8.0625,7.93751 42.9251,37.95002 79.8126,5.90001 0.3875,-0.39583 0.6458,-0.90833 0.6458,-1.54167 l 0,-15.23751 c 0,-1.2125 -0.975,-2.17917 -2.1708,-2.17917 -0.1583,0 -0.3042,0.0583 -0.4708,0.0917 -0.3417,0.1625 -0.7,0.35417 -1.1084,0.55417 -11.325,5.67917 -46.4958,19.15418 -78.4,-11.00001 -0.3,-0.28333 -0.6125,-0.56667 -0.925,-0.875 -0.2959,-0.16667 -0.575,-0.21667 -0.9334,-0.21667 -0.2208,0 -0.4583,0.05 -0.6583,0.16667 -0.4792,0.11666 -0.8542,0.42083 -1.1083,0.81667 -9.5085,7.2375 -53.1668,36.80002 -92.046,0.53333 l -0.5709,-0.57083 c -0.4,-0.38751 -0.9583,-0.60834 -1.575,-0.60834 -0.5708,0 -1.1375,0.22083 -1.5208,0.60834 l -0.6042,0.57083 c -38.8541,36.26669 -82.5542,6.70417 -92.05,-0.53333 -0.2459,-0.39584 -0.6167,-0.70001 -1.075,-0.81667 -0.225,-0.11667 -0.4625,-0.16667 -0.7,-0.16667 -0.3125,0 -0.6167,0.05 -0.9084,0.21667 -0.3,0.30833 -0.6208,0.59167 -0.95,0.875 -31.90415,30.15419 -67.04165,16.67918 -78.38335,11.00001 -0.4,-0.2 -0.775,-0.39167 -1.1208,-0.55417 -0.1708,-0.0333 -0.2792,-0.0917 -0.4167,-0.0917 -1.2125,0 -2.2,0.96667 -2.2,2.17917 l 0,15.23751 c 0,0.63334 0.2417,1.14584 0.6375,1.54167 36.8584,32.05001 71.75839,2.0375 79.83339,-5.90001 z" />
    <path
       inkscape:connector-curvature="0"
       id="path1210"
       style="clip-rule:evenodd;fill:#ffffff;fill-rule:nonzero;stroke-miterlimit:2"
       d="m 110.22821,421.04793 0,135.10427 -22.716704,0 0,-103.41675 -0.2,0 -15.93329,16.53335 -0.2083,0 0,-23.71252 20.92079,-24.50835 18.137504,0 z" />
    <path
       inkscape:connector-curvature="0"
       id="path1212"
       style="clip-rule:evenodd;fill:#ffffff;fill-rule:nonzero;stroke-miterlimit:2"
       d="m 137.74081,516.51049 20.3374,-55.62086 0.1958,0 0,55.62086 -20.5332,0 z m 41.66659,39.67087 0,-21.92502 9.175,0 0,-17.74585 -9.175,0 0,-95.49173 -22.32509,0 -39.2749,99.27924 0,13.95834 40.0708,0 0,21.92502 21.52919,0 z" />
  </g>
</svg>
