<?xml version="1.0" encoding="UTF-8" standalone="no"?>
<!-- Created with Inkscape (http://www.inkscape.org/) -->

<svg
   xmlns:dc="http://purl.org/dc/elements/1.1/"
   xmlns:cc="http://creativecommons.org/ns#"
   xmlns:rdf="http://www.w3.org/1999/02/22-rdf-syntax-ns#"
   xmlns:svg="http://www.w3.org/2000/svg"
   xmlns="http://www.w3.org/2000/svg"
   xmlns:sodipodi="http://sodipodi.sourceforge.net/DTD/sodipodi-0.dtd"
   xmlns:inkscape="http://www.inkscape.org/namespaces/inkscape"
   width="200mm"
   height="200mm"
   viewBox="0 0 708.6614 708.6614"
   id="svg4174"
   version="1.1"
   inkscape:version="0.91 r13725"
   sodipodi:docname="objectif 1.svg">
  <defs
     id="defs4176" />
  <sodipodi:namedview
     id="base"
     pagecolor="#ffffff"
     bordercolor="#666666"
     borderopacity="1.0"
     inkscape:pageopacity="0.0"
     inkscape:pageshadow="2"
     inkscape:zoom="0.35"
     inkscape:cx="92.435686"
     inkscape:cy="520"
     inkscape:document-units="px"
     inkscape:current-layer="layer1"
     showgrid="false"
     inkscape:window-width="1366"
     inkscape:window-height="745"
     inkscape:window-x="-8"
     inkscape:window-y="-8"
     inkscape:window-maximized="1" />
  <metadata
     id="metadata4179">
    <rdf:RDF>
      <cc:Work
         rdf:about="">
        <dc:format>image/svg+xml</dc:format>
        <dc:type
           rdf:resource="http://purl.org/dc/dcmitype/StillImage" />
        <dc:title></dc:title>
      </cc:Work>
    </rdf:RDF>
  </metadata>
  <g
     inkscape:label="Calque 1"
     inkscape:groupmode="layer"
     id="layer1"
     transform="translate(0,-343.70075)">
    <g
       transform="translate(-55.393079,311.13603)"
       style="clip-rule:evenodd;fill-rule:evenodd;stroke-miterlimit:2"
       id="g4275">
      <rect
         x="74.005608"
         y="54.113945"
         width="671.34637"
         height="671.36725"
         style="fill:#de1330;fill-rule:nonzero"
         id="rect856" />
      <path
         d="m 167.74316,142.40547 0.1958,0 0,103.6251 22.7542,0 0,-135.3668 -18.1667,0 -20.9625,24.5584 0,23.75 0.2,0 15.9792,-16.5667 z"
         style="fill:#ffffff;fill-rule:nonzero"
         id="path858"
         inkscape:connector-curvature="0" />
      <path
         d="m 591.03107,374.41397 c 0,-10.275 8.3292,-18.5917 18.5958,-18.5917 10.2542,0 18.5584,8.3167 18.5584,18.5917 0,10.2625 -8.3042,18.5875 -18.5584,18.5875 -10.2666,0 -18.5958,-8.325 -18.5958,-18.5875 z"
         style="fill:#ffffff;fill-rule:nonzero"
         id="path860"
         inkscape:connector-curvature="0" />
      <path
         d="m 631.32277,400.16817 c 12.6125,1.1417 22.4958,11.75 22.4958,24.6834 l 0,51.5208 c 0,3.9625 -3.2291,7.2002 -7.1958,7.2002 -3.9958,0 -7.2083,-3.2377 -7.2083,-7.2002 l 0,-44.25 c 0,-1.6583 -0.4834,-3.9042 -3.5167,-3.9042 -2.1,0 -2.5334,2.2209 -2.6125,3.6375 l 0,132.62518 c 0,5.7001 -4.6167,10.3542 -10.3417,10.3542 -5.7333,0 -10.3792,-4.6541 -10.3792,-10.3542 l 0,-76.42498 c -0.029,-0.8458 -0.3083,-3.0375 -2.9375,-3.0375 l -0.013,0 c -2.6333,0 -2.9583,2.1917 -2.9833,3.0375 l 0,76.42498 c 0,5.7001 -4.6167,10.3542 -10.3458,10.3542 -5.7376,0 -10.3542,-4.6541 -10.3542,-10.3542 l 0,-132.62518 c -0.071,-1.4166 -0.5209,-3.6375 -2.6042,-3.6375 -3.0542,0 -3.5125,2.2459 -3.5125,3.9042 l 0,44.25 c 0,3.9625 -3.2292,7.2002 -7.2083,7.2002 -3.9875,0 -7.1959,-3.2377 -7.1959,-7.2002 l 0,-51.5208 c 0,-12.9334 9.8917,-23.5417 22.5209,-24.6834 0.4125,-0.05 0.8625,-0.1125 1.3583,-0.1125 l 40.6209,0 c 0.5333,0 0.9708,0.062 1.4125,0.1125 z"
         style="fill:#ffffff;fill-rule:nonzero"
         id="path862"
         inkscape:connector-curvature="0" />
      <path
         d="m 480.51006,384.17647 c 0,-9.7208 -7.8625,-17.6208 -17.5833,-17.6208 -9.7292,0 -17.6084,7.9 -17.6084,17.6208 0,9.725 7.8792,17.6001 17.6084,17.6001 9.7208,0 17.5833,-7.8751 17.5833,-17.6001 z"
         style="fill:#ffffff;fill-rule:nonzero"
         id="path864"
         inkscape:connector-curvature="0" />
      <path
         d="m 427.46416,424.04317 -14.6333,47.6251 c 0,0 -2.6083,8.7333 4.8,10.9125 7.3708,2.1793 9.6083,-6.3417 9.6083,-6.3417 l 11.7959,-39.75 c 0,0 0.6375,-3.0584 2.9375,-2.3959 2.3042,0.6584 1.4417,3.9292 1.4417,3.9292 l -20.5376,74.49178 19.0959,0 0,53.3542 c 0,5.0459 4.1083,9.1584 9.1792,9.1584 5.0625,0 9.1541,-4.1125 9.1541,-9.1584 l 0,-53.3542 5.2084,0 0,53.3542 c 0,5.0459 4.0916,9.1584 9.1666,9.1584 5.0792,0 9.1834,-4.1125 9.1834,-9.1584 l 0,-53.3542 19.08751,0 -20.51671,-74.49178 c 0,0 -0.8666,-3.2708 1.4292,-3.9292 2.3,-0.6625 2.9417,2.3959 2.9417,2.3959 l 11.79581,39.75 c 0,0 2.2417,8.521 9.5959,6.3417 7.4292,-2.1792 4.8083,-10.9125 4.8083,-10.9125 l -14.6333,-47.6251 c 0,0 -5.225,-13.7666 -16.80421,-13.7666 l -37.2917,0 c -11.5792,0 -16.8126,13.7666 -16.8126,13.7666 z"
         style="fill:#ffffff;fill-rule:nonzero"
         id="path866"
         inkscape:connector-curvature="0" />
      <path
         d="m 375.10166,384.17647 c 0,-9.7208 -7.875,-17.6208 -17.5958,-17.6208 -9.7251,0 -17.5959,7.9 -17.5959,17.6208 0,9.725 7.8708,17.6001 17.5959,17.6001 9.7208,0 17.5958,-7.8751 17.5958,-17.6001 z"
         style="fill:#ffffff;fill-rule:nonzero"
         id="path868"
         inkscape:connector-curvature="0" />
      <path
         d="m 322.04326,424.04317 -14.6208,47.6251 c 0,0 -2.6167,8.7333 4.7917,10.9125 7.3708,2.1793 9.6041,-6.3417 9.6041,-6.3417 l 11.8,-39.75 c 0,0 0.6375,-3.0584 2.9375,-2.3959 2.3084,0.6584 1.4334,3.9292 1.4334,3.9292 l -20.525,74.49178 19.0916,0 0,53.3542 c 0,5.0459 4.1209,9.1584 9.1792,9.1584 5.0667,0 9.1625,-4.1125 9.1625,-9.1584 l 0,-53.3542 5.2084,0 0,53.3542 c 0,5.0459 4.0791,9.1584 9.1708,9.1584 5.075,0 9.1708,-4.1125 9.1708,-9.1584 l 0,-53.3542 19.0959,0 -20.5167,-74.49178 c 0,0 -0.8708,-3.2708 1.4208,-3.9292 2.2959,-0.6625 2.9459,2.3959 2.9459,2.3959 l 11.7833,39.75 c 0,0 2.2459,8.521 9.6084,6.3417 7.4166,-2.1792 4.8,-10.9125 4.8,-10.9125 l -14.6334,-47.6251 c 0,0 -5.2125,-13.7666 -16.7958,-13.7666 l -37.2917,0 c -11.5709,0 -16.8209,13.7666 -16.8209,13.7666 z"
         style="fill:#ffffff;fill-rule:nonzero"
         id="path870"
         inkscape:connector-curvature="0" />
      <path
         d="m 539.61847,482.67657 c 8.1042,0 14.6417,-6.5583 14.6417,-14.6625 0,-8.1 -6.5375,-14.6375 -14.6417,-14.6375 -8.1041,0 -14.65,6.5375 -14.65,14.6375 0,8.1042 6.5459,14.6625 14.65,14.6625 z"
         style="fill:#ffffff;fill-rule:nonzero"
         id="path872"
         inkscape:connector-curvature="0" />
      <path
         d="m 504.49347,528.18505 c -0.7167,1.7125 -1.3042,5.3458 2.1375,6.9333 4.0292,1.85 6.275,-2.0458 6.275,-2.0458 l 7.9625,-25.3959 c 0,0 1.3875,-1.7 1.3875,0.058 l 0,59.7834 0.033,0 c 0,4.1625 3.35,7.5166 7.5167,7.5166 4.1542,0 7.5125,-3.3541 7.5125,-7.5166 l 0,-23.5917 c 0,0 -0.4375,-3.3375 2.2542,-3.3375 2.6875,0 2.275,3.3375 2.275,3.3375 l 0,23.5917 c 0,4.1625 3.3708,7.5166 7.525,7.5166 4.1458,0 7.5333,-3.3541 7.5333,-7.5166 l 0,-59.7834 c 0,-1.7584 0.9334,-0.5042 0.9334,-0.5042 l 6.2416,17.3875 c 0,0 2.7042,7.775 3.5417,8.1167 2.8167,1.1833 6.0667,-0.1625 7.2583,-3.0042 0.7792,-1.8541 0.4834,-3.8416 -0.5916,-5.3458 l 0.054,-0.054 c -0.1792,-0.5625 -9.3334,-23 -10.4125,-26.15 -3.3,-9.6458 -9.3125,-9.5625 -15.1042,-9.7208 -5.7917,-0.1375 -9.2542,0 -9.2542,0 0,0 -3.7,-0.15 -11.3458,0.075 -7.6334,0.2416 -10.0417,4.1541 -18.4667,25.8208 -1.2,3.1208 -5.2667,13.2125 -5.3208,13.8167 l 0.054,0.013 z"
         style="fill:#ffffff;fill-rule:nonzero"
         id="path874"
         inkscape:connector-curvature="0" />
      <path
         d="m 217.92236,374.41397 c 0,-10.275 -8.3375,-18.5917 -18.6,-18.5917 -10.2542,0 -18.5625,8.3167 -18.5625,18.5917 0,10.2625 8.3083,18.5875 18.5625,18.5875 10.2625,0 18.6,-8.325 18.6,-18.5875 z"
         style="fill:#ffffff;fill-rule:nonzero"
         id="path876"
         inkscape:connector-curvature="0" />
      <path
         d="m 177.62236,400.16817 c -12.6084,1.1417 -22.5042,11.75 -22.5042,24.6834 l 0,51.5208 c 0,3.9625 3.2333,7.2002 7.2167,7.2002 3.9833,0 7.2041,-3.2377 7.2041,-7.2002 l 0,-44.25 c 0,-1.6583 0.4792,-3.9042 3.5167,-3.9042 2.0917,0 2.5292,2.2209 2.6208,3.6375 l 0,132.62518 c 0,5.7001 4.6042,10.3542 10.3375,10.3542 5.7251,0 10.3542,-4.6541 10.3542,-10.3542 l 0,-76.42498 c 0.042,-0.8458 0.3209,-3.0375 2.9542,-3.0375 l 0.01,0 c 2.6375,0 2.9625,2.1917 2.9833,3.0375 l 0,76.42498 c 0,5.7001 4.6209,10.3542 10.3459,10.3542 5.7375,0 10.35,-4.6541 10.35,-10.3542 l 0,-132.62518 c 0.062,-1.4166 0.5333,-3.6375 2.6125,-3.6375 3.0542,0 3.5083,2.2459 3.5083,3.9042 l 0,44.25 c 0,3.9625 3.2292,7.2002 7.2084,7.2002 3.9791,0 7.2,-3.2377 7.2,-7.2002 l 0,-51.5208 c 0,-12.9334 -9.8875,-23.5417 -22.5167,-24.6834 -0.4209,-0.05 -0.8625,-0.1125 -1.3667,-0.1125 l -40.6167,0 c -0.5333,0 -0.9792,0.062 -1.4167,0.1125 z"
         style="fill:#ffffff;fill-rule:nonzero"
         id="path878"
         inkscape:connector-curvature="0" />
      <path
         d="m 161.41396,483.86007 -16.5041,87.48338"
         style="fill:none;stroke:#ffffff;stroke-width:14.37501144px;stroke-linecap:round"
         id="path880"
         inkscape:connector-curvature="0" />
      <path
         d="m 252.36406,475.00157 c -0.9583,-1.5 -2.6167,-2.5042 -4.5208,-2.5042 -2.9417,0 -5.3375,2.3959 -5.3375,5.325 0,0.8542 0.5208,2.3417 0.5208,2.3417 l 14.7708,26.72508 c 0,0 0.9042,1.8417 0.9042,3.525 l 0,57.3918 0.025,0 c 0,4.0041 3.2333,7.2208 7.225,7.2208 3.9875,0 7.1959,-3.2167 7.1959,-7.2208 l 0,-22.6459 c 0,0 -0.4042,-3.2083 2.1833,-3.2083 2.5792,0 2.175,3.2083 2.175,3.2083 l 0,22.6459 c 0,4.0041 3.2417,7.2208 7.2292,7.2208 3.9833,0 7.2291,-3.2167 7.2291,-7.2208 l 0,-57.3918 c 0,-1.6833 0.8959,-3.525 0.8959,-3.525 l 13.65,-24.67088 c 0,0 1.6708,-3.5417 1.6708,-4.3959 0,-2.9291 -2.3917,-5.325 -5.3417,-5.325 -1.9333,0 -3.5833,1.0042 -4.5208,2.5042 l -0.058,-0.029 c -0.4292,0.3667 -7.2625,12.5418 -9.5208,14.80018 -2.3875,2.4041 -4.5209,2.1375 -4.5209,2.1375 l -17.7542,0 c 0,0 -2.15,0.2666 -4.525,-2.1375 -2.2875,-2.25838 -9.0958,-14.43348 -9.5291,-14.80018 l -0.046,0.029 z"
         style="fill:#ffffff;fill-rule:nonzero"
         id="path882"
         inkscape:connector-curvature="0" />
      <path
         d="m 275.33076,482.67657 c 8.1,0 14.6417,-6.5583 14.6417,-14.6625 0,-8.1 -6.5417,-14.6375 -14.6417,-14.6375 -8.1,0 -14.6417,6.5375 -14.6417,14.6375 0,8.1042 6.5417,14.6625 14.6417,14.6625 z"
         style="fill:#ffffff;fill-rule:nonzero"
         id="path884"
         inkscape:connector-curvature="0" />
      <path
         d="m 275.35576,503.23915 16.5542,12.075 7.8708,28.9709 -48.8709,0 7.8875,-28.9709 16.5584,-12.075 z"
         style="fill:#ffffff;fill-rule:nonzero"
         id="path886"
         inkscape:connector-curvature="0" />
    </g>
  </g>
</svg>
