<?xml version="1.0" encoding="UTF-8" standalone="no"?>
<!-- Created with Inkscape (http://www.inkscape.org/) -->

<svg
   xmlns:dc="http://purl.org/dc/elements/1.1/"
   xmlns:cc="http://creativecommons.org/ns#"
   xmlns:rdf="http://www.w3.org/1999/02/22-rdf-syntax-ns#"
   xmlns:svg="http://www.w3.org/2000/svg"
   xmlns="http://www.w3.org/2000/svg"
   xmlns:sodipodi="http://sodipodi.sourceforge.net/DTD/sodipodi-0.dtd"
   xmlns:inkscape="http://www.inkscape.org/namespaces/inkscape"
   width="200mm"
   height="200mm"
   viewBox="0 0 708.6614 708.6614"
   id="svg4174"
   version="1.1"
   inkscape:version="0.91 r13725"
   sodipodi:docname="objectif 2.svg">
  <defs
     id="defs4176" />
  <sodipodi:namedview
     id="base"
     pagecolor="#ffffff"
     bordercolor="#666666"
     borderopacity="1.0"
     inkscape:pageopacity="0.0"
     inkscape:pageshadow="2"
     inkscape:zoom="0.35"
     inkscape:cx="92.435686"
     inkscape:cy="520"
     inkscape:document-units="px"
     inkscape:current-layer="layer1"
     showgrid="false"
     inkscape:window-width="1366"
     inkscape:window-height="745"
     inkscape:window-x="-8"
     inkscape:window-y="-8"
     inkscape:window-maximized="1" />
  <metadata
     id="metadata4179">
    <rdf:RDF>
      <cc:Work
         rdf:about="">
        <dc:format>image/svg+xml</dc:format>
        <dc:type
           rdf:resource="http://purl.org/dc/dcmitype/StillImage" />
        <dc:title></dc:title>
      </cc:Work>
    </rdf:RDF>
  </metadata>
  <g
     inkscape:label="Calque 1"
     inkscape:groupmode="layer"
     id="layer1"
     transform="translate(0,-343.70075)">
    <rect
       id="rect1006"
       style="clip-rule:evenodd;fill:#e1a929;fill-rule:nonzero;stroke-miterlimit:2"
       height="671.36719"
       width="671.34631"
       y="365.24994"
       x="21.469648" />
    <path
       inkscape:connector-curvature="0"
       id="path1008"
       style="clip-rule:evenodd;fill:#ffffff;fill-rule:nonzero;stroke-miterlimit:2"
       d="m 147.02832,538.30406 -37.3375,0 0,-6.3875 c 0,-10.575 3.7958,-14.575 9.5833,-20.7625 l 14.5709,-15.3709 c 11.775,-12.57499 14.37499,-20.56249 14.37499,-34.14579 l 0,-13.1751 c 0,-19.35829 -9.38749,-28.54999 -29.74999,-28.54999 -19.9584,0 -30.1417,10.5834 -30.1417,29.55419 l 0,16.3625 20.7625,0 0,-16.9708 c 0,-8.175 3.9917,-10.5792 8.7917,-10.5792 4.3791,0 8.1791,1.8 8.1791,10.1833 l 0,11.1792 c 0,11.1875 -1.0041,15.5792 -8.3833,23.3625 l -12.7875,13.57499 c -12.3667,13.1834 -16.9625,21.9667 -16.9625,35.3376 l 0,24.9583 59.1,0 0,-18.5708 z" />
    <path
       inkscape:connector-curvature="0"
       id="path1010"
       style="clip-rule:evenodd;fill:#ffffff;fill-rule:nonzero;stroke-miterlimit:2"
       d="m 289.25333,935.71687 0,9.4417 c -0.01,0.062 -0.033,0.1416 -0.033,0.2125 0,0.079 0.025,0.1541 0.033,0.2208 0.096,2.3375 2.0042,4.2 4.3542,4.2417 0.029,0 0.054,0.017 0.088,0.017 0.033,0 0.075,-0.017 0.1083,-0.017 l 110.74178,0 c 0.025,0 0.058,0.017 0.092,0.017 0.033,0 0.071,-0.017 0.1,-0.017 2.4166,-0.042 4.35,-2.0125 4.3666,-4.4334 0,-0.01 0.017,-0.017 0.017,-0.029 0,0 -0.017,-0.017 -0.017,-0.033 l 0,-10.6833 c 62.3419,-20.4375 109.04189,-70.9626 119.31269,-132.5376 0.025,-0.1333 0.042,-0.2542 0.062,-0.3667 0.033,-0.2166 0.058,-0.4125 0.058,-0.6208 0,-2.4749 -1.9917,-4.4749 -4.475,-4.4749 l -352.95039,0 c -2.4917,0 -4.4875,2 -4.4875,4.4749 l 0.2333,2.0125 c 10.7834,62.1625 58.77093,112.9709 122.39592,132.5751 z" />
    <path
       inkscape:connector-curvature="0"
       id="path1012"
       style="clip-rule:evenodd;fill:#ffffff;fill-rule:nonzero;stroke-miterlimit:2"
       d="m 409.00341,646.01247 c -1.4583,2.0708 -35.55419,51.1625 0.7584,90.8584 16.6583,18.225 15.2125,34.2959 10.4541,45.1542 l 23.296,0 c 4.7208,-16.0292 2.7708,-36.1334 -16.1418,-56.8 -26.7583,-29.2501 0.3459,-68.7918 0.7542,-69.4001 3.1917,-4.5125 1.4792,-10.325 -3.7833,-13.0375 -5.2834,-2.7 -12.1334,-1.2542 -15.3376,3.225 z" />
    <path
       inkscape:connector-curvature="0"
       id="path1014"
       style="clip-rule:evenodd;fill:#ffffff;fill-rule:nonzero;stroke-miterlimit:2"
       d="m 350.00762,782.02507 23.3,0 c 4.7083,-16.0333 2.7583,-36.1334 -16.1584,-56.8 -26.7625,-29.2542 0.3167,-68.7751 0.7417,-69.4209 3.1792,-4.4917 1.5,-10.2959 -3.7875,-13.0167 -5.2667,-2.6917 -12.125,-1.2583 -15.3209,3.225 -1.4583,2.0625 -35.59159,51.1625 0.7626,90.8584 16.6541,18.225 15.2,34.3042 10.4625,45.1542 z" />
    <path
       inkscape:connector-curvature="0"
       id="path1016"
       style="clip-rule:evenodd;fill:#ffffff;fill-rule:nonzero;stroke-miterlimit:2"
       d="m 268.55753,646.01247 c -1.4792,2.0708 -35.575,51.1625 0.7458,90.8584 16.6625,18.2292 15.225,34.3042 10.4792,45.1542 l 23.2959,0 c 4.7125,-16.0208 2.7625,-36.1292 -16.1626,-56.8 -26.7708,-29.2501 0.3334,-68.7918 0.7625,-69.4168 3.1625,-4.4958 1.475,-10.3083 -3.8041,-13.0208 -5.2667,-2.7125 -12.125,-1.2625 -15.3167,3.225 z" />
  </g>
</svg>
