<?xml version="1.0" encoding="UTF-8" standalone="no"?>
<!-- Created with Inkscape (http://www.inkscape.org/) -->

<svg
   xmlns:dc="http://purl.org/dc/elements/1.1/"
   xmlns:cc="http://creativecommons.org/ns#"
   xmlns:rdf="http://www.w3.org/1999/02/22-rdf-syntax-ns#"
   xmlns:svg="http://www.w3.org/2000/svg"
   xmlns="http://www.w3.org/2000/svg"
   xmlns:sodipodi="http://sodipodi.sourceforge.net/DTD/sodipodi-0.dtd"
   xmlns:inkscape="http://www.inkscape.org/namespaces/inkscape"
   width="200mm"
   height="200mm"
   viewBox="0 0 708.6614 708.6614"
   id="svg4174"
   version="1.1"
   inkscape:version="0.91 r13725"
   sodipodi:docname="objectif 6.svg">
  <defs
     id="defs4176" />
  <sodipodi:namedview
     id="base"
     pagecolor="#ffffff"
     bordercolor="#666666"
     borderopacity="1.0"
     inkscape:pageopacity="0.0"
     inkscape:pageshadow="2"
     inkscape:zoom="0.35"
     inkscape:cx="92.435686"
     inkscape:cy="520"
     inkscape:document-units="px"
     inkscape:current-layer="layer1"
     showgrid="false"
     inkscape:window-width="1366"
     inkscape:window-height="745"
     inkscape:window-x="-8"
     inkscape:window-y="-8"
     inkscape:window-maximized="1" />
  <metadata
     id="metadata4179">
    <rdf:RDF>
      <cc:Work
         rdf:about="">
        <dc:format>image/svg+xml</dc:format>
        <dc:type
           rdf:resource="http://purl.org/dc/dcmitype/StillImage" />
        <dc:title></dc:title>
      </cc:Work>
    </rdf:RDF>
  </metadata>
  <g
     inkscape:label="Calque 1"
     inkscape:groupmode="layer"
     id="layer1"
     transform="translate(0,-343.70075)">
    <rect
       id="rect106"
       style="clip-rule:evenodd;fill:#4c9b34;fill-rule:nonzero;stroke-miterlimit:2"
       height="670.32965"
       width="670.31299"
       y="365.24997"
       x="-2211.4106" />
    <path
       inkscape:connector-curvature="0"
       id="path108"
       style="clip-rule:evenodd;fill:#ffffff;fill-rule:nonzero;stroke-miterlimit:2"
       d="m -2115.7564,558.39987 c 22.9334,0 32.8917,-12.1625 32.8917,-30.8958 l 0,-19.9334 c 0,-12.3583 -5.3791,-20.33749 -16.7375,-22.92499 9.3667,-2.9875 15.5459,-10.5667 15.5459,-21.925 l 0,-11.7625 c 0,-19.1375 -9.1709,-30.9 -30.1001,-30.9 -23.5291,0 -31.7042,13.95 -31.7042,33.8875 l 0,11.9583 20.7334,0 0,-13.7542 c 0,-8.3708 2.6,-13.15 9.7708,-13.15 7.1834,0 9.7625,4.7792 9.7625,12.1542 l 0,14.5542 c 0,7.1792 -4.7791,10.9583 -12.1541,10.9583 l -8.575,0 0,17.35419 9.5708,0 c 7.975,0 11.1583,3.7792 11.1583,10.9584 l 0,22.3291 c 0,7.1667 -3.1833,12.1625 -10.1625,12.1625 -7.7708,0 -10.5666,-5.1916 -10.5666,-13.1625 l 0,-19.3333 -20.7209,0 0,17.7375 c 0,20.5375 8.1667,33.6875 31.2875,33.6875 z" />
    <path
       inkscape:connector-curvature="0"
       id="path110"
       style="clip-rule:evenodd;fill:#ffffff;fill-rule:nonzero;stroke-miterlimit:2"
       d="m -1651.1062,784.18333 c 0,-18.8583 -12.1042,-34.15 -30.4292,-34.15 -9.1708,0 -20.225,10.0375 -26.2292,16.2084 -6.0041,-6.1792 -16.3292,-16.2251 -25.4958,-16.2251 -18.3334,0 -31.1792,15.2917 -31.1792,34.1584 0,9.4333 3.7125,17.971 9.725,24.1543 l 46.9875,47.0792 46.9251,-47.025 -0.037,-0.033 c 6.0166,-6.1833 9.7333,-14.7293 9.7333,-24.1668 z" />
    <path
       inkscape:connector-curvature="0"
       id="path112"
       style="clip-rule:evenodd;fill:#ffffff;fill-rule:nonzero;stroke-miterlimit:2"
       d="m -1851.1646,932.26273 c -0.1542,0 -0.3167,0 -0.4792,-0.017 -3.5708,-0.2167 -6.5208,-2.8667 -7.1291,-6.3959 l -23.8625,-139.0127 -36.1584,67.0377 c -1.5833,2.9375 -4.8917,4.5166 -8.1417,3.9291 -3.2792,-0.5791 -5.8083,-3.2041 -6.2875,-6.5 l -15.35,-107.2793 -28.0792,63.0751 c -1.2417,2.7834 -4,4.5792 -7.05,4.5792 l -109.1458,0 c -4.2667,0 -7.7167,-3.4583 -7.7167,-7.7167 0,-4.2625 3.45,-7.7166 7.7167,-7.7166 l 104.1333,0 36.9375,-82.9669 c 1.4,-3.1417 4.7042,-4.975 8.1167,-4.5042 3.4042,0.475 6.0833,3.1459 6.575,6.5501 l 15.8209,110.6168 35.6583,-66.1085 c 1.5625,-2.9041 4.7875,-4.4875 8.0417,-3.9541 3.2458,0.5333 5.7958,3.0666 6.3542,6.3125 l 22.1041,128.746 80.5583,-267.5962 c 0.9209,-3.0458 3.6125,-5.2208 6.7792,-5.4666 3.1792,-0.2375 6.1792,1.4708 7.5584,4.3375 l 42.3875,87.875 c 1.85,3.8417 0.2417,8.4501 -3.5917,10.3001 -3.8375,1.8541 -8.4583,0.2458 -10.3083,-3.5959 l -33.7667,-70.0084 -84.2916,279.9837 c -0.9834,3.2792 -4.0001,5.4958 -7.3834,5.4958 z" />
    <rect
       id="rect146"
       style="clip-rule:evenodd;fill:#c31723;fill-rule:nonzero;stroke-miterlimit:2"
       height="670.36713"
       width="670.34631"
       y="365.24997"
       x="-1470.3309" />
    <path
       inkscape:connector-curvature="0"
       id="path148"
       style="clip-rule:evenodd;fill:#ffffff;fill-rule:nonzero;stroke-miterlimit:2"
       d="m -1385.4561,516.92487 20.3334,-55.62089 0.2041,0 0,55.62089 -20.5375,0 z m 20.1375,39.6625 21.5292,0 0,-21.925 9.175,0 0,-17.7375 -9.175,0 0,-95.50009 -22.3333,0 -39.2667,99.28339 0,13.9542 40.0708,0 0,21.925 z" />
    <path
       inkscape:connector-curvature="0"
       id="path150"
       style="clip-rule:evenodd;fill:#ffffff;fill-rule:nonzero;stroke-miterlimit:2"
       d="m -1173.0767,724.69163 -120.2293,-69.4209 0,224.5753 120.2293,36.275 0,-191.4294 z" />
    <path
       inkscape:connector-curvature="0"
       id="path152"
       style="clip-rule:evenodd;fill:#ffffff;fill-rule:nonzero;stroke-miterlimit:2"
       d="m -1159.8559,725.15003 0,191.0502 121.0084,-36.3833 0,-224.5378 -121.0084,69.8709 z" />
    <path
       inkscape:connector-curvature="0"
       id="path154"
       style="clip-rule:evenodd;fill:#ffffff;fill-rule:nonzero;stroke-miterlimit:2"
       d="m -944.47241,649.58743 c 0,-7.8625 -6.3708,-14.2292 -14.2125,-14.2292 -7.8708,0 -14.2292,6.3667 -14.2292,14.2292 l 0,15.3333 28.4417,0 0,-15.3333 z" />
    <path
       inkscape:connector-curvature="0"
       id="path156"
       style="clip-rule:evenodd;fill:#ffffff;fill-rule:nonzero;stroke-miterlimit:2"
       d="m -969.38491,875.86273 -3.5292,0 14.2292,49.7167 14.2042,-49.7167 -3.5292,0 3.5292,0 0,-199.8044 -28.4417,0 0,199.8044 3.5375,0 z" />
    <path
       inkscape:connector-curvature="0"
       id="path158"
       style="clip-rule:evenodd;fill:#ffffff;fill-rule:nonzero;stroke-miterlimit:2"
       d="m -1013.0266,664.91663 -12.8875,-10.1834 0,231.2003 -133.5835,43.1667 -13.5791,0 -132.996,-37.15 0,-237.217 -12.8958,10.1834 0,236.0753 145.2793,40.2167 14.7916,0 134.0335,-42.5542 11.8375,-3.4834 0,-230.2544 z" />
    <rect
       id="rect654"
       style="clip-rule:evenodd;fill:#e5341d;fill-rule:nonzero;stroke-miterlimit:2"
       height="670.36713"
       width="670.33795"
       y="365.24997"
       x="-727.29285" />
    <path
       inkscape:connector-curvature="0"
       id="path656"
       style="clip-rule:evenodd;fill:#ffffff;fill-rule:nonzero;stroke-miterlimit:2"
       d="m -620.40561,464.22068 c -8.9708,0 -15.55,3.1875 -19.1375,9.3667 l -0.2042,0 0,-33.6876 39.0792,0 0,-18.5416 -59.8042,0 0,76.16249 20.725,0 0,-3.0042 c 0,-7.97499 3.5959,-12.35829 9.9667,-12.35829 6.9792,0 9.7792,4.7917 9.7792,12.17079 l 0,32.6917 c 0,7.1792 -2.5958,12.1584 -9.5792,12.1584 -7.775,0 -10.5583,-5.1834 -10.5583,-13.1542 l 0,-16.9458 -20.7459,0 0,15.35 c 0,20.5292 8.1792,33.6917 31.3042,33.6917 22.9292,0 32.2917,-12.1584 32.2917,-30.9001 l 0,-33.0958 c 0,-21.33339 -10.9583,-29.90419 -23.1167,-29.90419 z" />
    <path
       inkscape:connector-curvature="0"
       id="path658"
       style="clip-rule:evenodd;fill:#ffffff;fill-rule:nonzero;stroke-miterlimit:2"
       d="m -393.28468,851.70023 c -44.2875,0 -80.3084,-36.0334 -80.3084,-80.321 0,-44.2917 36.0209,-80.3209 80.3084,-80.3209 44.2959,0 80.3293,36.0292 80.3293,80.3209 0,44.2876 -36.0334,80.321 -80.3293,80.321 z m 154.2543,-232.7962 -83.3125,0 c -0.5709,0 -1.0584,0.4709 -1.0584,1.0625 l 0,27.6834 c 0,0.5958 0.4875,1.0667 1.0584,1.0667 l 33.175,0 -36.8375,36.8458 c -18.5542,-14.5791 -41.9001,-23.3042 -67.2793,-23.3042 -60.1583,0 -109.11673,48.9501 -109.11673,109.121 0,55.4001 41.50423,101.246 95.03343,108.1793 l 0,31.9 -32.8584,0 c -0.6125,0 -1.075,0.475 -1.075,1.0542 l 0,29.675 c 0,0.5917 0.4625,1.0625 1.075,1.0625 l 32.8584,0 0,31.3917 c 0,0.5875 0.475,1.0584 1.0583,1.0584 l 29.6584,0 c 0.5917,0 1.075,-0.4709 1.075,-1.0584 l 0,-31.3917 32.8584,0 c 0.5875,0 1.0583,-0.4708 1.0583,-1.0625 l 0,-29.675 c 0,-0.5792 -0.4708,-1.0542 -1.0583,-1.0542 l -32.8584,0 0,-32.4166 c 51.775,-8.4959 91.4126,-53.5251 91.4126,-107.6627 0,-23.3542 -7.3959,-45.0001 -19.9292,-62.7626 l 36.3083,-36.3167 0,30.9834 c 0,0.5875 0.4917,1.0583 1.075,1.0583 l 27.6792,0 c 0.5917,0 1.0834,-0.4708 1.0834,-1.0583 l 0,-83.3168 c 0,-0.5916 -0.4917,-1.0625 -1.0834,-1.0625 z" />
    <path
       inkscape:connector-curvature="0"
       id="path660"
       style="clip-rule:evenodd;fill:#ffffff;fill-rule:nonzero;stroke-miterlimit:2"
       d="m -344.22208,738.41253 -97.4209,0 c -0.5875,0 -1.0584,0.4333 -1.0584,0.95 l 0,23.5833 c 0,0.5542 0.4709,0.9667 1.0584,0.9667 l 97.4209,0 c 0.6042,0 1.075,-0.4125 1.075,-0.9667 l 0,-23.5833 c 0,-0.5167 -0.4708,-0.95 -1.075,-0.95 z" />
    <path
       inkscape:connector-curvature="0"
       id="path662"
       style="clip-rule:evenodd;fill:#ffffff;fill-rule:nonzero;stroke-miterlimit:2"
       d="m -344.22208,780.52503 -97.4209,0 c -0.5875,0 -1.0584,0.4417 -1.0584,0.9792 l 0,23.5876 c 0,0.525 0.4709,0.95 1.0584,0.95 l 97.4209,0 c 0.6042,0 1.075,-0.425 1.075,-0.95 l 0,-23.5876 c 0,-0.5375 -0.4708,-0.9792 -1.075,-0.9792 z" />
    <rect
       id="rect856"
       style="clip-rule:evenodd;fill:#de1330;fill-rule:nonzero;stroke-miterlimit:2"
       height="671.36719"
       width="671.34631"
       y="365.24997"
       x="-3698.6865" />
    <path
       inkscape:connector-curvature="0"
       id="path858"
       style="clip-rule:evenodd;fill:#ffffff;fill-rule:nonzero;stroke-miterlimit:2"
       d="m -3604.9491,453.54148 0.1958,0 0,103.62509 22.7542,0 0,-135.36679 -18.1667,0 -20.9625,24.5584 0,23.75 0.2,0 15.9792,-16.5667 z" />
    <path
       inkscape:connector-curvature="0"
       id="path860"
       style="clip-rule:evenodd;fill:#ffffff;fill-rule:nonzero;stroke-miterlimit:2"
       d="m -3181.6612,685.54993 c 0,-10.275 8.3292,-18.5917 18.5958,-18.5917 10.2542,0 18.5584,8.3167 18.5584,18.5917 0,10.2625 -8.3042,18.5875 -18.5584,18.5875 -10.2666,0 -18.5958,-8.325 -18.5958,-18.5875 z" />
    <path
       inkscape:connector-curvature="0"
       id="path862"
       style="clip-rule:evenodd;fill:#ffffff;fill-rule:nonzero;stroke-miterlimit:2"
       d="m -3141.3695,711.30413 c 12.6125,1.1417 22.4958,11.75 22.4958,24.6834 l 0,51.5208 c 0,3.9625 -3.2291,7.2002 -7.1958,7.2002 -3.9958,0 -7.2083,-3.2377 -7.2083,-7.2002 l 0,-44.25 c 0,-1.6583 -0.4834,-3.9042 -3.5167,-3.9042 -2.1,0 -2.5334,2.2209 -2.6125,3.6375 l 0,132.6252 c 0,5.7001 -4.6167,10.3542 -10.3417,10.3542 -5.7333,0 -10.3792,-4.6541 -10.3792,-10.3542 l 0,-76.425 c -0.029,-0.8458 -0.3083,-3.0375 -2.9375,-3.0375 l -0.013,0 c -2.6333,0 -2.9583,2.1917 -2.9833,3.0375 l 0,76.425 c 0,5.7001 -4.6167,10.3542 -10.3458,10.3542 -5.7376,0 -10.3542,-4.6541 -10.3542,-10.3542 l 0,-132.6252 c -0.071,-1.4166 -0.5209,-3.6375 -2.6042,-3.6375 -3.0542,0 -3.5125,2.2459 -3.5125,3.9042 l 0,44.25 c 0,3.9625 -3.2292,7.2002 -7.2083,7.2002 -3.9875,0 -7.1959,-3.2377 -7.1959,-7.2002 l 0,-51.5208 c 0,-12.9334 9.8917,-23.5417 22.5209,-24.6834 0.4125,-0.05 0.8625,-0.1125 1.3583,-0.1125 l 40.6209,0 c 0.5333,0 0.9708,0.062 1.4125,0.1125 z" />
    <path
       inkscape:connector-curvature="0"
       id="path864"
       style="clip-rule:evenodd;fill:#ffffff;fill-rule:nonzero;stroke-miterlimit:2"
       d="m -3292.1822,695.31243 c 0,-9.7208 -7.8625,-17.6208 -17.5833,-17.6208 -9.7292,0 -17.6084,7.9 -17.6084,17.6208 0,9.725 7.8792,17.6001 17.6084,17.6001 9.7208,0 17.5833,-7.8751 17.5833,-17.6001 z" />
    <path
       inkscape:connector-curvature="0"
       id="path866"
       style="clip-rule:evenodd;fill:#ffffff;fill-rule:nonzero;stroke-miterlimit:2"
       d="m -3345.2281,735.17913 -14.6333,47.6251 c 0,0 -2.6083,8.7333 4.8,10.9125 7.3708,2.1793 9.6083,-6.3417 9.6083,-6.3417 l 11.7959,-39.75 c 0,0 0.6375,-3.0584 2.9375,-2.3959 2.3042,0.6584 1.4417,3.9292 1.4417,3.9292 l -20.5376,74.4918 19.0959,0 0,53.3542 c 0,5.0459 4.1083,9.1584 9.1792,9.1584 5.0625,0 9.1541,-4.1125 9.1541,-9.1584 l 0,-53.3542 5.2084,0 0,53.3542 c 0,5.0459 4.0916,9.1584 9.1666,9.1584 5.0792,0 9.1834,-4.1125 9.1834,-9.1584 l 0,-53.3542 19.0875,0 -20.5167,-74.4918 c 0,0 -0.8666,-3.2708 1.4292,-3.9292 2.3,-0.6625 2.9417,2.3959 2.9417,2.3959 l 11.7958,39.75 c 0,0 2.2417,8.521 9.5959,6.3417 7.4292,-2.1792 4.8083,-10.9125 4.8083,-10.9125 l -14.6333,-47.6251 c 0,0 -5.225,-13.7666 -16.8042,-13.7666 l -37.2917,0 c -11.5792,0 -16.8126,13.7666 -16.8126,13.7666 z" />
    <path
       inkscape:connector-curvature="0"
       id="path868"
       style="clip-rule:evenodd;fill:#ffffff;fill-rule:nonzero;stroke-miterlimit:2"
       d="m -3397.5906,695.31243 c 0,-9.7208 -7.875,-17.6208 -17.5958,-17.6208 -9.7251,0 -17.5959,7.9 -17.5959,17.6208 0,9.725 7.8708,17.6001 17.5959,17.6001 9.7208,0 17.5958,-7.8751 17.5958,-17.6001 z" />
    <path
       inkscape:connector-curvature="0"
       id="path870"
       style="clip-rule:evenodd;fill:#ffffff;fill-rule:nonzero;stroke-miterlimit:2"
       d="m -3450.649,735.17913 -14.6208,47.6251 c 0,0 -2.6167,8.7333 4.7917,10.9125 7.3708,2.1793 9.6041,-6.3417 9.6041,-6.3417 l 11.8,-39.75 c 0,0 0.6375,-3.0584 2.9375,-2.3959 2.3084,0.6584 1.4334,3.9292 1.4334,3.9292 l -20.525,74.4918 19.0916,0 0,53.3542 c 0,5.0459 4.1209,9.1584 9.1792,9.1584 5.0667,0 9.1625,-4.1125 9.1625,-9.1584 l 0,-53.3542 5.2084,0 0,53.3542 c 0,5.0459 4.0791,9.1584 9.1708,9.1584 5.075,0 9.1708,-4.1125 9.1708,-9.1584 l 0,-53.3542 19.0959,0 -20.5167,-74.4918 c 0,0 -0.8708,-3.2708 1.4208,-3.9292 2.2959,-0.6625 2.9459,2.3959 2.9459,2.3959 l 11.7833,39.75 c 0,0 2.2459,8.521 9.6084,6.3417 7.4166,-2.1792 4.8,-10.9125 4.8,-10.9125 l -14.6334,-47.6251 c 0,0 -5.2125,-13.7666 -16.7958,-13.7666 l -37.2917,0 c -11.5709,0 -16.8209,13.7666 -16.8209,13.7666 z" />
    <path
       inkscape:connector-curvature="0"
       id="path872"
       style="clip-rule:evenodd;fill:#ffffff;fill-rule:nonzero;stroke-miterlimit:2"
       d="m -3233.0738,793.81253 c 8.1042,0 14.6417,-6.5583 14.6417,-14.6625 0,-8.1 -6.5375,-14.6375 -14.6417,-14.6375 -8.1041,0 -14.65,6.5375 -14.65,14.6375 0,8.1042 6.5459,14.6625 14.65,14.6625 z" />
    <path
       inkscape:connector-curvature="0"
       id="path874"
       style="clip-rule:evenodd;fill:#ffffff;fill-rule:nonzero;stroke-miterlimit:2"
       d="m -3268.1988,839.32103 c -0.7167,1.7125 -1.3042,5.3458 2.1375,6.9333 4.0292,1.85 6.275,-2.0458 6.275,-2.0458 l 7.9625,-25.3959 c 0,0 1.3875,-1.7 1.3875,0.058 l 0,59.7834 0.033,0 c 0,4.1625 3.35,7.5166 7.5167,7.5166 4.1542,0 7.5125,-3.3541 7.5125,-7.5166 l 0,-23.5917 c 0,0 -0.4375,-3.3375 2.2542,-3.3375 2.6875,0 2.275,3.3375 2.275,3.3375 l 0,23.5917 c 0,4.1625 3.3708,7.5166 7.525,7.5166 4.1458,0 7.5333,-3.3541 7.5333,-7.5166 l 0,-59.7834 c 0,-1.7584 0.9334,-0.5042 0.9334,-0.5042 l 6.2416,17.3875 c 0,0 2.7042,7.775 3.5417,8.1167 2.8167,1.1833 6.0667,-0.1625 7.2583,-3.0042 0.7792,-1.8541 0.4834,-3.8416 -0.5916,-5.3458 l 0.054,-0.054 c -0.1792,-0.5625 -9.3334,-23 -10.4125,-26.15 -3.3,-9.6458 -9.3125,-9.5625 -15.1042,-9.7208 -5.7917,-0.1375 -9.2542,0 -9.2542,0 0,0 -3.7,-0.15 -11.3458,0.075 -7.6334,0.2416 -10.0417,4.1541 -18.4667,25.8208 -1.2,3.1208 -5.2667,13.2125 -5.3208,13.8167 l 0.054,0.013 z" />
    <path
       inkscape:connector-curvature="0"
       id="path876"
       style="clip-rule:evenodd;fill:#ffffff;fill-rule:nonzero;stroke-miterlimit:2"
       d="m -3554.7699,685.54993 c 0,-10.275 -8.3375,-18.5917 -18.6,-18.5917 -10.2542,0 -18.5625,8.3167 -18.5625,18.5917 0,10.2625 8.3083,18.5875 18.5625,18.5875 10.2625,0 18.6,-8.325 18.6,-18.5875 z" />
    <path
       inkscape:connector-curvature="0"
       id="path878"
       style="clip-rule:evenodd;fill:#ffffff;fill-rule:nonzero;stroke-miterlimit:2"
       d="m -3595.0699,711.30413 c -12.6084,1.1417 -22.5042,11.75 -22.5042,24.6834 l 0,51.5208 c 0,3.9625 3.2333,7.2002 7.2167,7.2002 3.9833,0 7.2041,-3.2377 7.2041,-7.2002 l 0,-44.25 c 0,-1.6583 0.4792,-3.9042 3.5167,-3.9042 2.0917,0 2.5292,2.2209 2.6208,3.6375 l 0,132.6252 c 0,5.7001 4.6042,10.3542 10.3375,10.3542 5.7251,0 10.3542,-4.6541 10.3542,-10.3542 l 0,-76.425 c 0.042,-0.8458 0.3209,-3.0375 2.9542,-3.0375 l 0.01,0 c 2.6375,0 2.9625,2.1917 2.9833,3.0375 l 0,76.425 c 0,5.7001 4.6209,10.3542 10.3459,10.3542 5.7375,0 10.35,-4.6541 10.35,-10.3542 l 0,-132.6252 c 0.062,-1.4166 0.5333,-3.6375 2.6125,-3.6375 3.0542,0 3.5083,2.2459 3.5083,3.9042 l 0,44.25 c 0,3.9625 3.2292,7.2002 7.2084,7.2002 3.9791,0 7.2,-3.2377 7.2,-7.2002 l 0,-51.5208 c 0,-12.9334 -9.8875,-23.5417 -22.5167,-24.6834 -0.4209,-0.05 -0.8625,-0.1125 -1.3667,-0.1125 l -40.6167,0 c -0.5333,0 -0.9792,0.062 -1.4167,0.1125 z" />
    <path
       inkscape:connector-curvature="0"
       id="path880"
       style="clip-rule:evenodd;fill:none;fill-rule:evenodd;stroke:#ffffff;stroke-width:14.37501144px;stroke-linecap:round;stroke-miterlimit:2"
       d="m -3611.2783,794.99603 -16.5041,87.4834" />
    <path
       inkscape:connector-curvature="0"
       id="path882"
       style="clip-rule:evenodd;fill:#ffffff;fill-rule:nonzero;stroke-miterlimit:2"
       d="m -3520.3282,786.13753 c -0.9583,-1.5 -2.6167,-2.5042 -4.5208,-2.5042 -2.9417,0 -5.3375,2.3959 -5.3375,5.325 0,0.8542 0.5208,2.3417 0.5208,2.3417 l 14.7708,26.7251 c 0,0 0.9042,1.8417 0.9042,3.525 l 0,57.3918 0.025,0 c 0,4.0041 3.2333,7.2208 7.225,7.2208 3.9875,0 7.1959,-3.2167 7.1959,-7.2208 l 0,-22.6459 c 0,0 -0.4042,-3.2083 2.1833,-3.2083 2.5792,0 2.175,3.2083 2.175,3.2083 l 0,22.6459 c 0,4.0041 3.2417,7.2208 7.2292,7.2208 3.9833,0 7.2291,-3.2167 7.2291,-7.2208 l 0,-57.3918 c 0,-1.6833 0.8959,-3.525 0.8959,-3.525 l 13.65,-24.6709 c 0,0 1.6708,-3.5417 1.6708,-4.3959 0,-2.9291 -2.3917,-5.325 -5.3417,-5.325 -1.9333,0 -3.5833,1.0042 -4.5208,2.5042 l -0.058,-0.029 c -0.4292,0.3667 -7.2625,12.5418 -9.5208,14.8002 -2.3875,2.4041 -4.5209,2.1375 -4.5209,2.1375 l -17.7542,0 c 0,0 -2.15,0.2666 -4.525,-2.1375 -2.2875,-2.2584 -9.0958,-14.4335 -9.5291,-14.8002 l -0.046,0.029 z" />
    <path
       inkscape:connector-curvature="0"
       id="path884"
       style="clip-rule:evenodd;fill:#ffffff;fill-rule:nonzero;stroke-miterlimit:2"
       d="m -3497.3615,793.81253 c 8.1,0 14.6417,-6.5583 14.6417,-14.6625 0,-8.1 -6.5417,-14.6375 -14.6417,-14.6375 -8.1,0 -14.6417,6.5375 -14.6417,14.6375 0,8.1042 6.5417,14.6625 14.6417,14.6625 z" />
    <path
       inkscape:connector-curvature="0"
       id="path886"
       style="clip-rule:evenodd;fill:#ffffff;fill-rule:nonzero;stroke-miterlimit:2"
       d="m -3497.3365,814.37513 16.5542,12.075 7.8708,28.9709 -48.8709,0 7.8875,-28.9709 16.5584,-12.075 z" />
    <rect
       id="rect928"
       style="clip-rule:evenodd;fill:#39bbe4;fill-rule:nonzero;stroke-miterlimit:2"
       height="670.58795"
       width="670.55884"
       y="365.24997"
       x="16.699596" />
    <path
       inkscape:connector-curvature="0"
       id="path930"
       style="clip-rule:evenodd;fill:#ffffff;fill-rule:nonzero;stroke-miterlimit:2"
       d="m 107.58232,501.59147 c 0.4,-7.575 3.5917,-12.35829 10.7667,-12.35829 7.775,0 10.7667,4.78329 10.7667,13.56249 l 0,23.5334 c 0,8.5708 -3.1792,13.5583 -10.9625,13.5583 -7.5834,0 -10.5709,-5.1833 -10.5709,-13.5583 l 0,-24.7376 z m 10.5709,56.8459 c 24.1041,0 33.5208,-13.1666 33.5208,-34.1083 l 0,-19.9459 c 0,-22.13329 -8.7917,-33.29999 -25.1542,-33.29999 -9.5708,0 -15.3458,4.3958 -18.7417,10.9708 l -0.1958,0 0,-29.1167 c 0,-8.1833 2.5958,-13.9625 10.7667,-13.9625 8.1708,0 10.5708,4.7959 10.5708,13.1667 l 0,8.9709 20.7542,0 0,-7.1751 c 0,-19.95 -6.5833,-33.9 -31.7208,-33.9 -23.933399,0 -32.908399,15.35 -32.908399,36.4875 l 0,65.80839 c 0,20.9459 9.1708,36.1042 33.108399,36.1042 z" />
    <path
       inkscape:connector-curvature="0"
       id="path932"
       style="clip-rule:evenodd;fill:#ffffff;fill-rule:nonzero;stroke-miterlimit:2"
       d="m 448.17426,729.91253 c -5.4167,-2.3917 -12.3334,-1.5292 -18.9167,1.15 -24.875,10.075 -41.7917,13.7041 -67.9584,5.5125 -16.4584,-5.1542 -31.875,-15.95 -50.0834,-9.375 -12.0833,4.3458 -23.3333,8.4958 -37,8.3875 l -7.9167,-40.4667 187.5418,0 -5.6666,34.7917 z m -63.5834,120.171 c 0,0 -9.0834,9.3542 -23.9167,8.3417 -14.8334,1.0125 -23.9167,-8.3417 -23.9167,-8.3417 -15,-15 -9.6667,-33.6584 -4.4167,-43.3 3.2084,-6.0375 26.2917,-40.6793 28.25,-43.6252 l 0,-0.2333 c 0,0 0.042,0.046 0.083,0.1125 l 0.083,-0.1125 0,0.2333 c 1.9584,2.9459 25.0417,37.5877 28.2917,43.6252 5.2083,9.6416 10.5417,28.3 -4.4583,43.3 z m 77.4584,-163.0086 c -0.4584,-0.5083 -1.0834,-0.7958 -1.8334,-0.7958 l -200.3751,0 c -0.6667,0 -1.3334,0.2875 -1.7917,0.7958 -0.4167,0.5584 -0.625,1.25 -0.5,1.8959 l 33.6667,203.6169 c 0.1667,1.125 1.1667,1.9625 2.2917,1.9625 l 41.3333,0 2.8334,33.1625 -17.375,0.021 40.4583,40.4542 40.5417,-40.5459 -17.375,0.017 2.7917,-33.1084 42.0833,0 c 1.125,0 2.125,-0.8375 2.2917,-2 l 31.5,-203.5794 c 0.083,-0.7 -0.125,-1.3667 -0.5416,-1.8959 z" />
    <rect
       id="rect1006"
       style="clip-rule:evenodd;fill:#e1a929;fill-rule:nonzero;stroke-miterlimit:2"
       height="671.36719"
       width="671.34631"
       y="365.24997"
       x="-2956.4238" />
    <path
       inkscape:connector-curvature="0"
       id="path1008"
       style="clip-rule:evenodd;fill:#ffffff;fill-rule:nonzero;stroke-miterlimit:2"
       d="m -2830.8652,538.30407 -37.3375,0 0,-6.3875 c 0,-10.575 3.7958,-14.575 9.5833,-20.7625 l 14.5709,-15.3709 c 11.775,-12.57499 14.375,-20.56249 14.375,-34.14579 l 0,-13.1751 c 0,-19.3583 -9.3875,-28.55 -29.75,-28.55 -19.9584,0 -30.1417,10.5834 -30.1417,29.5542 l 0,16.3625 20.7625,0 0,-16.9708 c 0,-8.175 3.9917,-10.5792 8.7917,-10.5792 4.3791,0 8.1791,1.8 8.1791,10.1833 l 0,11.1792 c 0,11.1875 -1.0041,15.5792 -8.3833,23.3625 l -12.7875,13.57499 c -12.3667,13.1834 -16.9625,21.9667 -16.9625,35.3376 l 0,24.9583 59.1,0 0,-18.5708 z" />
    <path
       inkscape:connector-curvature="0"
       id="path1010"
       style="clip-rule:evenodd;fill:#ffffff;fill-rule:nonzero;stroke-miterlimit:2"
       d="m -2688.6402,935.71693 0,9.4417 c -0.01,0.062 -0.033,0.1416 -0.033,0.2125 0,0.079 0.025,0.1541 0.033,0.2208 0.096,2.3375 2.0042,4.2 4.3542,4.2417 0.029,0 0.054,0.017 0.088,0.017 0.033,0 0.075,-0.017 0.1083,-0.017 l 110.7418,0 c 0.025,0 0.058,0.017 0.092,0.017 0.033,0 0.071,-0.017 0.1,-0.017 2.4166,-0.042 4.35,-2.0125 4.3666,-4.4334 0,-0.01 0.017,-0.017 0.017,-0.029 0,0 -0.017,-0.017 -0.017,-0.033 l 0,-10.6833 c 62.3419,-20.4375 109.0419,-70.9626 119.3127,-132.5376 0.025,-0.1333 0.042,-0.2542 0.062,-0.3667 0.033,-0.2166 0.058,-0.4125 0.058,-0.6208 0,-2.475 -1.9917,-4.475 -4.475,-4.475 l -352.9504,0 c -2.4917,0 -4.4875,2 -4.4875,4.475 l 0.2333,2.0125 c 10.7834,62.1625 58.7709,112.9709 122.3959,132.5751 z" />
    <path
       inkscape:connector-curvature="0"
       id="path1012"
       style="clip-rule:evenodd;fill:#ffffff;fill-rule:nonzero;stroke-miterlimit:2"
       d="m -2568.8901,646.01243 c -1.4583,2.0708 -35.5542,51.1625 0.7584,90.8584 16.6583,18.225 15.2125,34.2959 10.4541,45.1542 l 23.296,0 c 4.7208,-16.0292 2.7708,-36.1334 -16.1418,-56.8 -26.7583,-29.2501 0.3459,-68.7918 0.7542,-69.4001 3.1917,-4.5125 1.4792,-10.325 -3.7833,-13.0375 -5.2834,-2.7 -12.1334,-1.2542 -15.3376,3.225 z" />
    <path
       inkscape:connector-curvature="0"
       id="path1014"
       style="clip-rule:evenodd;fill:#ffffff;fill-rule:nonzero;stroke-miterlimit:2"
       d="m -2627.8859,782.02503 23.3,0 c 4.7083,-16.0333 2.7583,-36.1334 -16.1584,-56.8 -26.7625,-29.2542 0.3167,-68.7751 0.7417,-69.4209 3.1792,-4.4917 1.5,-10.2959 -3.7875,-13.0167 -5.2667,-2.6917 -12.125,-1.2583 -15.3209,3.225 -1.4583,2.0625 -35.5916,51.1625 0.7626,90.8584 16.6541,18.225 15.2,34.3042 10.4625,45.1542 z" />
    <path
       inkscape:connector-curvature="0"
       id="path1016"
       style="clip-rule:evenodd;fill:#ffffff;fill-rule:nonzero;stroke-miterlimit:2"
       d="m -2709.336,646.01243 c -1.4792,2.0708 -35.575,51.1625 0.7458,90.8584 16.6625,18.2292 15.225,34.3042 10.4792,45.1542 l 23.2959,0 c 4.7125,-16.0208 2.7625,-36.1292 -16.1626,-56.8 -26.7708,-29.2501 0.3334,-68.7918 0.7625,-69.4168 3.1625,-4.4958 1.475,-10.3083 -3.8041,-13.0208 -5.2667,-2.7125 -12.125,-1.2625 -15.3167,3.225 z" />
  </g>
</svg>
