<?xml version="1.0" encoding="UTF-8" standalone="no"?>
<!-- Created with Inkscape (http://www.inkscape.org/) -->

<svg
   xmlns:dc="http://purl.org/dc/elements/1.1/"
   xmlns:cc="http://creativecommons.org/ns#"
   xmlns:rdf="http://www.w3.org/1999/02/22-rdf-syntax-ns#"
   xmlns:svg="http://www.w3.org/2000/svg"
   xmlns="http://www.w3.org/2000/svg"
   xmlns:sodipodi="http://sodipodi.sourceforge.net/DTD/sodipodi-0.dtd"
   xmlns:inkscape="http://www.inkscape.org/namespaces/inkscape"
   width="200mm"
   height="200mm"
   viewBox="0 0 708.6614 708.6614"
   id="svg4174"
   version="1.1"
   inkscape:version="0.91 r13725"
   sodipodi:docname="objectif 7.svg">
  <defs
     id="defs4176" />
  <sodipodi:namedview
     id="base"
     pagecolor="#ffffff"
     bordercolor="#666666"
     borderopacity="1.0"
     inkscape:pageopacity="0.0"
     inkscape:pageshadow="2"
     inkscape:zoom="0.35"
     inkscape:cx="92.435686"
     inkscape:cy="520"
     inkscape:document-units="px"
     inkscape:current-layer="layer1"
     showgrid="false"
     inkscape:window-width="1366"
     inkscape:window-height="745"
     inkscape:window-x="-8"
     inkscape:window-y="-8"
     inkscape:window-maximized="1" />
  <metadata
     id="metadata4179">
    <rdf:RDF>
      <cc:Work
         rdf:about="">
        <dc:format>image/svg+xml</dc:format>
        <dc:type
           rdf:resource="http://purl.org/dc/dcmitype/StillImage" />
        <dc:title></dc:title>
      </cc:Work>
    </rdf:RDF>
  </metadata>
  <g
     inkscape:label="Calque 1"
     inkscape:groupmode="layer"
     id="layer1"
     transform="translate(0,-343.70075)">
    <rect
       id="rect198"
       style="clip-rule:evenodd;fill:#f9c401;fill-rule:nonzero;stroke-miterlimit:2"
       height="670.37134"
       width="670.35046"
       y="365.75006"
       x="24.205582" />
    <path
       inkscape:connector-curvature="0"
       id="path200"
       style="clip-rule:evenodd;fill:#ffffff;fill-rule:nonzero;stroke-miterlimit:2"
       d="m 92.963982,440.47486 35.091698,0 -30.312498,116.61678 22.541698,0 29.7042,-114.22509 0,-20.93749 -57.025098,0 0,18.5458 z" />
    <path
       inkscape:connector-curvature="0"
       id="path202"
       style="clip-rule:evenodd;fill:#ffffff;fill-rule:nonzero;stroke-miterlimit:2"
       d="m 359.63918,839.13347 c -28.2167,0 -51.0959,-22.875 -51.0959,-51.09586 0,-22.9417 15.1,-42.3417 35.9125,-48.80839 l 0,19.02499 c -10.8333,5.5334 -18.2667,16.7751 -18.2667,29.7834 0,18.47496 14.9709,33.44996 33.4501,33.44996 18.4833,0 33.4542,-14.975 33.4542,-33.44996 0,-13.0458 -7.4667,-24.3084 -18.3542,-29.8292 l 0,-19.00419 c 20.8542,6.43749 36.0083,25.85839 36.0083,48.83339 0,28.22086 -22.875,51.09586 -51.1083,51.09586 z m -7.2875,-109.77925 c 0,-3.2708 3.2833,-6.8708 7.3125,-6.8708 4.025,0 7.2791,3.6 7.2791,6.8708 l 0,33.73339 c 0,3.2542 -3.2541,6.8167 -7.2791,6.8167 -4.0292,0 -7.3125,-3.5625 -7.3125,-6.8167 l 0,-33.73339 z m 7.2708,-38.8125 c -54.25,0 -98.2376,43.9875 -98.2376,98.24589 0,54.28336 43.9876,98.25836 98.2376,98.25836 54.2584,0 98.2459,-43.975 98.2459,-98.25836 0,-54.25839 -43.9875,-98.24589 -98.2459,-98.24589 z" />
    <path
       inkscape:connector-curvature="0"
       id="path204"
       style="clip-rule:evenodd;fill:#ffffff;fill-rule:nonzero;stroke-miterlimit:2"
       d="m 246.84738,787.92931 c 0,-4.4542 -3.9458,-8.0625 -7.5458,-8.0625 l -43.0291,0 c -3.6292,0 -7.6084,3.6083 -7.6084,8.0625 0,4.4666 3.9792,8.0958 7.6084,8.0958 l 43.0291,0 c 3.6,0 7.5458,-3.6292 7.5458,-8.0958 z" />
    <path
       inkscape:connector-curvature="0"
       id="path206"
       style="clip-rule:evenodd;fill:#ffffff;fill-rule:nonzero;stroke-miterlimit:2"
       d="m 530.63098,787.92931 c 0,-4.4542 -3.9458,-8.0625 -7.5458,-8.0625 l -43.0251,0 c -3.625,0 -7.6041,3.6083 -7.6041,8.0625 0,4.4666 3.9791,8.0958 7.6041,8.0958 l 43.0251,0 c 3.6,0 7.5458,-3.6292 7.5458,-8.0958 z" />
    <path
       inkscape:connector-curvature="0"
       id="path208"
       style="clip-rule:evenodd;fill:#ffffff;fill-rule:nonzero;stroke-miterlimit:2"
       d="m 359.66418,675.14172 c 4.45,0 8.0625,-3.9417 8.0625,-7.5459 l 0,-43.02499 c 0,-3.6292 -3.6125,-7.6083 -8.0625,-7.6083 -4.4584,0 -8.0959,3.9791 -8.0959,7.6083 l 0,43.02499 c 0,3.6042 3.6375,7.5459 8.0959,7.5459 z" />
    <path
       inkscape:connector-curvature="0"
       id="path210"
       style="clip-rule:evenodd;fill:#ffffff;fill-rule:nonzero;stroke-miterlimit:2"
       d="m 359.66418,958.9252 c 4.45,0 8.0625,-3.9458 8.0625,-7.55 l 0,-43.0208 c 0,-3.62503 -3.6125,-7.61253 -8.0625,-7.61253 -4.4584,0 -8.0959,3.9875 -8.0959,7.61253 l 0,43.0208 c 0,3.6042 3.6375,7.55 8.0959,7.55 z" />
    <path
       inkscape:connector-curvature="0"
       id="path212"
       style="clip-rule:evenodd;fill:#ffffff;fill-rule:nonzero;stroke-miterlimit:2"
       d="m 261.75158,731.90012 c 2.2167,-3.8667 0.5875,-8.9584 -2.5459,-10.7459 l -37.3374,-21.3708 c -3.15,-1.8042 -8.4,-0.65 -10.6125,3.2125 -2.2167,3.8791 -0.5625,9.0041 2.5875,10.8125 l 37.3416,21.3667 c 3.125,1.7916 8.35,0.6041 10.5667,-3.275 z" />
    <path
       inkscape:connector-curvature="0"
       id="path214"
       style="clip-rule:evenodd;fill:#ffffff;fill-rule:nonzero;stroke-miterlimit:2"
       d="m 508.05598,872.86267 c 2.2083,-3.8625 0.575,-8.9584 -2.5458,-10.75 l -37.3417,-21.3709 c -3.15,-1.8 -8.4001,-0.6417 -10.6084,3.225 -2.2167,3.8708 -0.5625,9.0042 2.5792,10.8 l 37.3417,21.3709 c 3.1291,1.7875 8.3542,0.6 10.575,-3.275 z" />
    <path
       inkscape:connector-curvature="0"
       id="path216"
       style="clip-rule:evenodd;fill:#ffffff;fill-rule:nonzero;stroke-miterlimit:2"
       d="m 415.69338,690.05422 c 3.8666,2.2083 8.9541,0.5792 10.7458,-2.5458 l 21.3709,-37.34169 c 1.8042,-3.1542 0.65,-8.4 -3.2167,-10.6167 -3.8708,-2.2167 -9.0042,-0.5584 -10.8083,2.5875 l -21.3709,37.33749 c -1.7875,3.1334 -0.6,8.3625 3.2792,10.5792 z" />
    <path
       inkscape:connector-curvature="0"
       id="path218"
       style="clip-rule:evenodd;fill:#ffffff;fill-rule:nonzero;stroke-miterlimit:2"
       d="m 274.73078,936.3502 c 3.8625,2.2125 8.9583,0.5792 10.75,-2.55 l 21.3667,-37.33753 c 1.8,-3.1458 0.6458,-8.4042 -3.2167,-10.6125 -3.8709,-2.2167 -9.0084,-0.5625 -10.8084,2.5833 l -21.3666,37.34173 c -1.7875,3.125 -0.5959,8.3625 3.275,10.575 z" />
    <path
       inkscape:connector-curvature="0"
       id="path220"
       style="clip-rule:evenodd;fill:#ffffff;fill-rule:nonzero;stroke-miterlimit:2"
       d="m 303.43078,690.15002 c 3.8583,-2.2208 5.0208,-7.4416 3.2292,-10.5625 l -21.4501,-37.29999 c -1.8125,-3.1459 -6.9208,-4.7917 -10.7875,-2.575 -3.8708,2.225 -5.0291,7.4875 -3.2125,10.6333 l 21.4375,37.29169 c 1.8042,3.1209 6.9042,4.7375 10.7834,2.5125 z" />
    <path
       inkscape:connector-curvature="0"
       id="path222"
       style="clip-rule:evenodd;fill:#ffffff;fill-rule:nonzero;stroke-miterlimit:2"
       d="m 444.89338,936.1586 c 3.8625,-2.2167 5.025,-7.4376 3.2334,-10.5584 l -21.4501,-37.30003 c -1.8083,-3.1459 -6.9208,-4.7959 -10.7875,-2.575 -3.8708,2.2208 -5.0333,7.4833 -3.2125,10.6333 l 21.4417,37.29593 c 1.7958,3.1208 6.9042,4.7333 10.775,2.5042 z" />
    <path
       inkscape:connector-curvature="0"
       id="path224"
       style="clip-rule:evenodd;fill:#ffffff;fill-rule:nonzero;stroke-miterlimit:2"
       d="m 457.44758,731.72512 c 2.2125,3.8583 7.4334,5.0208 10.5584,3.225 l 37.2917,-21.4459 c 3.15,-1.8083 4.8083,-6.9208 2.5875,-10.7833 -2.2292,-3.8667 -7.4834,-5.0334 -10.6334,-3.2209 l -37.2959,21.4459 c -3.1208,1.7958 -4.7375,6.9125 -2.5083,10.7792 z" />
    <path
       inkscape:connector-curvature="0"
       id="path226"
       style="clip-rule:evenodd;fill:#ffffff;fill-rule:nonzero;stroke-miterlimit:2"
       d="m 211.43498,873.19597 c 2.2166,3.8542 7.4375,5.0208 10.5583,3.2208 l 37.2916,-21.4458 c 3.15,-1.8083 4.8125,-6.9209 2.5834,-10.7792 -2.2209,-3.875 -7.4834,-5.0333 -10.6251,-3.225 l -37.2957,21.4459 c -3.125,1.7916 -4.7375,6.9083 -2.5125,10.7833 z" />
    <rect
       id="rect278"
       style="clip-rule:evenodd;fill:#f59d11;fill-rule:nonzero;stroke-miterlimit:2"
       height="670.36713"
       width="670.34216"
       y="365.75006"
       x="2995.7786" />
    <path
       inkscape:connector-curvature="0"
       id="path280"
       style="clip-rule:evenodd;fill:#ffffff;fill-rule:nonzero;stroke-miterlimit:2"
       d="m 3043.8117,446.45825 0,23.7166 0.1917,0 15.95,-16.55 0.2,0 0,103.46679 22.725,0 0,-135.16258 -18.1417,0 -20.925,24.52919 z" />
    <path
       inkscape:connector-curvature="0"
       id="path282"
       style="clip-rule:evenodd;fill:#ffffff;fill-rule:nonzero;stroke-miterlimit:2"
       d="m 3095.6368,446.45825 0,23.7166 0.2041,0 15.9459,-16.55 0.1958,0 0,103.46679 22.7334,0 0,-135.16258 -18.1376,0 -20.9416,24.52919 z" />
    <path
       inkscape:connector-curvature="0"
       id="path284"
       style="clip-rule:evenodd;fill:#ffffff;fill-rule:nonzero;stroke-miterlimit:2"
       d="m 3111.0993,876.10427 100.8333,0 c 1.3625,0 2.475,-1.1166 2.475,-2.4833 0,-0.6333 -0.2583,-1.2042 -0.65,-1.6417 l -0.1417,-0.15 -50.1666,-64.9084 -0.4875,-0.5375 c -0.4542,-0.4958 -1.1,-0.8041 -1.825,-0.8041 -0.625,0 -1.1792,0.2583 -1.625,0.6333 l -0.3,0.35 -0.4667,0.5292 -48.95,64.225 -0.7458,0.9209 c -0.275,0.3916 -0.425,0.8708 -0.425,1.3833 0,1.3667 1.1083,2.4833 2.475,2.4833 z" />
    <path
       inkscape:connector-curvature="0"
       id="path286"
       style="clip-rule:evenodd;fill:#ffffff;fill-rule:nonzero;stroke-miterlimit:2"
       d="m 3211.6284,885.25427 -101.0333,0 c -1.3625,0 -2.4708,1.1084 -2.4708,2.475 l 0,79.06683 c 0,1.3666 1.1083,2.4833 2.4708,2.4833 l 32.525,0 0,-49.7459 c 0,-1.375 1.0959,-2.475 2.4667,-2.475 l 30.1875,0 c 1.3709,0 2.4709,1.1 2.4709,2.475 l 0,49.7459 33.3832,0 c 1.3625,0 2.475,-1.1167 2.475,-2.4833 l 0,-79.06683 c 0,-1.3666 -1.1125,-2.475 -2.475,-2.475 z" />
    <path
       inkscape:connector-curvature="0"
       id="path288"
       style="clip-rule:evenodd;fill:#ffffff;fill-rule:nonzero;stroke-miterlimit:2"
       d="m 3551.762,896.92097 c 0,1.3209 -1.0916,2.3875 -2.45,2.3875 l -29.8667,0 c -1.3583,0 -2.45,-1.0666 -2.45,-2.3875 l 0,-18.1667 c 0,-1.3083 1.0917,-2.375 2.45,-2.375 l 29.8667,0 c 1.3584,0 2.45,1.0667 2.45,2.375 l 0,18.1667 z m 0,33.55423 c 0,1.325 -1.0916,2.3917 -2.45,2.3917 l -29.8667,0 c -1.3583,0 -2.45,-1.0667 -2.45,-2.3917 l 0,-18.15 c 0,-1.3292 1.0917,-2.3833 2.45,-2.3833 l 29.8667,0 c 1.3584,0 2.45,1.0541 2.45,2.3833 l 0,18.15 z m -45.6583,-33.55423 c 0,1.3209 -1.0917,2.3875 -2.4417,2.3875 l -29.875,0 c -1.3584,0 -2.4584,-1.0666 -2.4584,-2.3875 l 0,-18.1667 c 0,-1.3083 1.1,-2.375 2.4584,-2.375 l 29.875,0 c 1.35,0 2.4417,1.0667 2.4417,2.375 l 0,18.1667 z m 0,33.55423 c 0,1.325 -1.0917,2.3917 -2.4417,2.3917 l -29.875,0 c -1.3584,0 -2.4584,-1.0667 -2.4584,-2.3917 l 0,-18.15 c 0,-1.3292 1.1,-2.3833 2.4584,-2.3833 l 29.875,0 c 1.35,0 2.4417,1.0541 2.4417,2.3833 l 0,18.15 z m 54.7167,-65.91673 -100.0001,0 c -1.3542,0 -2.4417,1.05 -2.4417,2.375 l 0,100.97513 c 0,1.3083 1.0875,2.375 2.4417,2.375 l 100.0001,0 c 1.3583,0 2.4416,-1.0667 2.4416,-2.375 l 0,-100.97513 c 0,-1.325 -1.0833,-2.375 -2.4416,-2.375 z" />
    <path
       inkscape:connector-curvature="0"
       id="path290"
       style="clip-rule:evenodd;fill:#ffffff;fill-rule:nonzero;stroke-miterlimit:2"
       d="m 3314.091,701.93342 c 0,0.7 -0.575,1.2791 -1.2958,1.2791 l -22.3959,0 c -0.7167,0 -1.2833,-0.5791 -1.2833,-1.2791 l 0,-24.9792 c 0,-0.7167 0.5666,-1.2834 1.2833,-1.2834 l 22.3959,0 c 0.7208,0 1.2958,0.5667 1.2958,1.2834 l 0,24.9792 z m 0,57.33329 c 0,0.7084 -0.575,1.2875 -1.2958,1.2875 l -22.3959,0 c -0.7167,0 -1.2833,-0.5791 -1.2833,-1.2875 l 0,-24.97499 c 0,-0.7083 0.5666,-1.2708 1.2833,-1.2708 l 22.3959,0 c 0.7208,0 1.2958,0.5625 1.2958,1.2708 l 0,24.97499 z m 0,57.35426 c 0,0.7083 -0.575,1.2833 -1.2958,1.2833 l -22.3959,0 c -0.7167,0 -1.2833,-0.575 -1.2833,-1.2833 l 0,-24.97916 c 0,-0.7084 0.5666,-1.2834 1.2833,-1.2834 l 22.3959,0 c 0.7208,0 1.2958,0.575 1.2958,1.2834 l 0,24.97916 z m 0,57.3333 c 0,0.725 -0.575,1.2834 -1.2958,1.2834 l -22.3959,0 c -0.7167,0 -1.2833,-0.5584 -1.2833,-1.2834 l 0,-24.9625 c 0,-0.7208 0.5666,-1.2833 1.2833,-1.2833 l 22.3959,0 c 0.7208,0 1.2958,0.5625 1.2958,1.2833 l 0,24.9625 z m 0,57.35013 c 0,0.7083 -0.575,1.2875 -1.2958,1.2875 l -22.3959,0 c -0.7167,0 -1.2833,-0.5792 -1.2833,-1.2875 l 0,-24.9667 c 0,-0.70833 0.5666,-1.27923 1.2833,-1.27923 l 22.3959,0 c 0.7208,0 1.2958,0.5709 1.2958,1.27923 l 0,24.9667 z m -43.9417,-229.37098 c 0,0.7 -0.5792,1.2791 -1.2875,1.2791 l -22.4084,0 c -0.7083,0 -1.2833,-0.5791 -1.2833,-1.2791 l 0,-24.9792 c 0,-0.7167 0.575,-1.2834 1.2833,-1.2834 l 22.4084,0 c 0.7083,0 1.2875,0.5667 1.2875,1.2834 l 0,24.9792 z m 0,57.33329 c 0,0.7084 -0.5792,1.2875 -1.2875,1.2875 l -22.4084,0 c -0.7083,0 -1.2833,-0.5791 -1.2833,-1.2875 l 0,-24.97499 c 0,-0.7083 0.575,-1.2708 1.2833,-1.2708 l 22.4084,0 c 0.7083,0 1.2875,0.5625 1.2875,1.2708 l 0,24.97499 z m 0,57.35426 c 0,0.7083 -0.5792,1.2833 -1.2875,1.2833 l -22.4084,0 c -0.7083,0 -1.2833,-0.575 -1.2833,-1.2833 l 0,-24.97916 c 0,-0.7084 0.575,-1.2834 1.2833,-1.2834 l 22.4084,0 c 0.7083,0 1.2875,0.575 1.2875,1.2834 l 0,24.97916 z m 0,57.3333 c 0,0.725 -0.5792,1.2834 -1.2875,1.2834 l -22.4084,0 c -0.7083,0 -1.2833,-0.5584 -1.2833,-1.2834 l 0,-24.9625 c 0,-0.7208 0.575,-1.2833 1.2833,-1.2833 l 22.4084,0 c 0.7083,0 1.2875,0.5625 1.2875,1.2833 l 0,24.9625 z m 0,57.35013 c 0,0.7083 -0.5792,1.2875 -1.2875,1.2875 l -22.4084,0 c -0.7083,0 -1.2833,-0.5792 -1.2833,-1.2875 l 0,-24.9667 c 0,-0.70833 0.575,-1.27923 1.2833,-1.27923 l 22.4084,0 c 0.7083,0 1.2875,0.5709 1.2875,1.27923 l 0,24.9667 z m 58.2125,-301.13357 -97.8625,0 c -1.3084,0 -2.3917,1.0667 -2.3917,2.4 l 0,334.44607 c 0,1.3167 1.0833,2.3875 2.3917,2.3875 l 97.8625,0 c 1.3084,0 2.4084,-1.0708 2.4084,-2.3875 l 0,-334.44607 c 0,-1.3333 -1.1,-2.4 -2.4084,-2.4 z" />
    <path
       inkscape:connector-curvature="0"
       id="path292"
       style="clip-rule:evenodd;fill:#ffffff;fill-rule:nonzero;stroke-miterlimit:2"
       d="m 3563.1537,854.39597 c 0,1.1208 -0.8958,2.0167 -2.0083,2.0167 l -100.6543,0 c -1.1042,0 -2.0083,-0.8959 -2.0083,-2.0167 l 0,-20.1292 c 0,-1.1042 0.9041,-2.0083 2.0083,-2.0083 l 100.6543,0 c 1.1125,0 2.0083,0.9041 2.0083,2.0083 l 0,20.1292 z" />
    <path
       inkscape:connector-curvature="0"
       id="path294"
       style="clip-rule:evenodd;fill:#ffffff;fill-rule:nonzero;stroke-miterlimit:2"
       d="m 3435.4411,795.51261 c 0,1.3292 -1.0833,2.3958 -2.3917,2.3958 l -29.1625,0 c -1.3333,0 -2.4083,-1.0666 -2.4083,-2.3958 l 0,-18.2542 c 0,-1.3375 1.075,-2.4041 2.4083,-2.4041 l 29.1625,0 c 1.3084,0 2.3917,1.0666 2.3917,2.4041 l 0,18.2542 z m 0,33.74166 c 0,1.3208 -1.0833,2.3833 -2.3917,2.3833 l -29.1625,0 c -1.3333,0 -2.4083,-1.0625 -2.4083,-2.3833 l 0,-18.2583 c 0,-1.325 1.075,-2.3875 2.4083,-2.3875 l 29.1625,0 c 1.3084,0 2.3917,1.0625 2.3917,2.3875 l 0,18.2583 z m 0,33.7417 c 0,1.3083 -1.0833,2.3833 -2.3917,2.3833 l -29.1625,0 c -1.3333,0 -2.4083,-1.075 -2.4083,-2.3833 l 0,-18.2667 c 0,-1.325 1.075,-2.3917 2.4083,-2.3917 l 29.1625,0 c 1.3084,0 2.3917,1.0667 2.3917,2.3917 l 0,18.2667 z m 0,33.7292 c 0,1.3292 -1.0833,2.3958 -2.3917,2.3958 l -29.1625,0 c -1.3333,0 -2.4083,-1.0666 -2.4083,-2.3958 l 0,-18.2542 c 0,-1.3375 1.075,-2.3917 2.4083,-2.3917 l 29.1625,0 c 1.3084,0 2.3917,1.0542 2.3917,2.3917 l 0,18.2542 z m 0,33.73333 c 0,1.3292 -1.0833,2.3917 -2.3917,2.3917 l -29.1625,0 c -1.3333,0 -2.4083,-1.0625 -2.4083,-2.3917 l 0,-18.2583 c 0,-1.3167 1.075,-2.3833 2.4083,-2.3833 l 29.1625,0 c 1.3084,0 2.3917,1.0666 2.3917,2.3833 l 0,18.2583 z m -44.5042,-142.47089 0,41.29996 c 0,1.325 -1.0833,2.3917 -2.3917,2.3917 l -29.1583,0 c -1.3375,0 -2.4084,-1.0667 -2.4084,-2.3917 l 0,-5.0583 c 0.012,-0.3208 0.071,-0.6208 0.1834,-0.8958 0.046,-0.1 0.054,-0.1375 0.1458,-0.2792 0.054,-0.1125 0.1375,-0.2167 0.2125,-0.3167 0.071,-0.1125 0.1833,-0.2583 0.2708,-0.3916 3.7292,-5.3375 20.5542,-26.05836 27.6167,-34.72506 l 0.7084,-0.8541 c 0.5125,-0.6167 1.2833,-1.0167 2.15,-1.0167 1.3416,0 2.4125,0.9792 2.6708,2.2375 z m -0.079,75.00836 c 0,1.3083 -1.0666,2.3833 -2.3958,2.3833 l -29.1667,0 c -1.325,0 -2.3917,-1.075 -2.3917,-2.3833 l 0,-18.2667 c 0,-1.325 1.0667,-2.3917 2.3917,-2.3917 l 29.1667,0 c 1.3292,0 2.3958,1.0667 2.3958,2.3917 l 0,18.2667 z m 0,33.7292 c 0,1.3292 -1.0666,2.3958 -2.3958,2.3958 l -29.1667,0 c -1.325,0 -2.3917,-1.0666 -2.3917,-2.3958 l 0,-18.2542 c 0,-1.3375 1.0667,-2.3917 2.3917,-2.3917 l 29.1667,0 c 1.3292,0 2.3958,1.0542 2.3958,2.3917 l 0,18.2542 z m 0,33.73333 c 0,1.3292 -1.0666,2.3917 -2.3958,2.3917 l -29.1667,0 c -1.325,0 -2.3917,-1.0625 -2.3917,-2.3917 l 0,-18.2583 c 0,-1.3167 1.0667,-2.3833 2.3917,-2.3833 l 29.1667,0 c 1.3292,0 2.3958,1.0666 2.3958,2.3833 l 0,18.2583 z m 15.2167,-170.87509 0.6875,-0.8625 c 6.5833,-8.4417 17.6709,-22.09579 23.0792,-28.72499 l 0.7083,-0.8458 c 0.5084,-0.6209 1.2834,-1.0167 2.15,-1.0167 1.3375,0 2.4084,0.9667 2.6667,2.2375 l 0,30.86669 c 0,1.4875 -1.1833,2.6833 -2.6583,2.75 -0.042,0 -0.079,0.025 -0.1209,0.025 -0.042,0 -0.075,-0.025 -0.1208,-0.025 l -24.0334,0 c -0.042,0 -0.079,0.025 -0.1208,0.025 -0.042,0 -0.079,-0.025 -0.1208,-0.025 -1.475,-0.067 -2.6584,-1.2625 -2.6584,-2.75 0,-0.6209 0.2,-1.1875 0.5417,-1.6542 z m 40.4917,-66.25839 c -0.3208,-1.075 -1.275,-1.8708 -2.4542,-1.8708 -0.5291,0 -0.9916,0.1958 -1.4,0.4625 -0.062,0.042 -0.1208,0.075 -0.1833,0.1208 l -0.825,1.0417 -96.1834,122.01255 -0.4458,0.5917 c -0.4917,0.4875 -0.8084,1.1541 -0.8292,1.9041 l 0,149.93353 c 0,1.3166 1.075,2.3833 2.3958,2.3833 l 97.7668,0 c 1.325,0 2.3875,-1.0667 2.3875,-2.3833 l 0,-273.19608 c 0,-0.3583 -0.092,-0.7 -0.2292,-1 z" />
    <rect
       id="rect506"
       style="clip-rule:evenodd;fill:#a5183d;fill-rule:nonzero;stroke-miterlimit:2"
       height="670.36713"
       width="670.34631"
       y="365.75006"
       x="766.64758" />
    <path
       inkscape:connector-curvature="0"
       id="path508"
       style="clip-rule:evenodd;fill:#ffffff;fill-rule:nonzero;stroke-miterlimit:2"
       d="m 873.84378,526.41244 c 0,8.175 -2.9917,13.9583 -11.1625,13.9583 -7.9792,0 -10.9667,-5.7833 -10.9667,-13.9583 l 0,-21.9334 c 0,-8.1666 2.9875,-13.94999 10.9667,-13.94999 8.1708,0 11.1625,5.78339 11.1625,13.94999 l 0,21.9334 z m -21.3375,-74.75009 c 0,-8.1833 2.8,-12.97079 10.175,-12.97079 7.5667,0 10.3667,4.78749 10.3667,12.97079 l 0,9.1625 c 0,8.1709 -2.8,12.9667 -10.3667,12.9667 -7.375,0 -10.175,-4.7958 -10.175,-12.9667 l 0,-9.1625 z m 44.0625,72.35839 0,-14.7542 c 0,-12.9541 -4.5791,-22.32909 -15.15,-27.11659 8.9625,-4.375 13.1584,-12.3459 13.1584,-23.5167 l 0,-5.5875 c 0,-21.12919 -10.9667,-32.49169 -31.8959,-32.49169 -20.7292,0 -31.5042,11.3625 -31.5042,32.49169 l 0,5.5875 c 0,10.9708 3.9959,19.1417 12.7584,23.5167 -10.5626,4.7875 -14.9542,14.16249 -14.9542,27.11659 l 0,14.7542 c 0,20.5334 9.7792,34.8876 33.7,34.8876 24.1167,0 33.8875,-14.3542 33.8875,-34.8876 z" />
    <path
       inkscape:connector-curvature="0"
       id="path576"
       style="clip-rule:evenodd;fill:#ffffff;fill-rule:nonzero;stroke-miterlimit:2"
       d="m 1214.3899,732.07922 -58.9293,56.05839 c -2.2208,2.2125 -3.3625,3.8417 -3.3625,8.4208 l 0,157.10849 c 0,1.8458 1.5083,3.3542 3.3625,3.3542 l 60.8752,0 c 1.85,0 3.35,-1.5084 3.35,-3.3542 l 0,-220.17098 c 0,-1.8542 -1.45,-5.2417 -5.2959,-1.4167 z" />
    <path
       inkscape:connector-curvature="0"
       id="path578"
       style="clip-rule:evenodd;fill:#ffffff;fill-rule:nonzero;stroke-miterlimit:2"
       d="m 1044.6272,805.11677 -58.93762,56.05 c -2.2166,2.2167 -3.3583,3.8417 -3.3583,8.4084 l 0,84.09173 c 0,1.8375 1.5083,3.35 3.3583,3.35 l 60.87512,0 c 1.8583,0 3.3542,-1.5125 3.3542,-3.35 l 0,-147.14603 c 0,-1.8583 -1.4625,-5.24996 -5.2917,-1.4041 z" />
    <path
       inkscape:connector-curvature="0"
       id="path580"
       style="clip-rule:evenodd;fill:#ffffff;fill-rule:nonzero;stroke-miterlimit:2"
       d="m 1241.1774,664.10002 c 0.021,-0.4458 -0.1375,-0.925 -0.5,-1.2792 -0.3125,-0.3 -0.7041,-0.4416 -1.0916,-0.475 l -0.3209,0.021 -0.4833,0.025 -45.125,10.1834 -0.8209,0.083 c -0.3208,0.062 -0.625,0.2208 -0.8791,0.4583 -0.6625,0.675 -0.6625,1.7583 0,2.4292 l 0.5125,0.5083 10.3041,10.3042 -102.246,102.24589 -47.2208,-47.22919 c -0.5375,-0.5375 -1.3834,-0.5375 -1.9209,0 l -12.8125,12.81669 c -0.013,0 -0.013,0.017 -0.013,0.017 l -75.70002,75.68336 c -0.525,0.5375 -0.525,1.4041 0,1.925 l 12.8291,12.825 c 0.525,0.5333 1.3792,0.5333 1.9084,0 l 74.75422,-74.74166 34.2709,34.27496 c 0.037,0.054 0.054,0.1083 0.1083,0.1625 l 12.8167,12.8 c 0.5291,0.5417 1.3875,0.5417 1.9208,0 l 116.0419,-116.03755 10.825,10.8125 c 0.6625,0.675 1.75,0.675 2.4041,0 0.3167,-0.3167 0.4709,-0.7 0.4917,-1.1125 l 0.01,-0.1417 9.9125,-46.0625 0.025,-0.4958 z" />
    <path
       inkscape:connector-curvature="0"
       id="path582"
       style="clip-rule:evenodd;fill:#ffffff;fill-rule:nonzero;stroke-miterlimit:2"
       d="m 1129.8439,814.95427 -28.5167,28.7458 c -0.5416,0.4459 -1.3291,0.4334 -1.8333,-0.071 l -25.8292,-26.3333 c -4.7292,-4.7083 -5.75,-0.8875 -5.75,0.9625 l 0,135.40433 c 0,1.8416 1.4833,3.3541 3.3333,3.3541 l 60.8876,0 c 1.8458,0 3.35,-1.5125 3.35,-3.3541 l 0,-137.65013 c 0,-1.85 -1.4583,-5.2459 -5.6417,-1.0584 z" />
    <rect
       id="rect584"
       style="clip-rule:evenodd;fill:#c38d13;fill-rule:nonzero;stroke-miterlimit:2"
       height="670.37134"
       width="670.30878"
       y="365.74579"
       x="3739.7708" />
    <path
       inkscape:connector-curvature="0"
       id="path586"
       style="clip-rule:evenodd;fill:#ffffff;fill-rule:nonzero;stroke-miterlimit:2"
       d="m 3807.9663,453.64575 0.2042,0 0,103.46669 22.7208,0 0,-135.16258 -18.1583,0 -20.9166,24.52089 0,23.725 0.1958,0 15.9541,-16.55 z" />
    <path
       inkscape:connector-curvature="0"
       id="path588"
       style="clip-rule:evenodd;fill:#ffffff;fill-rule:nonzero;stroke-miterlimit:2"
       d="m 3844.4372,449.86655 0,16.3417 20.725,0 0,-16.95 c 0,-8.16669 4,-10.55839 8.7916,-10.55839 4.3751,0 8.1667,1.7875 8.1667,10.17089 l 0,11.1541 c 0,11.1709 -1,15.5501 -8.375,23.3251 l -12.75,13.55829 c -12.3667,13.1625 -16.9667,21.9334 -16.9667,35.2917 l 0,24.9209 59.0084,0 0,-18.5501 -37.2917,0 0,-6.3708 c 0,-10.5708 3.7917,-14.5583 9.5833,-20.7375 l 14.5417,-15.3459 c 11.7917,-12.55829 14.375,-20.54159 14.375,-34.09579 l 0,-13.15 c 0,-19.34589 -9.375,-28.51259 -29.7083,-28.51259 -19.9375,0 -30.1,10.5667 -30.1,29.50839 z" />
    <path
       inkscape:connector-curvature="0"
       id="path650"
       style="clip-rule:evenodd;fill:none;fill-rule:evenodd;stroke:#ffffff;stroke-width:3.04166913px;stroke-miterlimit:2"
       d="m 4246.329,733.11672 c -29.625,-23.3792 -68.8333,-23.8625 -83.1667,-20.4417 l -1.7083,0.3834 c -16.5834,3.9166 -42.9167,10.4 -73.7501,48.67919 -0.2083,0.2125 -0.375,0.4333 -0.5416,0.65 l -0.375,0.475 c -0.2917,0.425 -0.5,0.925 -0.5,1.4875 0,0.4625 0.083,0.8833 0.3333,1.2833 l 0.7083,1.1792 c 3.875,6.475 8.75,14.8083 12.875,22.4917 0.042,0.079 0.083,0.1416 0.125,0.2333 0.4167,0.85 1.2917,1.45 2.3334,1.45 0.7083,0 1.375,-0.2875 1.8333,-0.7417 0.1667,-0.2541 0.375,-0.5166 0.5417,-0.7833 27.375,-37.8625 48.9167,-43.0875 63.5,-46.51669 l 1.7084,-0.4083 c 7.5833,-1.8167 36.2916,-1.7084 57.0417,14.67079 16.2083,12.7834 24.4167,33.125 24.4167,60.44586 0,45.8417 -22.2917,63.775 -41.0001,70.7417 -28.9583,10.8334 -56.7917,-3.65 -56.9584,-3.7583 l -1.25,-0.6084 c -15.9166,-6.9125 -39.7083,-21.2916 -62.0833,-66.2625 -45.1251,-90.64165 -82.8751,-99.17505 -107.8751,-104.83335 l -1.3334,-0.2959 c -11.375,-2.5791 -50.8749,-4.4041 -81.9166,20.3792 -16.2083,12.94169 -35.5417,38.10009 -35.5417,84.45425 0,28.2458 5.7917,46.8958 20.7084,66.5167 3.2916,4.4708 36.7083,47.40833 101.3333,35.02503 10.3333,-1.9833 24.3333,-6.9208 39.75,-18.47083 l 14.2083,12.83333 c 0.9584,0.8417 2.4167,0.7708 3.2917,-0.1625 0.375,-0.4375 0.5417,-0.9958 0.5417,-1.5458 l 0,-0.1875 10.25,-63.11263 0.042,-0.7 c -0.042,-0.6125 -0.2917,-1.2417 -0.7917,-1.6792 -0.4167,-0.4125 -0.9583,-0.5708 -1.5,-0.5708 l -0.4167,0.042 -0.6666,0.067 -60.4584,16.925 -1.125,0.1792 c -0.4167,0.092 -0.8334,0.3208 -1.125,0.675 -0.875,0.9583 -0.7917,2.425 0.1666,3.2792 l 0.7084,0.6541 13.5417,12.2334 c -8.7501,5.6625 -16.3751,8.2625 -22.2084,9.3875 -46.75,8.9167 -69.7916,-21.7042 -70.7083,-22.9 l -0.2917,-0.45 c -10.875,-14.2625 -14.5416,-26.3792 -14.5416,-48.0376 0,-27.40416 8.0833,-47.74996 24,-60.46666 20.2082,-16.13329 48.0833,-16.22919 55.9583,-14.43749 l 1.375,0.3083 c 20.4583,4.63339 48.5,10.97499 87.125,88.57085 20.0834,40.2876 45.2084,66.6293 76.8334,80.52093 4.0417,2.0542 23.2084,11.1584 48.1251,11.1584 10.4583,0 21.875,-1.5917 33.5833,-5.9459 18.2917,-6.8416 60.9584,-30.21663 60.9584,-99.52503 0,-46.32506 -19.625,-71.53756 -36.0834,-84.53755 z" />
    <path
       inkscape:connector-curvature="0"
       id="path652"
       style="clip-rule:evenodd;fill:#ffffff;fill-rule:nonzero;stroke-miterlimit:2"
       d="m 4246.329,733.11672 c -29.625,-23.3792 -68.8333,-23.8625 -83.1667,-20.4417 l -1.7083,0.3834 c -16.5834,3.9166 -42.9167,10.4 -73.7501,48.67919 -0.2083,0.2125 -0.375,0.4333 -0.5416,0.65 l -0.375,0.475 c -0.2917,0.425 -0.5,0.925 -0.5,1.4875 0,0.4625 0.083,0.8833 0.3333,1.2833 l 0.7083,1.1792 c 3.875,6.475 8.75,14.8083 12.875,22.4917 0.042,0.079 0.083,0.1416 0.125,0.2333 0.4167,0.85 1.2917,1.45 2.3334,1.45 0.7083,0 1.375,-0.2875 1.8333,-0.7417 0.1667,-0.2541 0.375,-0.5166 0.5417,-0.7833 27.375,-37.8625 48.9167,-43.0875 63.5,-46.51669 l 1.7084,-0.4083 c 7.5833,-1.8167 36.2916,-1.7084 57.0417,14.67079 16.2083,12.7834 24.4167,33.125 24.4167,60.44586 0,45.8417 -22.2917,63.775 -41.0001,70.7417 -28.9583,10.8334 -56.7917,-3.65 -56.9584,-3.7583 l -1.25,-0.6084 c -15.9166,-6.9125 -39.7083,-21.2916 -62.0833,-66.2625 -45.1251,-90.64165 -82.8751,-99.17505 -107.8751,-104.83335 l -1.3334,-0.2959 c -11.375,-2.5791 -50.8749,-4.4041 -81.9166,20.3792 -16.2083,12.94169 -35.5417,38.10009 -35.5417,84.45425 0,28.2458 5.7917,46.8958 20.7084,66.5167 3.2916,4.4708 36.7083,47.40833 101.3333,35.02503 10.3333,-1.9833 24.3333,-6.9208 39.75,-18.47083 l 14.2083,12.83333 c 0.9584,0.8417 2.4167,0.7708 3.2917,-0.1625 0.375,-0.4375 0.5417,-0.9958 0.5417,-1.5458 l 0,-0.1875 10.25,-63.11263 0.042,-0.7 c -0.042,-0.6125 -0.2917,-1.2417 -0.7917,-1.6792 -0.4167,-0.4125 -0.9583,-0.5708 -1.5,-0.5708 l -0.4167,0.042 -0.6666,0.067 -60.4584,16.925 -1.125,0.1792 c -0.4167,0.092 -0.8334,0.3208 -1.125,0.675 -0.875,0.9583 -0.7917,2.425 0.1666,3.2792 l 0.7084,0.6541 13.5417,12.2334 c -8.7501,5.6625 -16.3751,8.2625 -22.2084,9.3875 -46.75,8.9167 -69.7916,-21.7042 -70.7083,-22.9 l -0.2917,-0.45 c -10.875,-14.2625 -14.5416,-26.3792 -14.5416,-48.0376 0,-27.40416 8.0833,-47.74996 24,-60.46666 20.2082,-16.13329 48.0833,-16.22919 55.9583,-14.43749 l 1.375,0.3083 c 20.4583,4.63339 48.5,10.97499 87.125,88.57085 20.0834,40.2876 45.2084,66.6293 76.8334,80.52093 4.0417,2.0542 23.2084,11.1584 48.1251,11.1584 10.4583,0 21.875,-1.5917 33.5833,-5.9459 18.2917,-6.8416 60.9584,-30.21663 60.9584,-99.52503 0,-46.32506 -19.625,-71.53756 -36.0834,-84.53755 z" />
    <rect
       id="rect692"
       style="clip-rule:evenodd;fill:#eb621f;fill-rule:nonzero;stroke-miterlimit:2"
       height="670.36298"
       width="670.34631"
       y="365.75006"
       x="1511.6608" />
    <path
       inkscape:connector-curvature="0"
       id="path694"
       style="clip-rule:evenodd;fill:#ffffff;fill-rule:nonzero;stroke-miterlimit:2"
       d="m 1611.911,476.66655 c -0.3959,7.5625 -3.5834,12.3459 -10.7542,12.3459 -7.7625,0 -10.7625,-4.7834 -10.7625,-13.5542 l 0,-23.5084 c 0,-8.5666 3.1833,-13.54579 10.9625,-13.54579 7.5667,0 10.5542,5.17919 10.5542,13.54579 l 0,24.7167 z m 22.5292,-20.725 c 0,-20.92919 -9.1792,-36.06249 -33.0834,-36.06249 -24.1167,0 -33.4709,13.1417 -33.4709,34.06249 l 0,19.9292 c 0,22.12079 8.7542,33.27499 25.1042,33.27499 9.5667,0 15.3375,-4.3875 18.725,-10.9542 l 0.1959,0 0,29.0834 c 0,8.1667 -3.1875,13.95 -11.35,13.95 -8.175,0 -11.1584,-4.7833 -11.1584,-13.1542 l 0,-8.9583 -20.7292,0 0,7.175 c 0,19.9208 7.1792,33.8667 32.2876,33.8667 23.9,0 33.4792,-15.3417 33.4792,-36.4625 l 0,-65.75009 z" />
    <path
       inkscape:connector-curvature="0"
       id="path696"
       style="clip-rule:evenodd;fill:#ffffff;fill-rule:nonzero;stroke-miterlimit:2"
       d="m 1975.9111,919.9794 -62.0667,35.8167 0,-71.64593 62.0667,-35.8292 0,71.65843 z m -205.0209,35.8167 0,-66.20013 57.3292,33.10423 -57.3292,33.0959 z m -9.4292,0 -62.0541,-35.8167 0,-71.65843 62.0541,35.8292 0,71.64593 z m 66.7584,-198.17939 -57.3292,33.1084 0,-66.20839 57.3292,33.09999 z m 76.1959,33.1042 -57.3251,-33.1042 57.3251,-33.09999 0,66.20419 z m -57.3251,49.42916 62.0376,-35.8125 62.0624,35.8125 -62.0624,35.8292 -62.0376,-35.8292 z m -14.15,-8.1666 -57.3334,-33.09166 57.3334,-33.1084 0,66.20006 z m 66.7584,-33.09166 -57.3292,33.09166 0,-66.20006 57.3292,33.1084 z m -66.7584,115.64169 -57.3375,-33.10423 57.3375,-33.1083 0,66.21253 z m 150.0417,-78.46673 -69.1375,-39.89996 0,-79.82089 c 0,-1.6834 -0.8958,-3.2417 -2.3541,-4.0834 l -71.4792,-41.2667 c -1.4584,-0.8416 -3.25,-0.8416 -4.7167,0 l -71.4792,41.2667 c -1.4584,0.8417 -2.3542,2.4 -2.3542,4.0834 l 0,79.82089 -69.125,39.89996 c -1.4666,0.8417 -2.3583,2.4 -2.3583,4.0833 l 0,82.55013 c 0,1.6875 0.8917,3.2458 2.3583,4.0875 l 71.4792,41.2625 c 0.7333,0.4167 1.5416,0.6292 2.3583,0.6292 0.8167,0 1.625,-0.2125 2.3583,-0.6292 l 69.1251,-39.9042 69.1167,39.9042 c 0.7333,0.4167 1.5417,0.6292 2.3542,0.6292 0.8208,0 1.6291,-0.2083 2.3625,-0.6292 l 71.4916,-41.2625 c 1.4583,-0.8417 2.3542,-2.4 2.3542,-4.0875 l 0,-82.55013 c 0,-1.6833 -0.8959,-3.2416 -2.3542,-4.0833 z" />
    <rect
       id="rect1214"
       style="clip-rule:evenodd;fill:#dd0b79;fill-rule:nonzero;stroke-miterlimit:2"
       height="670.3338"
       width="670.3338"
       y="365.75006"
       x="2252.7405" />
    <path
       inkscape:connector-curvature="0"
       id="path1216"
       style="clip-rule:evenodd;fill:#ffffff;fill-rule:nonzero;stroke-miterlimit:2"
       d="m 2319.4529,455.08325 0,102.93339 22.6125,0 0,-134.47098 -18.0542,0 -20.8208,24.39589 0,23.6083 0.1875,0 15.8667,-16.4666 0.2083,0 z" />
    <path
       inkscape:connector-curvature="0"
       id="path1218"
       style="clip-rule:evenodd;fill:#ffffff;fill-rule:nonzero;stroke-miterlimit:2"
       d="m 2380.3363,526.88324 0,-72.19999 c 0,-8.1292 2.975,-13.88339 10.7125,-13.88339 7.9333,0 10.9042,5.75419 10.9042,13.88339 l 0,72.19999 c 0,8.1375 -2.9709,13.875 -10.9042,13.875 -7.7375,0 -10.7125,-5.7375 -10.7125,-13.875 z m 44.2292,-3.5708 0,-65.05839 c 0,-21.02499 -10.5084,-36.29169 -33.5167,-36.29169 -22.8042,0 -33.3292,15.2667 -33.3292,36.29169 l 0,65.05839 c 0,20.8208 10.525,36.2917 33.3292,36.2917 23.0083,0 33.5167,-15.4709 33.5167,-36.2917 z" />
    <path
       inkscape:connector-curvature="0"
       id="path1220"
       style="clip-rule:evenodd;fill:#ffffff;fill-rule:nonzero;stroke-miterlimit:2"
       d="m 2647.7448,809.71677 -124.0001,0 c -0.7458,0 -1.3458,0.675 -1.3458,1.5042 l 0,37.2625 c 0,0.8458 0.6,1.5167 1.3458,1.5167 l 124.0001,0 c 0.7584,0 1.3625,-0.6709 1.3625,-1.5167 l 0,-37.2625 c 0,-0.8292 -0.6041,-1.5042 -1.3625,-1.5042 z" />
    <path
       inkscape:connector-curvature="0"
       id="path1222"
       style="clip-rule:evenodd;fill:#ffffff;fill-rule:nonzero;stroke-miterlimit:2"
       d="m 2647.7448,730.41672 -124.0001,0 c -0.7458,0 -1.3458,0.6792 -1.3458,1.5084 l 0,37.26669 c 0,0.8458 0.6,1.5125 1.3458,1.5125 l 124.0001,0 c 0.7584,0 1.3625,-0.6667 1.3625,-1.5125 l 0,-37.26669 c 0,-0.8292 -0.6041,-1.5084 -1.3625,-1.5084 z" />
    <path
       inkscape:connector-curvature="0"
       id="path1224"
       style="clip-rule:evenodd;fill:#ffffff;fill-rule:nonzero;stroke-miterlimit:2"
       d="m 2645.999,674.08332 -59.5167,-59.52079 c -0.4042,-0.4 -1.0542,-0.4 -1.4583,0 l -59.5209,59.52079 c -0.6459,0.65 -0.1875,1.7584 0.7291,1.7584 l 119.0418,0 c 0.9167,0 1.375,-1.1084 0.725,-1.7584 z" />
    <path
       inkscape:connector-curvature="0"
       id="path1226"
       style="clip-rule:evenodd;fill:#ffffff;fill-rule:nonzero;stroke-miterlimit:2"
       d="m 2701.874,850.45427 59.5209,-59.52086 c 0.4042,-0.4 0.4042,-1.05 0,-1.45 l -59.5209,-59.52079 c -0.6458,-0.65 -1.7541,-0.1917 -1.7541,0.725 l 0,119.04165 c 0,0.9167 1.1083,1.375 1.7541,0.725 z" />
    <path
       inkscape:connector-curvature="0"
       id="path1228"
       style="clip-rule:evenodd;fill:#ffffff;fill-rule:nonzero;stroke-miterlimit:2"
       d="m 2525.5031,906.3335 59.5209,59.5209 c 0.4041,0.4 1.0541,0.4 1.4583,0 l 59.5167,-59.5209 c 0.65,-0.65003 0.1917,-1.75413 -0.725,-1.75413 l -119.0418,0 c -0.9166,0 -1.375,1.1041 -0.7291,1.75413 z" />
    <path
       inkscape:connector-curvature="0"
       id="path1230"
       style="clip-rule:evenodd;fill:#ffffff;fill-rule:nonzero;stroke-miterlimit:2"
       d="m 2469.628,729.96262 -59.5209,59.52079 c -0.4,0.4 -0.4,1.05 0,1.45 l 59.5209,59.52086 c 0.6459,0.65 1.7584,0.1917 1.7584,-0.725 l 0,-119.04165 c 0,-0.9167 -1.1125,-1.375 -1.7584,-0.725 z" />
  </g>
</svg>
