<?xml version="1.0" encoding="UTF-8" standalone="no"?>
<!-- Created with Inkscape (http://www.inkscape.org/) -->

<svg
   xmlns:dc="http://purl.org/dc/elements/1.1/"
   xmlns:cc="http://creativecommons.org/ns#"
   xmlns:rdf="http://www.w3.org/1999/02/22-rdf-syntax-ns#"
   xmlns:svg="http://www.w3.org/2000/svg"
   xmlns="http://www.w3.org/2000/svg"
   xmlns:sodipodi="http://sodipodi.sourceforge.net/DTD/sodipodi-0.dtd"
   xmlns:inkscape="http://www.inkscape.org/namespaces/inkscape"
   width="200mm"
   height="200mm"
   viewBox="0 0 708.6614 708.6614"
   id="svg4174"
   version="1.1"
   inkscape:version="0.91 r13725"
   sodipodi:docname="objectif 3.svg">
  <defs
     id="defs4176" />
  <sodipodi:namedview
     id="base"
     pagecolor="#ffffff"
     bordercolor="#666666"
     borderopacity="1.0"
     inkscape:pageopacity="0.0"
     inkscape:pageshadow="2"
     inkscape:zoom="0.35"
     inkscape:cx="92.435686"
     inkscape:cy="520"
     inkscape:document-units="px"
     inkscape:current-layer="layer1"
     showgrid="false"
     inkscape:window-width="1366"
     inkscape:window-height="745"
     inkscape:window-x="-8"
     inkscape:window-y="-8"
     inkscape:window-maximized="1" />
  <metadata
     id="metadata4179">
    <rdf:RDF>
      <cc:Work
         rdf:about="">
        <dc:format>image/svg+xml</dc:format>
        <dc:type
           rdf:resource="http://purl.org/dc/dcmitype/StillImage" />
        <dc:title></dc:title>
      </cc:Work>
    </rdf:RDF>
  </metadata>
  <g
     inkscape:label="Calque 1"
     inkscape:groupmode="layer"
     id="layer1"
     transform="translate(0,-343.70075)">
    <rect
       id="rect106"
       style="clip-rule:evenodd;fill:#4c9b34;fill-rule:nonzero;stroke-miterlimit:2"
       height="670.32965"
       width="670.31299"
       y="365.24997"
       x="20.017677" />
    <path
       inkscape:connector-curvature="0"
       id="path108"
       style="clip-rule:evenodd;fill:#ffffff;fill-rule:nonzero;stroke-miterlimit:2"
       d="m 115.67186,558.39986 c 22.9334,0 32.8917,-12.1625 32.8917,-30.8958 l 0,-19.9334 c 0,-12.3583 -5.3791,-20.33749 -16.7375,-22.92499 9.3667,-2.9875 15.5459,-10.5667 15.5459,-21.925 l 0,-11.7625 c 0,-19.1375 -9.1709,-30.9 -30.1001,-30.9 -23.5291,0 -31.7042,13.95 -31.7042,33.8875 l 0,11.9583 20.7334,0 0,-13.7542 c 0,-8.3708 2.6,-13.15 9.7708,-13.15 7.1834,0 9.7625,4.7792 9.7625,12.1542 l 0,14.5542 c 0,7.1792 -4.7791,10.9583 -12.1541,10.9583 l -8.575,0 0,17.35419 9.5708,0 c 7.975,0 11.1583,3.7792 11.1583,10.9584 l 0,22.3291 c 0,7.1667 -3.1833,12.1625 -10.1625,12.1625 -7.7708,0 -10.5666,-5.1916 -10.5666,-13.1625 l 0,-19.3333 -20.7209,0 0,17.7375 c 0,20.5375 8.1667,33.6875 31.2875,33.6875 z" />
    <path
       inkscape:connector-curvature="0"
       id="path110"
       style="clip-rule:evenodd;fill:#ffffff;fill-rule:nonzero;stroke-miterlimit:2"
       d="m 580.32206,784.18332 c 0,-18.8583 -12.10419,-34.15 -30.42919,-34.15 -9.1708,0 -20.225,10.0375 -26.2292,16.2084 -6.0041,-6.1792 -16.3292,-16.2251 -25.4958,-16.2251 -18.3334,0 -31.1792,15.2917 -31.1792,34.1584 0,9.4333 3.7125,17.971 9.725,24.1543 l 46.9875,47.0792 46.9251,-47.025 -0.037,-0.033 c 6.0166,-6.1833 9.73329,-14.7293 9.73329,-24.1668 z" />
    <path
       inkscape:connector-curvature="0"
       id="path112"
       style="clip-rule:evenodd;fill:#ffffff;fill-rule:nonzero;stroke-miterlimit:2"
       d="m 380.26367,932.26272 c -0.1542,0 -0.3167,0 -0.4792,-0.017 -3.57081,-0.2167 -6.52081,-2.8667 -7.12911,-6.3959 l -23.8625,-139.0127 -36.1584,67.0377 c -1.5833,2.9375 -4.8917,4.5166 -8.1417,3.9291 -3.2792,-0.5791 -5.8083,-3.2041 -6.2875,-6.5 l -15.35,-107.2793 -28.0792,63.0751 c -1.2417,2.7834 -4,4.5792 -7.05,4.5792 l -109.1458,0 c -4.2667,0 -7.7167,-3.4583 -7.7167,-7.7167 0,-4.2625 3.45,-7.7166 7.7167,-7.7166 l 104.1333,0 36.9375,-82.9669 c 1.4,-3.1417 4.7042,-4.975 8.1167,-4.5042 3.4042,0.475 6.0833,3.1459 6.575,6.5501 l 15.8209,110.6168 35.6583,-66.1085 c 1.5625,-2.9041 4.7875,-4.4875 8.0417,-3.9541 3.2458,0.5333 5.7958,3.0666 6.3542,6.3125 l 22.10411,128.746 80.5583,-267.5962 c 0.9209,-3.0458 3.6125,-5.2208 6.7792,-5.4666 3.1792,-0.2375 6.1792,1.4708 7.5584,4.3375 l 42.3875,87.875 c 1.85,3.8417 0.2417,8.4501 -3.5917,10.3001 -3.8375,1.8541 -8.4583,0.2458 -10.3083,-3.5959 l -33.7667,-70.0084 -84.2916,279.9837 c -0.9834,3.2792 -4.0001,5.4958 -7.3834,5.4958 z" />
    <rect
       id="rect146"
       style="clip-rule:evenodd;fill:#c31723;fill-rule:nonzero;stroke-miterlimit:2"
       height="670.36713"
       width="670.34631"
       y="365.24997"
       x="761.09741" />
    <path
       inkscape:connector-curvature="0"
       id="path148"
       style="clip-rule:evenodd;fill:#ffffff;fill-rule:nonzero;stroke-miterlimit:2"
       d="m 845.97216,516.92486 20.3334,-55.62089 0.2041,0 0,55.62089 -20.5375,0 z m 20.1375,39.6625 21.5292,0 0,-21.925 9.175,0 0,-17.7375 -9.175,0 0,-95.50009 -22.3333,0 -39.2667,99.28339 0,13.9542 40.0708,0 0,21.925 z" />
    <path
       inkscape:connector-curvature="0"
       id="path150"
       style="clip-rule:evenodd;fill:#ffffff;fill-rule:nonzero;stroke-miterlimit:2"
       d="m 1058.3516,724.69162 -120.22934,-69.4209 0,224.5753 120.22934,36.275 0,-191.4294 z" />
    <path
       inkscape:connector-curvature="0"
       id="path152"
       style="clip-rule:evenodd;fill:#ffffff;fill-rule:nonzero;stroke-miterlimit:2"
       d="m 1071.5724,725.15002 0,191.0502 121.0084,-36.3833 0,-224.5378 -121.0084,69.8709 z" />
    <path
       inkscape:connector-curvature="0"
       id="path154"
       style="clip-rule:evenodd;fill:#ffffff;fill-rule:nonzero;stroke-miterlimit:2"
       d="m 1286.9559,649.58742 c 0,-7.8625 -6.3708,-14.2292 -14.2125,-14.2292 -7.8708,0 -14.2292,6.3667 -14.2292,14.2292 l 0,15.3333 28.4417,0 0,-15.3333 z" />
    <path
       inkscape:connector-curvature="0"
       id="path156"
       style="clip-rule:evenodd;fill:#ffffff;fill-rule:nonzero;stroke-miterlimit:2"
       d="m 1262.0434,875.86272 -3.5292,0 14.2292,49.7167 14.2042,-49.7167 -3.5292,0 3.5292,0 0,-199.8044 -28.4417,0 0,199.8044 3.5375,0 z" />
    <path
       inkscape:connector-curvature="0"
       id="path158"
       style="clip-rule:evenodd;fill:#ffffff;fill-rule:nonzero;stroke-miterlimit:2"
       d="m 1218.4017,664.91662 -12.8875,-10.1834 0,231.2003 -133.5835,43.1667 -13.5791,0 -132.99604,-37.15 0,-237.217 -12.8958,10.1834 0,236.0753 145.27934,40.2167 14.7916,0 134.0335,-42.5542 11.8375,-3.4834 0,-230.2544 z" />
    <rect
       id="rect160"
       style="clip-rule:evenodd;fill:#ffffff;fill-rule:nonzero;stroke-miterlimit:2"
       height="56.604206"
       width="9.5166731"
       y="419.84567"
       x="952.09741" />
    <path
       inkscape:connector-curvature="0"
       id="path162"
       style="clip-rule:evenodd;fill:#ffffff;fill-rule:nonzero;stroke-miterlimit:2"
       d="m 966.20556,464.26237 0,-7.5959 8.8542,0 0,7.7625 c 0,3.1709 1.4167,5.0084 4.675,5.0084 3.0042,0 4.3417,-2.0042 4.3417,-5.0084 l 0,-2.1708 c 0,-3.2584 -1.3375,-5.2584 -4.2625,-8.0167 l -5.5917,-5.5917 c -5.425,-5.3416 -7.9333,-8.6 -7.9333,-15.1125 l 0,-1.9208 c 0,-7.0125 4.0958,-12.4417 13.3625,-12.4417 9.5167,0 13.2708,4.6792 13.2708,12.8625 l 0,4.5875 -8.6791,0 0,-4.925 c 0,-3.2541 -1.5042,-4.8416 -4.5084,-4.8416 -2.675,0 -4.5083,1.5041 -4.5083,4.675 l 0,1.1666 c 0,3.175 1.7542,5.0125 4.5083,7.6834 l 6.0959,6.0125 c 5.175,5.2583 7.675,8.4333 7.675,14.6917 l 0,2.7583 c 0,7.7625 -4.175,13.275 -13.8542,13.275 -9.6875,0 -13.4459,-5.4292 -13.4459,-12.8583 z" />
    <path
       inkscape:connector-curvature="0"
       id="path164"
       style="clip-rule:evenodd;fill:#ffffff;fill-rule:nonzero;stroke-miterlimit:2"
       d="m 995.76816,419.84567 25.30004,0 0,7.7625 -7.85,0 0,48.8417 -9.6,0 0,-48.8417 -7.85004,0 0,-7.7625 z" />
    <path
       inkscape:connector-curvature="0"
       id="path166"
       style="clip-rule:evenodd;fill:#ffffff;fill-rule:nonzero;stroke-miterlimit:2"
       d="m 1034.6015,427.60817 0,17.6166 3.1667,0 c 3.2625,0 4.6792,-1.6666 4.6792,-4.675 l 0,-8.3458 c 0,-3.0917 -1.4167,-4.5958 -4.6792,-4.5958 l -3.1667,0 z m 0,22.8791 0,25.9626 -9.5166,0 0,-56.6042 13.8583,0 c 9.5958,0 13.1084,4.7583 13.1084,12.6875 l 0,7.2666 c 0,6.0917 -2.1709,9.6834 -7.6001,10.9375 l 9.1001,25.7126 -10.0167,0 -8.9334,-25.9626 z" />
    <path
       inkscape:connector-curvature="0"
       id="path168"
       style="clip-rule:evenodd;fill:#ffffff;fill-rule:nonzero;stroke-miterlimit:2"
       d="m 1084.4516,419.84567 0,42.8292 c 0,8.7666 -3.7542,14.4458 -13.4417,14.4458 -10.0167,0 -14.1917,-5.6792 -14.1917,-14.4458 l 0,-42.8292 9.5167,0 0,43.75 c 0,3.3375 1.3333,5.5917 4.675,5.5917 3.3417,0 4.675,-2.2542 4.675,-5.5917 l 0,-43.75 8.7667,0 z" />
    <path
       inkscape:connector-curvature="0"
       id="path170"
       style="clip-rule:evenodd;fill:#ffffff;fill-rule:nonzero;stroke-miterlimit:2"
       d="m 1098.3308,468.68737 14.4375,0 0,7.7625 -24.3751,0 0,-7.7625 14.9459,-41.0792 -13.4459,0 0,-7.7625 23.4626,0 0,7.7625 -15.025,41.0792 z" />
    <rect
       id="rect172"
       style="clip-rule:evenodd;fill:#ffffff;fill-rule:nonzero;stroke-miterlimit:2"
       height="56.604206"
       width="9.5166731"
       y="419.84567"
       x="1117.9602" />
    <path
       inkscape:connector-curvature="0"
       id="path174"
       style="clip-rule:evenodd;fill:#ffffff;fill-rule:nonzero;stroke-miterlimit:2"
       d="m 1151.8558,463.34147 0,-30.3875 c 0,-3.4208 -1.5042,-5.8458 -4.925,-5.8458 -3.3417,0 -4.8417,2.425 -4.8417,5.8458 l 0,30.3875 c 0,3.425 1.5,5.8459 4.8417,5.8459 3.4208,0 4.925,-2.4209 4.925,-5.8459 z m -19.2875,-1.5 0,-27.3833 c 0,-8.85 4.3417,-15.2834 14.3625,-15.2834 10.1,0 14.4417,6.4334 14.4417,15.2834 l 0,27.3833 c 0,8.7667 -4.3417,15.2792 -14.4417,15.2792 -10.0208,0 -14.3625,-6.5125 -14.3625,-15.2792 z" />
    <path
       inkscape:connector-curvature="0"
       id="path176"
       style="clip-rule:evenodd;fill:#ffffff;fill-rule:nonzero;stroke-miterlimit:2"
       d="m 1174.4016,440.88727 0,35.5626 -8.0083,0 0,-56.6042 9.3458,0 10.2751,32.4791 0,-32.4791 7.9291,0 0,56.6042 -8.35,0 -11.1917,-35.5626 z" />
    <path
       inkscape:connector-curvature="0"
       id="path178"
       style="clip-rule:evenodd;fill:#ffffff;fill-rule:nonzero;stroke-miterlimit:2"
       d="m 1198.96,419.84567 22.7084,0 0,7.7625 -13.1917,0 0,16.2 9.4333,0 0,7.6791 -9.4333,0 0,17.2001 13.1917,0 0,7.7625 -22.7084,0 0,-56.6042 z" />
    <path
       inkscape:connector-curvature="0"
       id="path180"
       style="clip-rule:evenodd;fill:#ffffff;fill-rule:nonzero;stroke-miterlimit:2"
       d="m 965.61806,547.47486 c 3.9251,0 5.4292,-2.3375 5.4292,-5.7625 l 0,-29.6375 c 0,-3.3417 -1.5041,-5.6792 -5.4292,-5.6792 l -4.0041,0 0,41.0792 4.0041,0 z m 14.9459,-33.65 0,26.2167 c 0,8.6833 -3.5875,15.1958 -13.7792,15.1958 l -14.6875,0 0,-56.6042 14.6875,0 c 10.1917,0 13.7792,6.4292 13.7792,15.1917 z" />
    <rect
       id="rect182"
       style="clip-rule:evenodd;fill:#ffffff;fill-rule:nonzero;stroke-miterlimit:2"
       height="56.604206"
       width="9.5166731"
       y="498.63327"
       x="985.58472" />
    <path
       inkscape:connector-curvature="0"
       id="path184"
       style="clip-rule:evenodd;fill:#ffffff;fill-rule:nonzero;stroke-miterlimit:2"
       d="m 1027.8349,542.63316 0,-30.8916 c 0,-3.425 -1.5042,-5.8459 -4.925,-5.8459 -3.3417,0 -4.8417,2.4209 -4.8417,5.8459 l 0,30.8916 c 0,3.3376 1.5,5.8417 4.8417,5.8417 3.4208,0 4.925,-2.5041 4.925,-5.8417 z m -8.4334,16.4459 0,-3.8417 c -7.5958,-1.3333 -10.85,-6.9291 -10.85,-14.6083 l 0,-27.3875 c 0,-8.8459 4.3375,-15.2792 14.3584,-15.2792 10.1041,0 14.4416,6.4333 14.4416,15.2792 l 0,27.3875 c 0,6.175 -2.1708,11.0208 -7.0125,13.3583 l 7.0125,1.3334 0,7.0958 -17.95,-3.3375 z" />
    <path
       inkscape:connector-curvature="0"
       id="path186"
       style="clip-rule:evenodd;fill:#ffffff;fill-rule:nonzero;stroke-miterlimit:2"
       d="m 1070.0057,498.63316 0,42.8292 c 0,8.7667 -3.7583,14.4417 -13.4458,14.4417 -10.0167,0 -14.1875,-5.675 -14.1875,-14.4417 l 0,-42.8292 9.5167,0 0,43.7459 c 0,3.3417 1.3333,5.5958 4.6708,5.5958 3.3417,0 4.675,-2.2541 4.675,-5.5958 l 0,-43.7459 8.7708,0 z" />
    <path
       inkscape:connector-curvature="0"
       id="path188"
       style="clip-rule:evenodd;fill:#ffffff;fill-rule:nonzero;stroke-miterlimit:2"
       d="m 1084.2099,537.28736 7.5958,0 -3.7541,-22.7083 -0.088,0 -3.7542,22.7083 z m -11.9375,17.95 10.6833,-56.6042 10.8542,0 10.7709,56.6042 -9.7667,0 -1.7542,-10.35 -10.1042,0 -1.6666,10.35 -9.0167,0 z" />
    <path
       inkscape:connector-curvature="0"
       id="path190"
       style="clip-rule:evenodd;fill:#ffffff;fill-rule:nonzero;stroke-miterlimit:2"
       d="m 1108.0933,498.63316 9.5208,0 0,48.8417 11.35,0 0,7.7625 -20.8708,0 0,-56.6042 z" />
    <rect
       id="rect192"
       style="clip-rule:evenodd;fill:#ffffff;fill-rule:nonzero;stroke-miterlimit:2"
       height="56.604206"
       width="9.5166731"
       y="498.63327"
       x="1132.9016" />
    <path
       inkscape:connector-curvature="0"
       id="path194"
       style="clip-rule:evenodd;fill:#ffffff;fill-rule:nonzero;stroke-miterlimit:2"
       d="m 1146.4266,498.63316 25.2959,0 0,7.7625 -7.85,0 0,48.8417 -9.6,0 0,-48.8417 -7.8459,0 0,-7.7625 z" />
    <path
       inkscape:connector-curvature="0"
       id="path196"
       style="clip-rule:evenodd;fill:#ffffff;fill-rule:nonzero;stroke-miterlimit:2"
       d="m 1182.0017,537.28736 7.5958,0 -3.7542,-22.7083 -0.088,0 -3.7541,22.7083 z m -3.425,-49.25839 14.9416,3.17089 0,5.3416 -14.9416,-1.9166 0,-6.59589 z m -8.5167,67.20839 10.6875,-56.6042 10.85,0 10.775,56.6042 -9.7667,0 -1.7541,-10.35 -10.1042,0 -1.6667,10.35 -9.0208,0 z" />
    <rect
       id="rect654"
       style="clip-rule:evenodd;fill:#e5341d;fill-rule:nonzero;stroke-miterlimit:2"
       height="670.36713"
       width="670.33795"
       y="365.24997"
       x="1504.1355" />
    <path
       inkscape:connector-curvature="0"
       id="path656"
       style="clip-rule:evenodd;fill:#ffffff;fill-rule:nonzero;stroke-miterlimit:2"
       d="m 1611.0227,464.22067 c -8.9708,0 -15.55,3.1875 -19.1375,9.3667 l -0.2042,0 0,-33.6876 39.0792,0 0,-18.5416 -59.8042,0 0,76.16249 20.725,0 0,-3.0042 c 0,-7.97499 3.5959,-12.35829 9.9667,-12.35829 6.9792,0 9.7792,4.7917 9.7792,12.17079 l 0,32.6917 c 0,7.1792 -2.5958,12.1584 -9.5792,12.1584 -7.775,0 -10.5583,-5.1834 -10.5583,-13.1542 l 0,-16.9458 -20.7459,0 0,15.35 c 0,20.5292 8.1792,33.6917 31.3042,33.6917 22.9292,0 32.2917,-12.1584 32.2917,-30.9001 l 0,-33.0958 c 0,-21.33339 -10.9583,-29.90419 -23.1167,-29.90419 z" />
    <path
       inkscape:connector-curvature="0"
       id="path658"
       style="clip-rule:evenodd;fill:#ffffff;fill-rule:nonzero;stroke-miterlimit:2"
       d="m 1838.1436,851.70022 c -44.2875,0 -80.3084,-36.0334 -80.3084,-80.321 0,-44.2917 36.0209,-80.3209 80.3084,-80.3209 44.2959,0 80.3293,36.0292 80.3293,80.3209 0,44.2876 -36.0334,80.321 -80.3293,80.321 z m 154.2543,-232.7962 -83.3125,0 c -0.5709,0 -1.0584,0.4709 -1.0584,1.0625 l 0,27.6834 c 0,0.5958 0.4875,1.0667 1.0584,1.0667 l 33.175,0 -36.8375,36.8458 c -18.5542,-14.5791 -41.9001,-23.3042 -67.2793,-23.3042 -60.1583,0 -109.1167,48.9501 -109.1167,109.121 0,55.4001 41.5042,101.246 95.0334,108.1793 l 0,31.9 -32.8584,0 c -0.6125,0 -1.075,0.475 -1.075,1.0542 l 0,29.675 c 0,0.5917 0.4625,1.0625 1.075,1.0625 l 32.8584,0 0,31.3917 c 0,0.5875 0.475,1.0584 1.0583,1.0584 l 29.6584,0 c 0.5917,0 1.075,-0.4709 1.075,-1.0584 l 0,-31.3917 32.8584,0 c 0.5875,0 1.0583,-0.4708 1.0583,-1.0625 l 0,-29.675 c 0,-0.5792 -0.4708,-1.0542 -1.0583,-1.0542 l -32.8584,0 0,-32.4166 c 51.775,-8.4959 91.4126,-53.5251 91.4126,-107.6627 0,-23.3542 -7.3959,-45.0001 -19.9292,-62.7626 l 36.3083,-36.3167 0,30.9834 c 0,0.5875 0.4917,1.0583 1.075,1.0583 l 27.6792,0 c 0.5917,0 1.0834,-0.4708 1.0834,-1.0583 l 0,-83.3168 c 0,-0.5916 -0.4917,-1.0625 -1.0834,-1.0625 z" />
    <path
       inkscape:connector-curvature="0"
       id="path660"
       style="clip-rule:evenodd;fill:#ffffff;fill-rule:nonzero;stroke-miterlimit:2"
       d="m 1887.2062,738.41252 -97.4209,0 c -0.5875,0 -1.0584,0.4333 -1.0584,0.95 l 0,23.5833 c 0,0.5542 0.4709,0.9667 1.0584,0.9667 l 97.4209,0 c 0.6042,0 1.075,-0.4125 1.075,-0.9667 l 0,-23.5833 c 0,-0.5167 -0.4708,-0.95 -1.075,-0.95 z" />
    <path
       inkscape:connector-curvature="0"
       id="path662"
       style="clip-rule:evenodd;fill:#ffffff;fill-rule:nonzero;stroke-miterlimit:2"
       d="m 1887.2062,780.52502 -97.4209,0 c -0.5875,0 -1.0584,0.4417 -1.0584,0.9792 l 0,23.5876 c 0,0.525 0.4709,0.95 1.0584,0.95 l 97.4209,0 c 0.6042,0 1.075,-0.425 1.075,-0.95 l 0,-23.5876 c 0,-0.5375 -0.4708,-0.9792 -1.075,-0.9792 z" />
    <path
       inkscape:connector-curvature="0"
       id="path664"
       style="clip-rule:evenodd;fill:#ffffff;fill-rule:nonzero;stroke-miterlimit:2"
       d="m 1707.2102,427.88727 0,22.1667 3.4875,0 c 3.2417,0 4.6542,-1.5792 4.6542,-4.65 l 0,-12.95 c 0,-3.0708 -1.4125,-4.5667 -4.6542,-4.5667 l -3.4875,0 z m -9.4625,-7.7208 14.0292,0 c 9.55,0 13.0333,4.7292 13.0333,12.6167 l 0,11.875 c 0,7.8833 -3.4833,12.7 -13.0333,12.7 l -4.5667,0 0,19.0917 -9.4625,0 0,-56.2834 z" />
    <path
       inkscape:connector-curvature="0"
       id="path666"
       style="clip-rule:evenodd;fill:#ffffff;fill-rule:nonzero;stroke-miterlimit:2"
       d="m 1735.5144,458.60397 7.5542,0 -3.7375,-22.5833 -0.083,0 -3.7333,22.5833 z m -11.8708,17.8459 10.625,-56.2834 10.7875,0 10.7166,56.2834 -9.7125,0 -1.7458,-10.2917 -10.0458,0 -1.6584,10.2917 -8.9666,0 z" />
    <path
       inkscape:connector-curvature="0"
       id="path668"
       style="clip-rule:evenodd;fill:#ffffff;fill-rule:nonzero;stroke-miterlimit:2"
       d="m 1767.8853,427.88727 0,17.5167 3.1583,0 c 3.2375,0 4.6458,-1.6625 4.6458,-4.65 l 0,-8.3 c 0,-3.0708 -1.4083,-4.5667 -4.6458,-4.5667 l -3.1583,0 z m 0,22.7459 0,25.8167 -9.4626,0 0,-56.2834 13.7834,0 c 9.5417,0 13.0333,4.7292 13.0333,12.6167 l 0,7.225 c 0,6.0583 -2.1625,9.6291 -7.5583,10.875 l 9.0458,25.5667 -9.9583,0 -8.8833,-25.8167 z" />
    <rect
       id="rect670"
       style="clip-rule:evenodd;fill:#ffffff;fill-rule:nonzero;stroke-miterlimit:2"
       height="56.283371"
       width="9.4625063"
       y="420.16647"
       x="1789.1313" />
    <path
       inkscape:connector-curvature="0"
       id="path672"
       style="clip-rule:evenodd;fill:#ffffff;fill-rule:nonzero;stroke-miterlimit:2"
       d="m 1801.7478,420.16647 25.1542,0 0,7.7208 -7.8084,0 0,48.5626 -9.5458,0 0,-48.5626 -7.8,0 0,-7.7208 z" />
    <path
       inkscape:connector-curvature="0"
       id="path674"
       style="clip-rule:evenodd;fill:#ffffff;fill-rule:nonzero;stroke-miterlimit:2"
       d="m 1836.2811,458.60397 7.5542,0 -3.7375,-22.5833 -0.083,0 -3.7334,22.5833 z m -3.4041,-48.9834 14.8583,3.1584 0,5.3125 -14.8583,-1.9084 0,-6.5625 z m -8.475,66.8293 10.6291,-56.2834 10.7917,0 10.7084,56.2834 -9.7125,0 -1.7417,-10.2917 -10.0459,0 -1.6583,10.2917 -8.9708,0 z" />
    <path
       inkscape:connector-curvature="0"
       id="path676"
       style="clip-rule:evenodd;fill:#ffffff;fill-rule:nonzero;stroke-miterlimit:2"
       d="m 1711.1977,547.58326 c 3.9,0 5.3958,-2.325 5.3958,-5.7292 l 0,-29.4709 c 0,-3.3208 -1.4958,-5.6458 -5.3958,-5.6458 l -3.9875,0 0,40.8459 3.9875,0 z m 14.8584,-33.4584 0,26.0667 c 0,8.6333 -3.5709,15.1083 -13.6959,15.1083 l -14.6125,0 0,-56.2834 14.6125,0 c 10.125,0 13.6959,6.3917 13.6959,15.1084 z" />
    <rect
       id="rect678"
       style="clip-rule:evenodd;fill:#ffffff;fill-rule:nonzero;stroke-miterlimit:2"
       height="56.283371"
       width="9.4666739"
       y="499.01657"
       x="1730.198" />
    <path
       inkscape:connector-curvature="0"
       id="path680"
       style="clip-rule:evenodd;fill:#ffffff;fill-rule:nonzero;stroke-miterlimit:2"
       d="m 1765.6436,525.24986 13.45,0 0,30.05 -6.8042,0 0,-6.1416 c -1.2458,4.2333 -3.9083,6.8083 -9.05,6.8083 -8.1333,0 -11.875,-6.475 -11.875,-15.1959 l 0,-27.225 c 0,-8.8 4.2375,-15.1958 14.1959,-15.1958 10.4625,0 13.5333,5.8125 13.5333,14.1167 l 0,4.9791 -8.6333,0 0,-5.7291 c 0,-3.4875 -1.325,-5.4792 -4.7334,-5.4792 -3.4041,0 -4.8958,2.4083 -4.8958,5.8125 l 0,30.2167 c 0,3.4042 1.4125,5.8125 4.6458,5.8125 3.0709,0 4.6542,-1.7458 4.6542,-5.3959 l 0,-9.9625 -4.4875,0 0,-7.4708 z" />
    <path
       inkscape:connector-curvature="0"
       id="path682"
       style="clip-rule:evenodd;fill:#ffffff;fill-rule:nonzero;stroke-miterlimit:2"
       d="m 1783.2394,499.01646 22.5792,0 0,7.7209 -13.1208,0 0,16.1042 9.3833,0 0,7.6375 -9.3833,0 0,17.1042 13.1208,0 0,7.7166 -22.5792,0 0,-56.2834 z" />
    <path
       inkscape:connector-curvature="0"
       id="path684"
       style="clip-rule:evenodd;fill:#ffffff;fill-rule:nonzero;stroke-miterlimit:2"
       d="m 1817.602,519.93736 0,35.3625 -7.9709,0 0,-56.2834 9.2959,0 10.2125,32.2917 0,-32.2917 7.8875,0 0,56.2834 -8.3,0 -11.125,-35.3625 z" />
    <path
       inkscape:connector-curvature="0"
       id="path686"
       style="clip-rule:evenodd;fill:#ffffff;fill-rule:nonzero;stroke-miterlimit:2"
       d="m 1841.1686,499.01646 22.5792,0 0,7.7209 -13.1208,0 0,16.1042 9.3833,0 0,7.6375 -9.3833,0 0,17.1042 13.1208,0 0,7.7166 -22.5792,0 0,-56.2834 z" />
    <path
       inkscape:connector-curvature="0"
       id="path688"
       style="clip-rule:evenodd;fill:#ffffff;fill-rule:nonzero;stroke-miterlimit:2"
       d="m 1877.0228,506.73736 0,17.5167 3.1584,0 c 3.2416,0 4.65,-1.6625 4.65,-4.65 l 0,-8.3 c 0,-3.075 -1.4084,-4.5667 -4.65,-4.5667 l -3.1584,0 z m 0,22.7458 0,25.8167 -9.4583,0 0,-56.2834 13.7792,0 c 9.5458,0 13.0333,4.7292 13.0333,12.6167 l 0,7.225 c 0,6.0584 -2.1583,9.6292 -7.5541,10.875 l 9.05,25.5667 -9.9667,0 -8.8834,-25.8167 z" />
    <path
       inkscape:connector-curvature="0"
       id="path690"
       style="clip-rule:evenodd;fill:#ffffff;fill-rule:nonzero;stroke-miterlimit:2"
       d="m 1898.2687,499.01646 22.5833,0 0,7.7209 -13.1208,0 0,16.1042 9.3833,0 0,7.6375 -9.3833,0 0,17.1042 13.1208,0 0,7.7166 -22.5833,0 0,-56.2834 z" />
    <rect
       id="rect856"
       style="clip-rule:evenodd;fill:#de1330;fill-rule:nonzero;stroke-miterlimit:2"
       height="671.36719"
       width="671.34631"
       y="365.24997"
       x="-1467.2583" />
    <path
       inkscape:connector-curvature="0"
       id="path858"
       style="clip-rule:evenodd;fill:#ffffff;fill-rule:nonzero;stroke-miterlimit:2"
       d="m -1373.5209,453.54147 0.1958,0 0,103.62509 22.7542,0 0,-135.36679 -18.1667,0 -20.9625,24.5584 0,23.75 0.2,0 15.9792,-16.5667 z" />
    <path
       inkscape:connector-curvature="0"
       id="path860"
       style="clip-rule:evenodd;fill:#ffffff;fill-rule:nonzero;stroke-miterlimit:2"
       d="m -950.233,685.54992 c 0,-10.275 8.3292,-18.5917 18.5958,-18.5917 10.2542,0 18.5584,8.3167 18.5584,18.5917 0,10.2625 -8.3042,18.5875 -18.5584,18.5875 -10.2666,0 -18.5958,-8.325 -18.5958,-18.5875 z" />
    <path
       inkscape:connector-curvature="0"
       id="path862"
       style="clip-rule:evenodd;fill:#ffffff;fill-rule:nonzero;stroke-miterlimit:2"
       d="m -909.9413,711.30412 c 12.6125,1.1417 22.4958,11.75 22.4958,24.6834 l 0,51.5208 c 0,3.9625 -3.2291,7.2002 -7.1958,7.2002 -3.9958,0 -7.2083,-3.2377 -7.2083,-7.2002 l 0,-44.25 c 0,-1.6583 -0.4834,-3.9042 -3.5167,-3.9042 -2.1,0 -2.5334,2.2209 -2.6125,3.6375 l 0,132.6252 c 0,5.7001 -4.6167,10.3542 -10.3417,10.3542 -5.7333,0 -10.3792,-4.6541 -10.3792,-10.3542 l 0,-76.425 c -0.029,-0.8458 -0.3083,-3.0375 -2.9375,-3.0375 l -0.013,0 c -2.6333,0 -2.9583,2.1917 -2.9833,3.0375 l 0,76.425 c 0,5.7001 -4.6167,10.3542 -10.3458,10.3542 -5.7376,0 -10.3542,-4.6541 -10.3542,-10.3542 l 0,-132.6252 c -0.071,-1.4166 -0.5209,-3.6375 -2.6042,-3.6375 -3.0542,0 -3.5125,2.2459 -3.5125,3.9042 l 0,44.25 c 0,3.9625 -3.2292,7.2002 -7.2083,7.2002 -3.9875,0 -7.1959,-3.2377 -7.1959,-7.2002 l 0,-51.5208 c 0,-12.9334 9.8917,-23.5417 22.5209,-24.6834 0.4125,-0.05 0.8625,-0.1125 1.3583,-0.1125 l 40.6209,0 c 0.5333,0 0.9708,0.062 1.4125,0.1125 z" />
    <path
       inkscape:connector-curvature="0"
       id="path864"
       style="clip-rule:evenodd;fill:#ffffff;fill-rule:nonzero;stroke-miterlimit:2"
       d="m -1060.754,695.31242 c 0,-9.7208 -7.8625,-17.6208 -17.5833,-17.6208 -9.7292,0 -17.6084,7.9 -17.6084,17.6208 0,9.725 7.8792,17.6001 17.6084,17.6001 9.7208,0 17.5833,-7.8751 17.5833,-17.6001 z" />
    <path
       inkscape:connector-curvature="0"
       id="path866"
       style="clip-rule:evenodd;fill:#ffffff;fill-rule:nonzero;stroke-miterlimit:2"
       d="m -1113.7999,735.17912 -14.6333,47.6251 c 0,0 -2.6083,8.7333 4.8,10.9125 7.3708,2.1793 9.6083,-6.3417 9.6083,-6.3417 l 11.7959,-39.75 c 0,0 0.6375,-3.0584 2.9375,-2.3959 2.3042,0.6584 1.4417,3.9292 1.4417,3.9292 l -20.5376,74.4918 19.0959,0 0,53.3542 c 0,5.0459 4.1083,9.1584 9.1792,9.1584 5.0625,0 9.1541,-4.1125 9.1541,-9.1584 l 0,-53.3542 5.2084,0 0,53.3542 c 0,5.0459 4.0916,9.1584 9.1666,9.1584 5.0792,0 9.1834,-4.1125 9.1834,-9.1584 l 0,-53.3542 19.0875,0 -20.5167,-74.4918 c 0,0 -0.8666,-3.2708 1.4292,-3.9292 2.3,-0.6625 2.9417,2.3959 2.9417,2.3959 l 11.7958,39.75 c 0,0 2.2417,8.521 9.5959,6.3417 7.4292,-2.1792 4.8083,-10.9125 4.8083,-10.9125 l -14.6333,-47.6251 c 0,0 -5.225,-13.7666 -16.8042,-13.7666 l -37.2917,0 c -11.5792,0 -16.8126,13.7666 -16.8126,13.7666 z" />
    <path
       inkscape:connector-curvature="0"
       id="path868"
       style="clip-rule:evenodd;fill:#ffffff;fill-rule:nonzero;stroke-miterlimit:2"
       d="m -1166.1624,695.31242 c 0,-9.7208 -7.875,-17.6208 -17.5958,-17.6208 -9.7251,0 -17.5959,7.9 -17.5959,17.6208 0,9.725 7.8708,17.6001 17.5959,17.6001 9.7208,0 17.5958,-7.8751 17.5958,-17.6001 z" />
    <path
       inkscape:connector-curvature="0"
       id="path870"
       style="clip-rule:evenodd;fill:#ffffff;fill-rule:nonzero;stroke-miterlimit:2"
       d="m -1219.2208,735.17912 -14.6208,47.6251 c 0,0 -2.6167,8.7333 4.7917,10.9125 7.3708,2.1793 9.6041,-6.3417 9.6041,-6.3417 l 11.8,-39.75 c 0,0 0.6375,-3.0584 2.9375,-2.3959 2.3084,0.6584 1.4334,3.9292 1.4334,3.9292 l -20.525,74.4918 19.0916,0 0,53.3542 c 0,5.0459 4.1209,9.1584 9.1792,9.1584 5.0667,0 9.1625,-4.1125 9.1625,-9.1584 l 0,-53.3542 5.2084,0 0,53.3542 c 0,5.0459 4.0791,9.1584 9.1708,9.1584 5.075,0 9.1708,-4.1125 9.1708,-9.1584 l 0,-53.3542 19.0959,0 -20.5167,-74.4918 c 0,0 -0.8708,-3.2708 1.4208,-3.9292 2.2959,-0.6625 2.9459,2.3959 2.9459,2.3959 l 11.7833,39.75 c 0,0 2.2459,8.521 9.6084,6.3417 7.4166,-2.1792 4.8,-10.9125 4.8,-10.9125 l -14.6334,-47.6251 c 0,0 -5.2125,-13.7666 -16.7958,-13.7666 l -37.2917,0 c -11.5709,0 -16.8209,13.7666 -16.8209,13.7666 z" />
    <path
       inkscape:connector-curvature="0"
       id="path872"
       style="clip-rule:evenodd;fill:#ffffff;fill-rule:nonzero;stroke-miterlimit:2"
       d="m -1001.6456,793.81252 c 8.1042,0 14.6417,-6.5583 14.6417,-14.6625 0,-8.1 -6.5375,-14.6375 -14.6417,-14.6375 -8.1041,0 -14.65,6.5375 -14.65,14.6375 0,8.1042 6.5459,14.6625 14.65,14.6625 z" />
    <path
       inkscape:connector-curvature="0"
       id="path874"
       style="clip-rule:evenodd;fill:#ffffff;fill-rule:nonzero;stroke-miterlimit:2"
       d="m -1036.7706,839.32102 c -0.7167,1.7125 -1.3042,5.3458 2.1375,6.9333 4.0292,1.85 6.275,-2.0458 6.275,-2.0458 l 7.9625,-25.3959 c 0,0 1.3875,-1.7 1.3875,0.058 l 0,59.7834 0.033,0 c 0,4.1625 3.35,7.5166 7.5167,7.5166 4.1542,0 7.5125,-3.3541 7.5125,-7.5166 l 0,-23.5917 c 0,0 -0.4375,-3.3375 2.2542,-3.3375 2.6875,0 2.275,3.3375 2.275,3.3375 l 0,23.5917 c 0,4.1625 3.3708,7.5166 7.525,7.5166 4.1458,0 7.5333,-3.3541 7.5333,-7.5166 l 0,-59.7834 c 0,-1.7584 0.9334,-0.5042 0.9334,-0.5042 l 6.2416,17.3875 c 0,0 2.7042,7.775 3.5417,8.1167 2.8167,1.1833 6.0667,-0.1625 7.2583,-3.0042 0.7792,-1.8541 0.4834,-3.8416 -0.5916,-5.3458 l 0.054,-0.054 c -0.1792,-0.5625 -9.3334,-23 -10.4125,-26.15 -3.3,-9.6458 -9.3125,-9.5625 -15.1042,-9.7208 -5.7917,-0.1375 -9.2542,0 -9.2542,0 0,0 -3.7,-0.15 -11.3458,0.075 -7.6334,0.2416 -10.0417,4.1541 -18.4667,25.8208 -1.2,3.1208 -5.2667,13.2125 -5.3208,13.8167 l 0.054,0.013 z" />
    <path
       inkscape:connector-curvature="0"
       id="path876"
       style="clip-rule:evenodd;fill:#ffffff;fill-rule:nonzero;stroke-miterlimit:2"
       d="m -1323.3417,685.54992 c 0,-10.275 -8.3375,-18.5917 -18.6,-18.5917 -10.2542,0 -18.5625,8.3167 -18.5625,18.5917 0,10.2625 8.3083,18.5875 18.5625,18.5875 10.2625,0 18.6,-8.325 18.6,-18.5875 z" />
    <path
       inkscape:connector-curvature="0"
       id="path878"
       style="clip-rule:evenodd;fill:#ffffff;fill-rule:nonzero;stroke-miterlimit:2"
       d="m -1363.6417,711.30412 c -12.6084,1.1417 -22.5042,11.75 -22.5042,24.6834 l 0,51.5208 c 0,3.9625 3.2333,7.2002 7.2167,7.2002 3.9833,0 7.2041,-3.2377 7.2041,-7.2002 l 0,-44.25 c 0,-1.6583 0.4792,-3.9042 3.5167,-3.9042 2.0917,0 2.5292,2.2209 2.6208,3.6375 l 0,132.6252 c 0,5.7001 4.6042,10.3542 10.3375,10.3542 5.7251,0 10.3542,-4.6541 10.3542,-10.3542 l 0,-76.425 c 0.042,-0.8458 0.3209,-3.0375 2.9542,-3.0375 l 0.01,0 c 2.6375,0 2.9625,2.1917 2.9833,3.0375 l 0,76.425 c 0,5.7001 4.6209,10.3542 10.3459,10.3542 5.7375,0 10.35,-4.6541 10.35,-10.3542 l 0,-132.6252 c 0.062,-1.4166 0.5333,-3.6375 2.6125,-3.6375 3.0542,0 3.5083,2.2459 3.5083,3.9042 l 0,44.25 c 0,3.9625 3.2292,7.2002 7.2084,7.2002 3.9791,0 7.2,-3.2377 7.2,-7.2002 l 0,-51.5208 c 0,-12.9334 -9.8875,-23.5417 -22.5167,-24.6834 -0.4209,-0.05 -0.8625,-0.1125 -1.3667,-0.1125 l -40.6167,0 c -0.5333,0 -0.9792,0.062 -1.4167,0.1125 z" />
    <path
       inkscape:connector-curvature="0"
       id="path880"
       style="clip-rule:evenodd;fill:none;fill-rule:evenodd;stroke:#ffffff;stroke-width:14.37501144px;stroke-linecap:round;stroke-miterlimit:2"
       d="m -1379.8501,794.99602 -16.5041,87.4834" />
    <path
       inkscape:connector-curvature="0"
       id="path882"
       style="clip-rule:evenodd;fill:#ffffff;fill-rule:nonzero;stroke-miterlimit:2"
       d="m -1288.9,786.13752 c -0.9583,-1.5 -2.6167,-2.5042 -4.5208,-2.5042 -2.9417,0 -5.3375,2.3959 -5.3375,5.325 0,0.8542 0.5208,2.3417 0.5208,2.3417 l 14.7708,26.7251 c 0,0 0.9042,1.8417 0.9042,3.525 l 0,57.3918 0.025,0 c 0,4.0041 3.2333,7.2208 7.225,7.2208 3.9875,0 7.1959,-3.2167 7.1959,-7.2208 l 0,-22.6459 c 0,0 -0.4042,-3.2083 2.1833,-3.2083 2.5792,0 2.175,3.2083 2.175,3.2083 l 0,22.6459 c 0,4.0041 3.2417,7.2208 7.2292,7.2208 3.9833,0 7.2291,-3.2167 7.2291,-7.2208 l 0,-57.3918 c 0,-1.6833 0.8959,-3.525 0.8959,-3.525 l 13.65,-24.6709 c 0,0 1.6708,-3.5417 1.6708,-4.3959 0,-2.9291 -2.3917,-5.325 -5.3417,-5.325 -1.9333,0 -3.5833,1.0042 -4.5208,2.5042 l -0.058,-0.029 c -0.4292,0.3667 -7.2625,12.5418 -9.5208,14.8002 -2.3875,2.4041 -4.5209,2.1375 -4.5209,2.1375 l -17.7542,0 c 0,0 -2.15,0.2666 -4.525,-2.1375 -2.2875,-2.2584 -9.0958,-14.4335 -9.5291,-14.8002 l -0.046,0.029 z" />
    <path
       inkscape:connector-curvature="0"
       id="path884"
       style="clip-rule:evenodd;fill:#ffffff;fill-rule:nonzero;stroke-miterlimit:2"
       d="m -1265.9333,793.81252 c 8.1,0 14.6417,-6.5583 14.6417,-14.6625 0,-8.1 -6.5417,-14.6375 -14.6417,-14.6375 -8.1,0 -14.6417,6.5375 -14.6417,14.6375 0,8.1042 6.5417,14.6625 14.6417,14.6625 z" />
    <path
       inkscape:connector-curvature="0"
       id="path886"
       style="clip-rule:evenodd;fill:#ffffff;fill-rule:nonzero;stroke-miterlimit:2"
       d="m -1265.9083,814.37512 16.5542,12.075 7.8708,28.9709 -48.8709,0 7.8875,-28.9709 16.5584,-12.075 z" />
    <rect
       id="rect928"
       style="clip-rule:evenodd;fill:#39bbe4;fill-rule:nonzero;stroke-miterlimit:2"
       height="670.58795"
       width="670.55884"
       y="365.24997"
       x="2248.1279" />
    <path
       inkscape:connector-curvature="0"
       id="path930"
       style="clip-rule:evenodd;fill:#ffffff;fill-rule:nonzero;stroke-miterlimit:2"
       d="m 2339.0106,501.59146 c 0.4,-7.575 3.5917,-12.35829 10.7667,-12.35829 7.775,0 10.7667,4.78329 10.7667,13.56249 l 0,23.5334 c 0,8.5708 -3.1792,13.5583 -10.9625,13.5583 -7.5834,0 -10.5709,-5.1833 -10.5709,-13.5583 l 0,-24.7376 z m 10.5709,56.8459 c 24.1041,0 33.5208,-13.1666 33.5208,-34.1083 l 0,-19.9459 c 0,-22.13329 -8.7917,-33.29999 -25.1542,-33.29999 -9.5708,0 -15.3458,4.3958 -18.7417,10.9708 l -0.1958,0 0,-29.1167 c 0,-8.1833 2.5958,-13.9625 10.7667,-13.9625 8.1708,0 10.5708,4.7959 10.5708,13.1667 l 0,8.9709 20.7542,0 0,-7.1751 c 0,-19.95 -6.5833,-33.9 -31.7208,-33.9 -23.9334,0 -32.9084,15.35 -32.9084,36.4875 l 0,65.80839 c 0,20.9459 9.1708,36.1042 33.1084,36.1042 z" />
    <path
       inkscape:connector-curvature="0"
       id="path932"
       style="clip-rule:evenodd;fill:#ffffff;fill-rule:nonzero;stroke-miterlimit:2"
       d="m 2679.6025,729.91252 c -5.4167,-2.3917 -12.3334,-1.5292 -18.9167,1.15 -24.875,10.075 -41.7917,13.7041 -67.9584,5.5125 -16.4584,-5.1542 -31.875,-15.95 -50.0834,-9.375 -12.0833,4.3458 -23.3333,8.4958 -37,8.3875 l -7.9167,-40.4667 187.5418,0 -5.6666,34.7917 z m -63.5834,120.171 c 0,0 -9.0834,9.3542 -23.9167,8.3417 -14.8334,1.0125 -23.9167,-8.3417 -23.9167,-8.3417 -15,-15 -9.6667,-33.6584 -4.4167,-43.3 3.2084,-6.0375 26.2917,-40.6793 28.25,-43.6252 l 0,-0.2333 c 0,0 0.042,0.046 0.083,0.1125 l 0.083,-0.1125 0,0.2333 c 1.9584,2.9459 25.0417,37.5877 28.2917,43.6252 5.2083,9.6416 10.5417,28.3 -4.4583,43.3 z m 77.4584,-163.0086 c -0.4584,-0.5083 -1.0834,-0.7958 -1.8334,-0.7958 l -200.3751,0 c -0.6667,0 -1.3334,0.2875 -1.7917,0.7958 -0.4167,0.5584 -0.625,1.25 -0.5,1.8959 l 33.6667,203.6169 c 0.1667,1.125 1.1667,1.9625 2.2917,1.9625 l 41.3333,0 2.8334,33.1625 -17.375,0.021 40.4583,40.4542 40.5417,-40.5459 -17.375,0.017 2.7917,-33.1084 42.0833,0 c 1.125,0 2.125,-0.8375 2.2917,-2 l 31.5,-203.5794 c 0.083,-0.7 -0.125,-1.3667 -0.5416,-1.8959 z" />
    <path
       inkscape:connector-curvature="0"
       id="path934"
       style="clip-rule:evenodd;fill:#ffffff;fill-rule:nonzero;stroke-miterlimit:2"
       d="m 2451.1023,460.27477 7.625,0 -3.75,-22.7208 -0.083,0 -3.7916,22.7208 z m -11.9166,17.9584 10.6666,-56.6334 10.875,0 10.7917,56.6334 -9.7917,0 -1.75,-10.3583 -10.125,0 -1.6667,10.3583 -8.9999,0 z" />
    <path
       inkscape:connector-curvature="0"
       id="path936"
       style="clip-rule:evenodd;fill:#ffffff;fill-rule:nonzero;stroke-miterlimit:2"
       d="m 2473.769,463.61237 0,-27.3959 c 0,-8.8542 4.1666,-15.2875 14.2083,-15.2875 10.5,0 13.4167,5.85 13.4167,14.2 l 0,6.6833 -8.6667,0 0,-7.4333 c 0,-3.5083 -1.1667,-5.5125 -4.5833,-5.5125 -3.4167,0 -4.875,2.4208 -4.875,5.8458 l 0,30.4042 c 0,3.425 1.4583,5.85 4.875,5.85 3.4166,0 4.5833,-2.1708 4.5833,-5.5125 l 0,-10.4458 8.6667,0 0,9.775 c 0,8.1042 -3.3334,14.1167 -13.4167,14.1167 -10.0417,0 -14.2083,-6.5167 -14.2083,-15.2875 z" />
    <path
       inkscape:connector-curvature="0"
       id="path938"
       style="clip-rule:evenodd;fill:#ffffff;fill-rule:nonzero;stroke-miterlimit:2"
       d="m 2525.4773,465.62067 0,-30.9084 c 0,-3.425 -1.5,-5.8458 -4.9166,-5.8458 -3.375,0 -4.875,2.4208 -4.875,5.8458 l 0,30.9084 c 0,3.3417 1.5,5.8458 4.875,5.8458 3.4166,0 4.9166,-2.5041 4.9166,-5.8458 z m -8.4583,16.4542 0,-3.8417 c -7.5834,-1.3375 -10.8334,-6.9333 -10.8334,-14.6208 l 0,-27.3959 c 0,-8.8542 4.3334,-15.2875 14.3751,-15.2875 10.0833,0 14.4166,6.4333 14.4166,15.2875 l 0,27.3959 c 0,6.1833 -2.1666,11.0291 -7,13.3666 l 7,1.3375 0,7.1 -17.9583,-3.3416 z" />
    <path
       inkscape:connector-curvature="0"
       id="path940"
       style="clip-rule:evenodd;fill:#ffffff;fill-rule:nonzero;stroke-miterlimit:2"
       d="m 2567.644,421.59977 0,42.8501 c 0,8.7708 -3.75,14.45 -13.4166,14.45 -10.0417,0 -14.2084,-5.6792 -14.2084,-14.45 l 0,-42.8501 9.5,0 0,43.7709 c 0,3.3417 1.3333,5.5958 4.7084,5.5958 3.3333,0 4.6666,-2.2541 4.6666,-5.5958 l 0,-43.7709 8.75,0 z" />
    <path
       inkscape:connector-curvature="0"
       id="path942"
       style="clip-rule:evenodd;fill:#ffffff;fill-rule:nonzero;stroke-miterlimit:2"
       d="m 2581.8524,460.27477 7.625,0 -3.7917,-22.7208 -0.083,0 -3.75,22.7208 z m -11.9167,17.9584 10.6667,-56.6334 10.875,0 10.75,56.6334 -9.75,0 -1.75,-10.3583 -10.125,0 -1.6667,10.3583 -9,0 z" />
    <path
       inkscape:connector-curvature="0"
       id="path944"
       style="clip-rule:evenodd;fill:#ffffff;fill-rule:nonzero;stroke-miterlimit:2"
       d="m 2623.6441,429.36647 0,22.3042 3.5,0 c 3.25,0 4.6666,-1.5875 4.6666,-4.6792 l 0,-13.0292 c 0,-3.0916 -1.4166,-4.5958 -4.6666,-4.5958 l -3.5,0 z m -9.5417,-7.7667 14.125,0 c 9.625,0 13.125,4.7625 13.125,12.6959 l 0,11.9458 c 0,7.9333 -3.5,12.7792 -13.125,12.7792 l -4.5833,0 0,19.2125 -9.5417,0 0,-56.6334 z" />
    <path
       inkscape:connector-curvature="0"
       id="path946"
       style="clip-rule:evenodd;fill:#ffffff;fill-rule:nonzero;stroke-miterlimit:2"
       d="m 2673.5191,421.59977 0,42.8501 c 0,8.7708 -3.7917,14.45 -13.4583,14.45 -10.0417,0 -14.2084,-5.6792 -14.2084,-14.45 l 0,-42.8501 9.5417,0 0,43.7709 c 0,3.3417 1.3333,5.5958 4.6667,5.5958 3.3333,0 4.6666,-2.2541 4.6666,-5.5958 l 0,-43.7709 8.7917,0 z" />
    <path
       inkscape:connector-curvature="0"
       id="path948"
       style="clip-rule:evenodd;fill:#ffffff;fill-rule:nonzero;stroke-miterlimit:2"
       d="m 2678.5191,421.59977 9.5,0 0,48.8626 11.375,0 0,7.7708 -20.875,0 0,-56.6334 z" />
    <rect
       id="rect950"
       style="clip-rule:evenodd;fill:#ffffff;fill-rule:nonzero;stroke-miterlimit:2"
       height="56.633369"
       width="9.5416737"
       y="421.59982"
       x="2703.3115" />
    <path
       inkscape:connector-curvature="0"
       id="path952"
       style="clip-rule:evenodd;fill:#ffffff;fill-rule:nonzero;stroke-miterlimit:2"
       d="m 2716.8525,421.59977 25.3333,0 0,7.7667 -7.875,0 0,48.8667 -9.5833,0 0,-48.8667 -7.875,0 0,-7.7667 z" />
    <path
       inkscape:connector-curvature="0"
       id="path954"
       style="clip-rule:evenodd;fill:#ffffff;fill-rule:nonzero;stroke-miterlimit:2"
       d="m 2752.4358,460.27477 7.6251,0 -3.7917,-22.7208 -0.042,0 -3.7917,22.7208 z m -11.9166,17.9584 10.6666,-56.6334 10.8751,0 10.75,56.6334 -9.75,0 -1.75,-10.3583 -10.1251,0 -1.6666,10.3583 -9,0 z" />
    <path
       inkscape:connector-curvature="0"
       id="path956"
       style="clip-rule:evenodd;fill:#ffffff;fill-rule:nonzero;stroke-miterlimit:2"
       d="m 2440.6857,500.40816 22.7082,0 0,7.7709 -13.2083,0 0,16.2041 9.4583,0 0,7.6875 -9.4583,0 0,17.2084 13.2083,0 0,7.7667 -22.7082,0 0,-56.6376 z" />
    <path
       inkscape:connector-curvature="0"
       id="path958"
       style="clip-rule:evenodd;fill:#ffffff;fill-rule:nonzero;stroke-miterlimit:2"
       d="m 2475.9356,544.84986 0,-7.6042 8.8334,0 0,7.7709 c 0,3.175 1.4583,5.0125 4.7083,5.0125 3,0 4.3333,-2.0042 4.3333,-5.0125 l 0,-2.1709 c 0,-3.2583 -1.3333,-5.2666 -4.25,-8.0208 l -5.625,-5.5958 c -5.4166,-5.3459 -7.9166,-8.6042 -7.9166,-15.1167 l 0,-1.925 c 0,-7.0167 4.0833,-12.4459 13.375,-12.4459 9.5,0 13.25,4.6792 13.25,12.8626 l 0,4.5958 -8.6667,0 0,-4.9292 c 0,-3.2583 -1.5,-4.8416 -4.5,-4.8416 -2.6667,0 -4.5417,1.5 -4.5417,4.675 l 0,1.1708 c 0,3.175 1.7917,5.0125 4.5417,7.6833 l 6.0833,6.0125 c 5.1667,5.2667 7.7084,8.4375 7.7084,14.7042 l 0,2.7542 c 0,7.7708 -4.2084,13.2833 -13.875,13.2833 -9.7084,0 -13.4584,-5.4291 -13.4584,-12.8625 z" />
    <path
       inkscape:connector-curvature="0"
       id="path960"
       style="clip-rule:evenodd;fill:#ffffff;fill-rule:nonzero;stroke-miterlimit:2"
       d="m 2507.8523,500.40816 22.7084,0 0,7.7709 -13.2084,0 0,16.2041 9.4584,0 0,7.6875 -9.4584,0 0,17.2084 13.2084,0 0,7.7667 -22.7084,0 0,-56.6376 z" />
    <path
       inkscape:connector-curvature="0"
       id="path962"
       style="clip-rule:evenodd;fill:#ffffff;fill-rule:nonzero;stroke-miterlimit:2"
       d="m 2544.769,508.17906 0,17.625 3.1667,0 c 3.25,0 4.6667,-1.6709 4.6667,-4.6792 l 0,-8.3542 c 0,-3.0875 -1.4167,-4.5916 -4.6667,-4.5916 l -3.1667,0 z m 0,22.8875 0,25.9792 -9.5417,0 0,-56.6376 13.875,0 c 9.6251,0 13.1251,4.7625 13.1251,12.7 l 0,7.2667 c 0,6.0958 -2.1667,9.6875 -7.5834,10.9417 l 9.0834,25.7292 -10,0 -8.9584,-25.9792 z" />
    <path
       inkscape:connector-curvature="0"
       id="path964"
       style="clip-rule:evenodd;fill:#ffffff;fill-rule:nonzero;stroke-miterlimit:2"
       d="m 2596.6441,500.40816 -10.7917,56.6376 -10.3334,0 -10.7916,-56.6376 9.7083,0 6.5,39.5125 0.083,0 6.7084,-39.5125 8.9167,0 z" />
    <rect
       id="rect966"
       style="clip-rule:evenodd;fill:#ffffff;fill-rule:nonzero;stroke-miterlimit:2"
       height="56.637539"
       width="9.5416737"
       y="500.40817"
       x="2600.145" />
    <path
       inkscape:connector-curvature="0"
       id="path968"
       style="clip-rule:evenodd;fill:#ffffff;fill-rule:nonzero;stroke-miterlimit:2"
       d="m 2624.0607,549.27906 14.4584,0 0,7.7667 -24.4167,0 0,-7.7667 14.9583,-41.1 -13.4583,0 0,-7.7709 23.5,0 0,7.7709 -15.0417,41.1 z" />
    <rect
       id="rect970"
       style="clip-rule:evenodd;fill:#ffffff;fill-rule:nonzero;stroke-miterlimit:2"
       height="56.637539"
       width="9.5000067"
       y="500.40817"
       x="2643.6865" />
    <rect
       id="rect972"
       style="clip-rule:evenodd;fill:#ffffff;fill-rule:nonzero;stroke-miterlimit:2"
       height="56.629204"
       width="9.5000067"
       y="579.2251"
       x="2440.6865" />
    <path
       inkscape:connector-curvature="0"
       id="path974"
       style="clip-rule:evenodd;fill:#ffffff;fill-rule:nonzero;stroke-miterlimit:2"
       d="m 2469.6856,605.61652 13.5,0 0,30.2376 -6.8333,0 0,-6.1792 c -1.25,4.2583 -3.9167,6.85 -9.125,6.85 -8.1667,0 -11.9167,-6.5167 -11.9167,-15.2875 l 0,-27.3959 c 0,-8.85417 4.25,-15.28747 14.2917,-15.28747 10.5,0 13.5833,5.8458 13.5833,14.19997 l 0,5.0125 -8.6666,0 0,-5.7666 c 0,-3.50417 -1.3334,-5.50837 -4.75,-5.50837 -3.4584,0 -4.9584,2.4209 -4.9584,5.84587 l 0,30.4041 c 0,3.425 1.4167,5.8459 4.7084,5.8459 3.0833,0 4.6666,-1.7542 4.6666,-5.4292 l 0,-10.0208 -4.5,0 0,-7.5209 z" />
    <rect
       id="rect976"
       style="clip-rule:evenodd;fill:#ffffff;fill-rule:nonzero;stroke-miterlimit:2"
       height="56.629204"
       width="9.5000067"
       y="579.2251"
       x="2488.228" />
    <path
       inkscape:connector-curvature="0"
       id="path978"
       style="clip-rule:evenodd;fill:#ffffff;fill-rule:nonzero;stroke-miterlimit:2"
       d="m 2502.8523,579.22485 22.7084,0 0,7.7667 -13.2084,0 0,16.20417 9.4584,0 0,7.6833 -9.4584,0 0,17.2084 13.2084,0 0,7.7667 -22.7084,0 0,-56.62927 z" />
    <path
       inkscape:connector-curvature="0"
       id="path980"
       style="clip-rule:evenodd;fill:#ffffff;fill-rule:nonzero;stroke-miterlimit:2"
       d="m 2538.269,600.27072 0,35.5834 -8.0417,0 0,-56.62927 9.375,0 10.25,32.49167 0,-32.49167 7.9584,0 0,56.62927 -8.375,0 -11.1667,-35.5834 z" />
    <rect
       id="rect982"
       style="clip-rule:evenodd;fill:#ffffff;fill-rule:nonzero;stroke-miterlimit:2"
       height="56.629204"
       width="9.5416737"
       y="579.2251"
       x="2562.8115" />
    <path
       inkscape:connector-curvature="0"
       id="path984"
       style="clip-rule:evenodd;fill:#ffffff;fill-rule:nonzero;stroke-miterlimit:2"
       d="m 2577.4357,621.23742 0,-27.3959 c 0,-8.85417 4.1667,-15.28747 14.2083,-15.28747 10.5001,0 13.4167,5.8458 13.4167,14.19997 l 0,6.6834 -8.6666,0 0,-7.4375 c 0,-3.50417 -1.1667,-5.50837 -4.5834,-5.50837 -3.4167,0 -4.8333,2.4209 -4.8333,5.84587 l 0,30.4041 c 0,3.425 1.4166,5.8459 4.8333,5.8459 3.4167,0 4.5834,-2.1709 4.5834,-5.5125 l 0,-10.4417 8.6666,0 0,9.775 c 0,8.1042 -3.3333,14.1167 -13.4167,14.1167 -10.0416,0 -14.2083,-6.5167 -14.2083,-15.2875 z" />
    <path
       inkscape:connector-curvature="0"
       id="path986"
       style="clip-rule:evenodd;fill:#ffffff;fill-rule:nonzero;stroke-miterlimit:2"
       d="m 2629.1441,622.74152 0,-30.4041 c 0,-3.42497 -1.5,-5.84587 -4.9167,-5.84587 -3.375,0 -4.875,2.4209 -4.875,5.84587 l 0,30.4041 c 0,3.425 1.5,5.8459 4.875,5.8459 3.4167,0 4.9167,-2.4209 4.9167,-5.8459 z m -19.2917,-1.5041 0,-27.3959 c 0,-8.85417 4.3333,-15.28747 14.375,-15.28747 10.0833,0 14.4584,6.4333 14.4584,15.28747 l 0,27.3959 c 0,8.7708 -4.3751,15.2875 -14.4584,15.2875 -10.0417,0 -14.375,-6.5167 -14.375,-15.2875 z" />
    <rect
       id="rect988"
       style="clip-rule:evenodd;fill:#ffffff;fill-rule:nonzero;stroke-miterlimit:2"
       height="7.6875052"
       width="13.375008"
       y="602.35834"
       x="2643.1035" />
    <path
       inkscape:connector-curvature="0"
       id="path990"
       style="clip-rule:evenodd;fill:#ffffff;fill-rule:nonzero;stroke-miterlimit:2"
       d="m 2659.1441,623.66242 0,-7.6042 8.8333,0 0,7.7708 c 0,3.1709 1.4167,5.0084 4.7084,5.0084 3,0 4.3333,-2.0042 4.3333,-5.0084 l 0,-2.1708 c 0,-3.2625 -1.3333,-5.2667 -4.25,-8.0208 l -5.625,-5.5959 c -5.4167,-5.3458 -7.9167,-8.6041 -7.9167,-15.1208 l 0,-1.92077 c 0,-7.0167 4.0834,-12.4459 13.375,-12.4459 9.5001,0 13.2501,4.675 13.2501,12.8625 l 0,4.59587 -8.6667,0 0,-4.92917 c 0,-3.2583 -1.5,-4.8458 -4.5,-4.8458 -2.7084,0 -4.5417,1.5041 -4.5417,4.6791 l 0,1.17087 c 0,3.175 1.75,5.0125 4.5417,7.6833 l 6.0833,6.0167 c 5.1667,5.2583 7.6667,8.4333 7.6667,14.7 l 0,2.7541 c 0,7.7709 -4.1667,13.2834 -13.8334,13.2834 -9.7083,0 -13.4583,-5.4292 -13.4583,-12.8625 z" />
    <path
       inkscape:connector-curvature="0"
       id="path992"
       style="clip-rule:evenodd;fill:#ffffff;fill-rule:nonzero;stroke-miterlimit:2"
       d="m 2700.6441,617.89572 7.625,0 -3.7916,-22.7167 -0.083,0 -3.75,22.7167 z m -11.9583,17.9584 10.7083,-56.62927 10.875,0 10.7501,56.62927 -9.7501,0 -1.75,-10.3584 -10.125,0 -1.6666,10.3584 -9.0417,0 z" />
    <path
       inkscape:connector-curvature="0"
       id="path994"
       style="clip-rule:evenodd;fill:#ffffff;fill-rule:nonzero;stroke-miterlimit:2"
       d="m 2732.5608,600.27072 0,35.5834 -8,0 0,-56.62927 9.3334,0 10.2916,32.49167 0,-32.49167 7.9167,0 0,56.62927 -8.3333,0 -11.2084,-35.5834 z" />
    <rect
       id="rect996"
       style="clip-rule:evenodd;fill:#ffffff;fill-rule:nonzero;stroke-miterlimit:2"
       height="56.629204"
       width="9.5000067"
       y="579.2251"
       x="2757.1455" />
    <path
       inkscape:connector-curvature="0"
       id="path998"
       style="clip-rule:evenodd;fill:#ffffff;fill-rule:nonzero;stroke-miterlimit:2"
       d="m 2770.6442,579.22485 25.3333,0 0,7.7667 -7.875,0 0,48.86257 -9.5833,0 0,-48.86257 -7.875,0 0,-7.7667 z" />
    <path
       inkscape:connector-curvature="0"
       id="path1000"
       style="clip-rule:evenodd;fill:#ffffff;fill-rule:nonzero;stroke-miterlimit:2"
       d="m 2806.2276,617.89572 7.625,0 -3.75,-22.7167 -0.083,0 -3.7916,22.7167 z m -11.9167,17.9584 10.6667,-56.62927 10.875,0 10.7916,56.62927 -9.7916,0 -1.75,-10.3584 -10.125,0 -1.6667,10.3584 -9,0 z" />
    <path
       inkscape:connector-curvature="0"
       id="path1002"
       style="clip-rule:evenodd;fill:#ffffff;fill-rule:nonzero;stroke-miterlimit:2"
       d="m 2839.6442,586.99155 0,17.62497 3.2084,0 c 3.25,0 4.6667,-1.6708 4.6667,-4.6791 l 0,-8.3542 c 0,-3.08747 -1.4167,-4.59167 -4.6667,-4.59167 l -3.2084,0 z m 0,22.88747 0,25.9751 -9.5,0 0,-56.62927 13.8751,0 c 9.5833,0 13.0833,4.7584 13.0833,12.69587 l 0,7.2667 c 0,6.0958 -2.1667,9.6875 -7.5833,10.9416 l 9.125,25.7251 -10.0417,0 -8.9584,-25.9751 z" />
    <rect
       id="rect1004"
       style="clip-rule:evenodd;fill:#ffffff;fill-rule:nonzero;stroke-miterlimit:2"
       height="56.629204"
       width="9.5000067"
       y="579.2251"
       x="2861.8955" />
    <rect
       id="rect1006"
       style="clip-rule:evenodd;fill:#e1a929;fill-rule:nonzero;stroke-miterlimit:2"
       height="671.36719"
       width="671.34631"
       y="365.24997"
       x="-724.99561" />
    <path
       inkscape:connector-curvature="0"
       id="path1008"
       style="clip-rule:evenodd;fill:#ffffff;fill-rule:nonzero;stroke-miterlimit:2"
       d="m -599.437,538.30406 -37.3375,0 0,-6.3875 c 0,-10.575 3.7958,-14.575 9.5833,-20.7625 l 14.5709,-15.3709 c 11.775,-12.57499 14.375,-20.56249 14.375,-34.14579 l 0,-13.1751 c 0,-19.3583 -9.3875,-28.55 -29.75,-28.55 -19.9584,0 -30.1417,10.5834 -30.1417,29.5542 l 0,16.3625 20.7625,0 0,-16.9708 c 0,-8.175 3.9917,-10.5792 8.7917,-10.5792 4.3791,0 8.1791,1.8 8.1791,10.1833 l 0,11.1792 c 0,11.1875 -1.0041,15.5792 -8.3833,23.3625 l -12.7875,13.57499 c -12.3667,13.1834 -16.9625,21.9667 -16.9625,35.3376 l 0,24.9583 59.1,0 0,-18.5708 z" />
    <path
       inkscape:connector-curvature="0"
       id="path1010"
       style="clip-rule:evenodd;fill:#ffffff;fill-rule:nonzero;stroke-miterlimit:2"
       d="m -457.21194,935.71692 0,9.4417 c -0.01,0.062 -0.033,0.1416 -0.033,0.2125 0,0.079 0.025,0.1541 0.033,0.2208 0.096,2.3375 2.0042,4.2 4.3542,4.2417 0.029,0 0.054,0.017 0.088,0.017 0.033,0 0.075,-0.017 0.1083,-0.017 l 110.7418,0 c 0.025,0 0.058,0.017 0.092,0.017 0.033,0 0.071,-0.017 0.1,-0.017 2.4166,-0.042 4.35,-2.0125 4.3666,-4.4334 0,-0.01 0.017,-0.017 0.017,-0.029 0,0 -0.017,-0.017 -0.017,-0.033 l 0,-10.6833 c 62.3419,-20.4375 109.0419,-70.9626 119.3127,-132.5376 0.025,-0.1333 0.042,-0.2542 0.062,-0.3667 0.033,-0.2166 0.058,-0.4125 0.058,-0.6208 0,-2.475 -1.9917,-4.475 -4.475,-4.475 l -352.95046,0 c -2.4917,0 -4.4875,2 -4.4875,4.475 l 0.2333,2.0125 c 10.7834,62.1625 58.77096,112.9709 122.39596,132.5751 z" />
    <path
       inkscape:connector-curvature="0"
       id="path1012"
       style="clip-rule:evenodd;fill:#ffffff;fill-rule:nonzero;stroke-miterlimit:2"
       d="m -337.46184,646.01242 c -1.4583,2.0708 -35.5542,51.1625 0.7584,90.8584 16.6583,18.225 15.2125,34.2959 10.4541,45.1542 l 23.296,0 c 4.7208,-16.0292 2.7708,-36.1334 -16.1418,-56.8 -26.7583,-29.2501 0.3459,-68.7918 0.7542,-69.4001 3.1917,-4.5125 1.4792,-10.325 -3.7833,-13.0375 -5.2834,-2.7 -12.1334,-1.2542 -15.3376,3.225 z" />
    <path
       inkscape:connector-curvature="0"
       id="path1014"
       style="clip-rule:evenodd;fill:#ffffff;fill-rule:nonzero;stroke-miterlimit:2"
       d="m -396.45764,782.02502 23.3,0 c 4.7083,-16.0333 2.7583,-36.1334 -16.1584,-56.8 -26.7625,-29.2542 0.3167,-68.7751 0.7417,-69.4209 3.1792,-4.4917 1.5,-10.2959 -3.7875,-13.0167 -5.2667,-2.6917 -12.125,-1.2583 -15.3209,3.225 -1.4583,2.0625 -35.5916,51.1625 0.7626,90.8584 16.6541,18.225 15.2,34.3042 10.4625,45.1542 z" />
    <path
       inkscape:connector-curvature="0"
       id="path1016"
       style="clip-rule:evenodd;fill:#ffffff;fill-rule:nonzero;stroke-miterlimit:2"
       d="m -477.90775,646.01242 c -1.4792,2.0708 -35.57499,51.1625 0.7458,90.8584 16.66251,18.2292 15.22501,34.3042 10.47921,45.1542 l 23.2959,0 c 4.7125,-16.0208 2.7625,-36.1292 -16.1626,-56.8 -26.77081,-29.2501 0.3334,-68.7918 0.7625,-69.4168 3.1625,-4.4958 1.475,-10.3083 -3.8041,-13.0208 -5.26671,-2.7125 -12.12501,-1.2625 -15.31671,3.225 z" />
  </g>
</svg>
